<?xml version="1.0" encoding="UTF-8" standalone="no"?>
<!-- Created with Inkscape (http://www.inkscape.org/) -->

<svg
   version="1.1"
   id="svg824"
   width="303"
   height="275"
   viewBox="0 0 303 275"
   sodipodi:docname="din.svg"
   inkscape:version="1.1.1 (3bf5ae0d25, 2021-09-20)"
   xmlns:inkscape="http://www.inkscape.org/namespaces/inkscape"
   xmlns:sodipodi="http://sodipodi.sourceforge.net/DTD/sodipodi-0.dtd"
   xmlns="http://www.w3.org/2000/svg"
   xmlns:svg="http://www.w3.org/2000/svg">
  <defs
     id="defs828" />
  <sodipodi:namedview
     id="namedview826"
     pagecolor="#ffffff"
     bordercolor="#666666"
     borderopacity="1.0"
     inkscape:pageshadow="2"
     inkscape:pageopacity="0.0"
     inkscape:pagecheckerboard="0"
     showgrid="false"
     inkscape:snap-global="true"
     inkscape:zoom="2.8472727"
     inkscape:cx="169.63602"
     inkscape:cy="136.44636"
     inkscape:window-width="1920"
     inkscape:window-height="1001"
     inkscape:window-x="-9"
     inkscape:window-y="-9"
     inkscape:window-maximized="1"
     inkscape:current-layer="g830" />
  <g
     inkscape:groupmode="layer"
     inkscape:label="Image"
     id="g830">
    <path
       style="fill:#000000"
       d="M 17.035147,269.29813 C 6.4704493,265.49768 1.7987243,259.18881 4.7510343,252.70919 c 1.635841,-3.59028 9.2588397,-7.97983 17.2654137,-9.94194 9.153578,-2.2432 29.619984,-1.53499 41.376272,1.43177 l 8,2.01884 4.279903,-4.71014 c 11.188839,-12.31362 24.906357,-36.1118 41.622667,-72.21015 11.53394,-24.90717 21.43277,-45.1706 22.47133,-46 0.34436,-0.275 0.67782,-1.22281 0.74103,-2.10625 0.17097,-2.38938 21.88103,-38.980779 29.29452,-49.374675 3.53809,-4.96049 9.54617,-12.498403 13.3513,-16.750919 6.32299,-7.066411 6.78161,-7.868653 5.32883,-9.321428 -0.87427,-0.87427 -1.58958,-1.363873 -1.58958,-1.088007 0,0.275866 -3.54492,-0.79216 -7.8776,-2.373392 -13.95472,-5.092844 -23.23106,-6.280182 -44.6224,-5.711507 -26.89448,0.714972 -41.079492,4.145472 -61.673274,14.91505 C 49.362472,63.701039 33.875964,81.397995 26.975139,103.76 c -4.560637,14.77868 -2.976321,28.91006 4.530936,40.41389 4.500924,6.89705 7.879495,9.72622 15.220998,12.74586 10.865101,4.46895 29.935386,2.64223 40.266171,-3.85703 19.556316,-12.3032 29.819246,-31.16199 29.055236,-53.39085 -0.23631,-6.875634 -2.97232,-14.795413 -7.96718,-23.062186 -4.35103,-7.201195 -4.68756,-10.686855 -1.12183,-11.619314 3.06048,-0.800334 11.91689,9.906615 10.32499,12.482378 -0.39112,0.632835 -0.25867,0.860615 0.29975,0.515494 1.01531,-0.627496 4.33545,5.92913 6.23319,12.309331 2.1353,7.178857 1.55523,24.423827 -1.11001,32.999997 -6.37275,20.5061 -28.132061,40.36153 -48.31467,44.08726 -7.954153,1.46834 -29.684355,0.85967 -30.253381,-0.8474 -0.229592,-0.68878 -0.863585,-0.97659 -1.408875,-0.63958 -3.145796,1.94421 -19.063963,-7.60673 -26.118569,-15.6712 C 2.0897333,133.62563 0.1182313,108.63781 11.532658,85.849773 16.316961,76.298274 20.618317,70.700342 29.762855,62.12437 46.707328,46.233427 69.719034,35.503887 99.39272,29.658441 c 13.41259,-2.642159 56.38517,-2.611868 72.75,0.05128 6.4625,1.051683 11.75,2.31574 11.75,2.809017 0,0.493278 0.4828,0.59848 1.07289,0.233784 0.59009,-0.364696 4.5515,0.342077 8.80314,1.570607 l 7.73024,2.233689 7.94687,-5.612258 c 4.37077,-3.086742 8.40318,-5.988623 8.96089,-6.448625 2.78526,-2.297257 22.84745,-12.379462 28.98597,-14.566828 13.05273,-4.6511377 28.9804,-7.6276207 42.65917,-7.9719287 8.80319,-0.221585 11.84083,0.759489 11.84083,3.824263 0,3.0249847 -1.9455,4.0963727 -9,4.9562987 -16.2727,1.983604 -29.04739,7.26323 -42.47527,17.554524 -11.08396,8.494879 -23.3212,20.649725 -21.98636,21.838323 0.52889,0.470956 3.88663,3.228155 7.46163,6.12711 13.80428,11.193843 25.25772,29.002401 30.5749,47.539873 2.00125,6.97703 2.70822,12.17328 3.14523,23.1176 0.66309,16.60643 -0.90864,27.54334 -6.45,44.8824 -3.0961,9.68777 -9.39233,24.09039 -11.14754,25.5 -0.34242,0.275 -0.72561,1.03406 -0.85153,1.68681 -0.43348,2.2472 -10.14502,16.3728 -16.23449,23.61334 -7.45715,8.86676 -26.03657,25.5407 -26.03657,23.36629 0,-0.31402 -1.2375,0.5799 -2.75,1.98648 -4.39922,4.09114 -25.79859,13.97158 -37.5626,17.34326 -9.45949,2.71119 -12.90087,3.17266 -27.5,3.68762 -18.5359,0.65381 -24.4658,-0.14911 -42.6874,-5.77997 -5.5,-1.69961 -11.125,-3.42341 -12.5,-3.83065 -1.87828,-0.5563 -4.546467,0.24144 -10.729061,3.20781 -4.525984,2.17154 -9.47754,4.04646 -11.003459,4.1665 -1.525918,0.12004 -3.741907,0.73605 -4.924419,1.36891 -1.182512,0.63286 -4.216234,1.27057 -6.741604,1.41713 -2.52537,0.14656 -4.593803,0.60397 -4.596519,1.01647 -0.0027,0.4125 -5.742438,0.73377 -12.754938,0.71392 -10.002228,-0.0283 -13.904619,-0.45142 -18.107573,-1.96336 z m 33.360869,-9.72725 c 2.751812,-1.1273 6.799434,-3.10939 8.994715,-4.40464 l 3.991419,-2.35499 -6.494715,-1.21016 c -9.675668,-1.80287 -27.070586,-1.62804 -33.840808,0.34012 -3.109649,0.90399 -5.878907,1.67972 -6.153907,1.72384 -1.265431,0.203 -4,3.2131 -4,4.40303 0,0.72932 1.4625,1.98808 3.25,2.79725 5.045308,2.28391 27.598841,1.4316 34.253296,-1.29445 z m 100.265044,-0.6995 c 18.35654,-4.8866 37.68298,-20.5136 52.46889,-42.42537 10.60813,-15.72057 20.21819,-38.99961 25.03691,-60.64844 1.91229,-8.59122 2.21614,-12.81756 2.15683,-30 -0.0675,-19.55694 -0.14083,-20.24049 -3.31018,-30.85582 -2.77784,-9.304012 -11.51829,-27.697219 -13.12079,-27.611104 -0.275,0.01478 -2.975,4.058735 -6,8.98657 -3.025,4.927836 -5.8375,8.964349 -6.25,8.970029 -0.4125,0.0057 -0.75,0.431441 -0.75,0.946134 0,0.514693 -4.20373,8.727193 -9.34163,18.250001 -5.1379,9.5228 -14.21047,26.76419 -20.16127,38.31419 -18.05971,35.05238 -34.04473,61.77489 -47.55576,79.5 -6.34124,8.31907 -18.80635,20.91205 -26.348113,26.6184 l -4.906772,3.71262 7.906775,2.40079 c 4.34872,1.32043 10.60677,3.01018 13.90677,3.75499 8.09444,1.82692 29.53909,1.87836 36.26834,0.087 z"
       id="path932" />
    <path
       style="fill:#00ff00;stroke:#83c451;stroke-width:0.351213;stroke-opacity:1"
       d="m 26.692209,270.92892 c -7.197527,-0.61309 -13.128782,-2.66624 -17.7230636,-6.13495 -4.2458225,-3.20563 -5.8653758,-7.86049 -4.0927164,-11.76314 1.8379894,-4.04648 11.080129,-8.99988 19.692672,-10.55445 4.183841,-0.75519 15.218289,-1.01999 21.791052,-0.52295 7.586752,0.57373 11.892869,1.23854 18.683356,2.88445 3.225237,0.78175 6.081009,1.36863 6.346157,1.30419 0.655312,-0.15927 5.301747,-5.31234 8.656087,-9.59992 10.649658,-13.61261 22.362717,-34.81956 39.475467,-71.47191 10.97253,-23.50111 17.39455,-36.66678 20.04408,-41.09195 0.4048,-0.67609 1.0045,-2.02384 1.33266,-2.995 1.64131,-4.8572 21.77735,-38.76569 29.16979,-49.121042 3.24124,-4.54033 8.52817,-11.170366 13.61435,-17.072976 4.80831,-5.580133 5.62186,-6.697328 5.62186,-7.720121 0,-0.84621 -1.92021,-2.973351 -2.41054,-2.67031 -0.17106,0.105723 -4.08445,-1.055687 -8.69641,-2.580912 -12.01029,-3.97193 -17.4326,-4.975081 -29.63379,-5.482381 -6.51778,-0.270996 -24.06719,0.337848 -31.13638,1.080218 -15.5554,1.633549 -27.024759,5.004241 -41.238122,12.119338 -14.866169,7.441886 -25.277199,15.305948 -33.923662,25.624538 -8.095019,9.660505 -14.736239,23.250755 -17.039194,34.868128 -1.021307,5.15204 -1.105036,13.965 -0.176834,18.61283 2.049847,10.26432 8.345039,20.74751 15.102939,25.15045 2.936968,1.91351 7.168586,3.71685 10.993632,4.68504 2.725384,0.68984 4.021143,0.78942 10.316725,0.79284 6.071632,0.003 7.806573,-0.11901 11.071518,-0.78052 8.685599,-1.75979 14.648937,-4.60196 21.650715,-10.31888 14.351593,-11.71799 22.049273,-27.8305 22.064163,-46.18387 0.006,-7.030734 -1.72343,-13.448068 -5.68866,-21.112438 -1.37595,-2.659552 -3.19731,-6.183373 -4.04747,-7.830718 -1.90306,-3.687518 -2.20967,-5.415087 -1.19052,-6.707819 0.40007,-0.507461 1.04065,-1.004575 1.42351,-1.104696 1.17748,-0.307919 3.43522,1.111647 5.7325,3.604344 3.07951,3.341475 4.6605,6.073567 4.61787,7.980082 -0.0262,1.173513 0.0931,1.506147 0.54042,1.506147 1.53133,0 5.65205,9.48816 6.72528,15.48531 1.09661,6.127734 0.34489,20.922378 -1.41211,27.792228 -4.53457,17.72999 -23.128403,37.18067 -41.819272,43.74641 -6.189965,2.17441 -7.804363,2.35983 -20.545977,2.35983 -12.20758,0 -14.898899,-0.25276 -16.554052,-1.5547 -0.672636,-0.5291 -1.077511,-0.61708 -1.718402,-0.37341 -2.382255,0.90573 -10.962774,-3.47172 -18.966569,-9.67601 C 8.0719208,144.26079 1.4041022,124.44349 5.6396676,103.47773 7.6177163,93.686519 12.702035,82.516068 19.088365,73.930396 c 2.717463,-3.65331 12.407669,-13.322503 16.996413,-16.959559 4.764554,-3.7764 11.493875,-8.204328 17.169692,-11.297748 14.493673,-7.899303 37.052562,-15.033248 52.81194,-16.701064 14.33534,-1.51711 44.4639,-1.409739 60.40869,0.215282 6.70637,0.683483 17.20945,2.817564 17.20945,3.496723 0,0.153915 0.84667,0.279845 1.88149,0.279845 2.04867,0 5.50204,0.761435 11.89802,2.623402 l 4.12115,1.199729 8.87374,-6.34137 c 4.88056,-3.487754 10.21714,-7.121298 11.85906,-8.074542 4.01412,-2.33046 16.40002,-8.50732 21.54733,-10.745668 10.03956,-4.3657888 26.67149,-8.1226748 40.7198,-9.1979511 5.90227,-0.4517674 12.84259,-0.2765532 14.47297,0.3653822 2.66987,1.0512179 3.41516,3.2492803 1.76617,5.2089837 -1.07549,1.2781533 -3.12714,1.8694665 -10.01968,2.8878162 -18.8269,2.781607 -31.97391,9.314685 -49.16986,24.433723 -4.08902,3.595154 -11.39202,10.95081 -12.58074,12.67145 -0.42095,0.60932 -0.7573,1.39955 -0.74745,1.756066 0.011,0.397707 1.86409,2.141207 4.79514,4.511556 8.86854,7.171997 14.22351,13.010152 20.2952,22.126437 8.33408,12.513143 13.69906,26.401771 15.27682,39.547941 0.67922,5.6594 1.03254,17.7992 0.69149,23.75915 -0.5614,9.8107 -1.79321,16.50963 -5.08564,27.65715 -2.92801,9.91363 -8.25891,23.19122 -11.21037,27.92145 -0.6629,1.06243 -1.76917,3.0669 -2.45837,4.4544 -2.91145,5.86126 -12.67937,19.29236 -19.11009,26.27677 -6.41048,6.96242 -18.71466,18.05025 -21.47519,19.35221 -2.17575,1.02616 -2.67478,1.33762 -5.13385,3.20418 -1.32948,1.00915 -5.18304,3.24842 -8.56347,4.97615 -15.24096,7.78966 -30.32506,13.09562 -40.95194,14.40522 -4.88869,0.60245 -21.12888,1.18502 -27.00783,0.96883 -9.99432,-0.36753 -15.83922,-1.58548 -33.189651,-6.91596 -11.738081,-3.60623 -11.117754,-3.6118 -19.630427,0.17621 -6.282138,2.79545 -10.548807,4.39829 -11.707975,4.39829 -0.362899,0 -2.275424,0.54054 -4.250057,1.2012 -2.156369,0.72146 -4.962328,1.35419 -7.025786,1.58428 -1.889549,0.21069 -4.019025,0.63321 -4.732171,0.93892 -1.046988,0.44883 -3.054691,0.5763 -10.428168,0.66206 -5.02235,0.0584 -9.842753,0.0456 -10.712006,-0.0284 z m 15.564379,-9.42876 c 5.246217,-0.71808 7.564765,-1.36753 11.460553,-3.2102 3.774303,-1.78521 9.833803,-5.13505 9.84507,-5.4426 0.009,-0.24663 -7.080502,-1.56175 -11.407039,-2.11603 -4.196166,-0.53757 -19.124915,-0.52921 -23.489861,0.0131 -4.128142,0.51294 -11.973532,2.58328 -13.211927,3.48653 -0.482918,0.35223 -1.329312,1.27831 -1.880874,2.05795 -1.268792,1.79346 -1.046061,2.62483 1.061258,3.96125 1.42362,0.90284 2.99643,1.31295 7.317062,1.90795 2.223343,0.30617 16.685437,-0.16247 20.305758,-0.65801 z m 105.955422,-1.92899 c 6.05027,-1.05655 15.54628,-5.21135 22.65325,-9.91151 10.94543,-7.23871 22.58694,-18.92289 31.22637,-31.34083 12.15901,-17.47682 23.13149,-44.75254 27.31854,-67.90922 0.78191,-4.32438 0.81014,-5.15352 0.81014,-23.79722 0,-21.67705 0.005,-21.62307 -2.64475,-30.354705 -1.95947,-6.457689 -4.05792,-11.651782 -7.88527,-19.517583 -3.05706,-6.282735 -5.06866,-9.658365 -5.75562,-9.658365 -0.28803,0 -1.55222,1.870839 -8.22391,12.170436 -1.64573,2.540641 -3.32464,4.951742 -3.7309,5.358001 -0.40625,0.406259 -2.37554,3.938182 -4.3762,7.848721 -2.00065,3.910539 -6.0855,11.693405 -9.07743,17.295255 -2.99194,5.60185 -9.27451,17.53432 -13.96128,26.5166 -21.84703,41.87032 -34.06673,62.74321 -47.86373,81.75769 -7.94107,10.94407 -19.74701,23.20941 -30.072205,31.24237 -4.037238,3.14096 -4.285859,3.4024 -3.512132,3.69328 1.711149,0.64329 13.974557,4.19421 17.866517,5.17331 3.6799,0.92576 7.36907,1.5285 11.59004,1.89359 3.28801,0.2844 23.44724,-0.0771 25.63857,-0.45982 z"
       id="path1291" />
  </g>
</svg>
