<?xml version="1.0" encoding="UTF-8" standalone="no"?>
<!-- Created with Inkscape (http://www.inkscape.org/) -->

<svg
   version="1.1"
   id="svg824"
   width="303"
   height="275"
   viewBox="0 0 303 275"
   sodipodi:docname="din.svg"
   inkscape:version="1.1.1 (3bf5ae0d25, 2021-09-20)"
   xmlns:inkscape="http://www.inkscape.org/namespaces/inkscape"
   xmlns:sodipodi="http://sodipodi.sourceforge.net/DTD/sodipodi-0.dtd"
   xmlns="http://www.w3.org/2000/svg"
   xmlns:svg="http://www.w3.org/2000/svg">
  <defs
     id="defs828" />
  <sodipodi:namedview
     id="namedview826"
     pagecolor="#ffffff"
     bordercolor="#666666"
     borderopacity="1.0"
     inkscape:pageshadow="2"
     inkscape:pageopacity="0.0"
     inkscape:pagecheckerboard="0"
     showgrid="false"
     inkscape:snap-global="true"
     inkscape:zoom="1.006663"
     inkscape:cx="71.523443"
     inkscape:cy="136.58991"
     inkscape:window-width="1920"
     inkscape:window-height="1001"
     inkscape:window-x="-9"
     inkscape:window-y="-9"
     inkscape:window-maximized="1"
     inkscape:current-layer="g830" />
  <g
     inkscape:groupmode="layer"
     inkscape:label="Image"
     id="g830">
    <path
       id="path71"
       style="fill:#83c451;fill-opacity:1;stroke-width:1.32944"
       class="st5"
       d="M 142.875,45.095703 C 125.50943,45.255478 108.13578,48.803301 92.250952,55.868885 75.99895,63.051144 61.34633,73.615416 48.840645,86.191829 38.424098,96.756825 29.67278,109.22504 24.696573,123.28182 c -3.889262,10.92177 -5.543635,22.66616 -4.621248,34.23157 0.789735,8.85429 3.866522,17.61708 9.47125,24.58474 5.318977,6.78289 12.774947,11.97113 21.166509,14.10296 10.079338,2.63276 20.927142,1.52631 30.554207,-2.30098 10.852863,-4.23814 20.284029,-11.41594 28.625679,-19.43455 6.83203,-6.64947 13.12719,-13.89157 18.42506,-21.82879 6.19055,-9.32623 10.9343,-19.82617 12.41359,-30.99523 0.69673,-5.40905 0.85624,-11.01421 -0.61405,-16.31393 -1.86045,-6.795575 -6.72118,-12.913614 -13.34134,-15.562285 -5.11959,-2.072227 -10.96065,-2.300131 -16.24844,-0.730983 -5.30161,1.607785 -10.08511,5.393785 -12.319261,10.530991 -1.341214,3.118607 -1.490041,6.672447 -0.801463,9.969177 0.661203,3.03219 2.621424,5.86503 5.538914,7.09172 4.64861,2.07133 10.42115,1.16712 14.28803,-2.1209 3.36541,-2.78635 5.50375,-7.12502 5.21008,-11.53256 -0.11622,-1.62989 -0.42599,-3.312937 -1.32886,-4.705192 4.14199,1.176679 7.13895,4.829752 8.46741,8.804232 1.54342,4.59618 1.26823,9.56202 0.6317,14.297 -1.55536,10.39434 -6.4299,19.98881 -12.45457,28.48666 -2.61352,3.69008 -5.57097,7.32842 -8.51758,10.62305 -5.24272,5.80334 -10.868446,11.29481 -17.121096,16.00976 -0.339619,0.23878 -0.952102,0.70531 -1.412871,1.02679 -7.279363,5.23481 -15.617381,9.41679 -24.630061,10.39846 -6.314677,0.6522 -13.038007,-0.13235 -18.515662,-3.53853 -5.35269,-3.29354 -9.171003,-8.84282 -10.552194,-14.95388 -0.387004,-1.61184 -0.628029,-3.25644 -0.768118,-4.90745 -0.03529,-0.3748 -0.06918,-1.07409 -0.0918,-1.47461 -0.06714,-1.73149 -0.03259,-3.46569 0.06641,-5.19531 0.04339,-0.64301 0.107716,-1.61007 0.19161,-2.37438 1.083659,-10.83232 4.849327,-21.21572 9.614897,-30.93864 1.165252,-2.35306 2.40614,-4.66753 3.699352,-6.95261 0.535894,-0.91803 1.197657,-2.07046 1.803464,-3.06447 7.756675,-12.8485 17.659719,-24.36276 28.968021,-34.212869 0.73866,-0.632423 1.688058,-1.445811 2.52488,-2.127397 10.283982,-8.492427 22.004629,-15.401318 34.771999,-19.39604 0.57881,-0.173197 1.46798,-0.450717 2.17388,-0.648428 10.9765,-3.131836 22.56955,-4.115466 33.91509,-2.861407 5.06763,0.564373 10.20357,1.709443 14.91689,3.449288 9.43891,3.415126 17.77496,9.689842 23.8082,17.698416 1.38177,1.823122 2.67188,3.716508 3.85781,5.672678 -14.87573,15.291046 -27.37061,32.792139 -38.08037,51.183629 -8.44267,14.22811 -17.05669,28.43771 -26.43177,42.14594 -4.3173,6.26621 -8.75523,12.47614 -13.78055,18.19988 -5.12388,5.81478 -11.33079,10.61872 -18.09855,14.37249 -6.439183,3.57112 -13.333114,6.28256 -20.401728,8.32072 -12.950917,-2.96141 -25.941116,-5.86364 -39.108654,-7.69658 -5.572236,-0.77605 -11.224118,-1.14087 -16.838044,-0.62384 -6.331428,0.51833 -12.7259,1.77788 -18.4126771,4.70714 -2.4787387,1.34749 -4.8965676,3.51929 -5.22070315,6.47851 -0.39049344,2.99249 1.76621935,5.7033 4.31517905,7.00359 4.4009067,2.28829 9.4206532,2.86352 14.2822032,3.38926 8.094501,0.7475 16.241456,0.80785 24.361453,0.54232 10.699973,-0.41505 21.353579,-1.74705 31.867337,-3.75939 12.042035,1.96345 24.169008,3.75055 36.391794,3.90165 16.804,0.1145 33.75503,-3.12456 48.95402,-10.41407 14.03771,-6.69703 26.44374,-16.62139 36.48353,-28.46619 8.73218,-10.31843 15.44825,-22.38964 19.22608,-35.38811 3.73658,-12.71752 4.86365,-26.15472 3.69142,-39.34155 -1.06859,-11.47674 -4.2338,-22.741907 -9.20778,-33.135478 8.40331,-8.767818 18.04312,-16.608506 29.21285,-21.557379 5.14817,-2.262324 10.60852,-3.855159 16.19926,-4.516839 0.72039,-0.08033 1.73878,-0.195639 2.58041,-0.253625 6.63445,-0.513273 13.6389,0.264507 19.42444,3.775899 6.4715,3.839945 11.0259,10.496963 12.77352,17.767794 1.55299,6.275946 1.42618,12.845165 0.61228,19.218914 -0.21381,1.489461 -0.4901,2.970184 -0.83792,4.434374 -0.0912,0.32347 -0.263,1.06683 -0.40868,1.54972 -0.59506,2.16118 -1.73688,4.44897 -0.89015,6.70614 0.93387,2.65729 4.46205,3.54305 6.79883,2.23828 2.17101,-1.28585 2.93928,-3.87806 3.54307,-6.17194 2.42618,-9.7938 3.222,-20.177036 0.96179,-30.081274 -1.93237,-8.344803 -6.51224,-16.143878 -13.23547,-21.51412 -5.48074,-4.418957 -12.34851,-6.96799 -19.34516,-7.526472 -6.10892,-0.511879 -12.27498,0.09109 -18.26837,1.308521 -13.09681,2.756607 -25.15683,9.225409 -35.69332,17.35127 -3.16048,2.434828 -6.20919,5.015469 -9.13832,7.723863 -6.50515,-8.917146 -15.04109,-16.421581 -24.98242,-21.28125 -11.40028,-5.627645 -24.24929,-7.776432 -36.88672,-7.583985 z m 59.31445,49.416016 c 3.21277,9.875091 4.00903,20.423711 3.01125,30.728961 -1.15259,12.58725 -4.92271,24.82984 -10.26515,36.24955 -0.31661,0.64465 -0.74928,1.57588 -1.12063,2.32736 -4.17428,8.41721 -9.06889,16.49466 -14.75898,23.97577 -1.78503,2.31331 -3.64147,4.574 -5.5569,6.69506 -7.81169,8.71902 -17.45301,16.24362 -28.37897,20.80894 -9.34738,3.97287 -19.54986,5.73953 -29.68452,5.62452 -2.9686,-0.009 -6.07939,-0.11905 -8.95117,-0.29883 -2.5418,-0.16551 -5.0814,-0.3714 -7.611333,-0.66993 13.607003,-5.04869 26.843253,-11.57196 38.145193,-20.77689 5.71087,-4.64343 10.68745,-10.12393 15.10387,-15.99762 7.72336,-10.22078 13.94137,-21.48866 19.51672,-32.99595 3.04966,-6.27551 5.74332,-12.71295 8.61117,-19.07133 2.49012,-5.44322 5.25499,-10.99656 8.14854,-16.22696 2.38548,-4.32337 4.92042,-8.56464 7.62099,-12.69882 0.42918,-0.6522 0.94569,-1.44551 1.39419,-2.09566 1.45862,-2.149563 2.95318,-4.27536 4.51206,-6.353562 0.0879,0.258464 0.17578,0.516927 0.26367,0.775391 z" />
    <ellipse
       style="fill:#ffffff;stroke:#83c451;stroke-width:0.605608"
       id="path1084"
       cx="34.307205"
       cy="219.87016"
       rx="21.094385"
       ry="1.9779088" />
  </g>
</svg>
