<?xml version="1.0" encoding="UTF-8" standalone="no"?>
<!-- Generator: Adobe Illustrator 24.0.0, SVG Export Plug-In . SVG Version: 6.00 Build 0)  -->

<svg
   version="1.1"
   id="Capa_1"
   x="0px"
   y="0px"
   viewBox="0 0 539.2 141.43"
   xml:space="preserve"
   sodipodi:docname="dintex_logo.svg"
   width="539.20001"
   height="141.42999"
   inkscape:version="1.1.1 (3bf5ae0d25, 2021-09-20)"
   xmlns:inkscape="http://www.inkscape.org/namespaces/inkscape"
   xmlns:sodipodi="http://sodipodi.sourceforge.net/DTD/sodipodi-0.dtd"
   xmlns="http://www.w3.org/2000/svg"
   xmlns:svg="http://www.w3.org/2000/svg"><defs
   id="defs94" /><sodipodi:namedview
   id="namedview92"
   pagecolor="#ffffff"
   bordercolor="#666666"
   borderopacity="1.0"
   inkscape:pageshadow="2"
   inkscape:pageopacity="0.0"
   inkscape:pagecheckerboard="0"
   showgrid="false"
   width="474.20001px"
   inkscape:zoom="2.4559732"
   inkscape:cx="281.96562"
   inkscape:cy="80.823358"
   inkscape:window-width="1600"
   inkscape:window-height="1201"
   inkscape:window-x="2391"
   inkscape:window-y="56"
   inkscape:window-maximized="1"
   inkscape:current-layer="Capa_1" />
<style
   type="text/css"
   id="style2">
	.st0{stroke:#FFFFFF;stroke-width:2.4044;stroke-miterlimit:10;}
	.st1{stroke:#000000;stroke-width:2.0949;}
	.st2{stroke:#000000;stroke-width:2.0949;stroke-miterlimit:10;}
	.st3{stroke:#000000;stroke-width:0.6231;stroke-miterlimit:10;}
	.st4{fill:url(#SVGID_1_);}
	.st5{fill:#95C11F;}
	.st6{fill:#FFFFFF;stroke:#FFFFFF;stroke-width:0.6231;stroke-miterlimit:10;}
	.st7{fill:#FFFFFF;}
	.st8{fill:#FFFFFF;stroke:#FFFFFF;stroke-width:1.0474;}
	.st9{fill:#FFFFFF;stroke:#FFFFFF;stroke-width:1.0474;stroke-miterlimit:10;}
	.st10{fill:url(#SVGID_2_);}
</style>
<path
   d="m 161.7795,141.36 c 3.04564,0 377.1319,0 377.1319,0 V 115.17 H 229.40632 c 0,0 -24.17565,21.85 -67.62682,26.19 z"
   id="path4"
   style="stroke-width:1.16345" />
<g
   id="g20"
   transform="matrix(1.3536193,0,0,1,-16.39743,-27.46)">
	<path
   class="st1"
   d="m 240.94,58.41 c 0,3.17 -0.37,6.52 -1.12,10.03 -0.75,3.52 -1.47,5.27 -2.15,5.27 -0.37,0 -0.56,-0.19 -0.56,-0.56 0,-0.43 0.06,-0.84 0.19,-1.21 1.43,-3.79 2.15,-8.24 2.15,-13.34 0,-7.84 -2.38,-14.14 -7.15,-18.9 -4.77,-4.76 -11.07,-7.14 -18.92,-7.14 -15.07,0 -29.68,7.16 -43.82,21.49 5.36,9.97 8.03,20.49 8.03,31.58 0,20.43 -7.83,37.75 -23.5,51.95 -15.66,14.2 -34.8,21.3 -57.41,21.3 -6.98,0 -16.54,-0.97 -28.68,-2.9 -10.53,1.93 -20.62,2.9 -30.27,2.9 -16.44,0 -24.67,-1.65 -24.67,-4.95 0,-1.62 2.01,-3.05 6.03,-4.3 4.02,-1.25 8.7,-1.87 14.06,-1.87 6.48,0 19.37,2.12 38.68,6.35 13.02,-3.43 23.26,-8.81 30.74,-16.16 7.29,-7.16 18.47,-22.76 33.54,-46.81 9.09,-14.58 19.09,-27 29.99,-37.28 -9.1,-15.32 -23.83,-22.98 -44.19,-22.98 -21.05,0 -40.36,8.28 -57.93,24.85 -8.84,8.35 -15.91,17.56 -21.21,27.65 -5.29,10.09 -7.94,19.37 -7.94,27.84 0,6.73 2.13,12.12 6.4,16.16 4.27,4.05 9.92,6.07 16.96,6.07 11.9,0 24.25,-6.41 37.05,-19.25 12.8,-12.83 19.2,-25.16 19.2,-37 0,-4.48 -1.25,-8.1 -3.74,-10.84 -2.49,-2.74 -5.76,-4.11 -9.81,-4.11 -4.61,0 -6.91,0.75 -6.91,2.24 0,0.43 0.34,0.65 1.03,0.65 0.37,0 0.68,-0.06 0.93,-0.19 h 1.31 c 3.05,0 4.58,1.4 4.58,4.2 0,2.06 -0.78,3.85 -2.34,5.37 -1.56,1.53 -3.4,2.29 -5.51,2.29 -3.8,0 -5.7,-2.06 -5.7,-6.17 0,-2.8 1.24,-5.2 3.74,-7.2 2.49,-1.99 5.51,-2.99 9.06,-2.99 4.55,0 8.24,1.51 11.07,4.53 2.83,3.02 4.25,6.96 4.25,11.82 0,12.58 -6.56,25.44 -19.67,38.58 -13.11,13.14 -25.96,19.71 -38.54,19.71 -8.66,0 -15.79,-2.88 -21.39,-8.64 -5.61,-5.76 -8.41,-13.16 -8.41,-22.19 0,-19.37 9.56,-36.73 28.68,-52.09 C 76.2,36.88 97.81,29.2 121.92,29.2 c 20.49,0 35.94,7.57 46.34,22.7 15.2,-14.01 30.65,-21.02 46.34,-21.02 7.85,0 14.2,2.54 19.06,7.61 4.86,5.07 7.28,11.71 7.28,19.92 z m -176.2,97.01 c -17.19,-2.43 -30.02,-3.64 -38.49,-3.64 -7.47,0 -11.21,0.72 -11.21,2.15 0,2.18 8.16,3.27 24.48,3.27 9.34,-0.01 17.74,-0.6 25.22,-1.78 z M 172.55,78.71 c 0,-7.97 -1.68,-15.45 -5.04,-22.42 -8.41,9.59 -15.95,21.64 -22.61,36.15 -8.78,19.25 -17.88,33.11 -27.28,41.58 -9.72,8.66 -23.95,15.6 -42.7,20.83 7.92,1.68 16.33,2.52 25.25,2.52 23.88,0 43.2,-11.55 57.98,-34.66 9.6,-14.94 14.4,-29.61 14.4,-44 z"
   id="path6" />
	<path
   class="st1"
   d="m 217.03,105.33 c -0.05,0.16 -0.31,0.58 -0.78,1.26 l -3.38,4.64 c -9.86,13.69 -17.38,20.53 -22.57,20.53 -2.46,0 -4.52,-0.88 -6.17,-2.63 -1.65,-1.75 -2.48,-3.94 -2.48,-6.56 0,-3.04 1.81,-7.64 5.42,-13.82 l 12.25,-20.81 c 1.62,0.37 2.91,0.55 3.85,0.55 1.41,0 3.4,-0.18 5.97,-0.55 l -17.83,29.3 c -2.57,4.24 -3.85,7.52 -3.85,9.82 0,2.36 1.23,3.53 3.7,3.53 4.67,0 12.87,-8.31 24.62,-24.94 0.26,-0.52 0.52,-0.79 0.79,-0.79 0.3,-0.01 0.46,0.15 0.46,0.47 z"
   id="path8" />
	<path
   class="st1"
   d="m 280.1,105.33 c 0,1.1 -3.8,6.19 -11.4,15.26 -6.24,7.45 -11.14,11.17 -14.71,11.17 -2.36,0 -4.34,-0.92 -5.94,-2.75 -1.6,-1.83 -2.4,-4.08 -2.4,-6.75 0,-2.36 0.48,-4.54 1.45,-6.56 0.97,-2.01 3.49,-6.01 7.58,-11.98 4.24,-6.28 6.36,-10.29 6.36,-12.02 0,-2.15 -1.13,-3.22 -3.38,-3.22 -7.65,0 -19.43,14.19 -35.34,42.57 -2.57,-0.21 -4.11,-0.32 -4.63,-0.32 -1.83,0 -3.56,0.11 -5.18,0.32 l 12.25,-19.4 c 6.96,-11.1 10.45,-18.04 10.45,-20.81 0,-1.57 -0.66,-2.36 -1.97,-2.36 -2.68,0 -7.95,5.64 -15.82,16.92 -0.47,0.68 -0.84,1.05 -1.1,1.1 -0.26,0 -0.42,-0.16 -0.47,-0.47 0.05,-0.26 0.16,-0.47 0.32,-0.63 l 1.49,-1.97 c 8.02,-10.76 13.43,-16.14 16.21,-16.14 1.78,0 3.3,0.81 4.56,2.43 1.26,1.62 1.89,3.56 1.89,5.81 0,3.35 -1.96,8.01 -5.89,13.98 6.18,-8.53 10.93,-14.37 14.25,-17.51 3.32,-3.14 6.4,-4.71 9.23,-4.71 2.3,0 4.24,0.94 5.81,2.83 1.57,1.88 2.36,4.21 2.36,6.99 0,3.51 -2.41,8.88 -7.23,16.1 -4.92,7.38 -7.38,12.1 -7.38,14.14 0,2.15 1.07,3.22 3.23,3.22 4.67,0 12.72,-8.31 24.14,-24.94 0.26,-0.52 0.52,-0.79 0.79,-0.79 0.31,0.01 0.47,0.17 0.47,0.49 z"
   id="path10" />
	<path
   class="st2"
   d="m 309.04,87.3 -0.63,1.18 h -10.29 l -17.51,29.92 c -2.15,3.61 -3.22,6.49 -3.22,8.64 0,2.36 1.23,3.53 3.7,3.53 4.77,0 12.82,-8.31 24.15,-24.94 0.37,-0.52 0.68,-0.79 0.94,-0.79 0.31,0 0.47,0.16 0.47,0.47 -0.05,0.16 -0.32,0.58 -0.79,1.26 l -3.38,4.64 c -9.86,13.69 -17.27,20.53 -22.25,20.53 -2.46,0 -4.52,-0.89 -6.17,-2.67 -1.65,-1.78 -2.48,-4.01 -2.48,-6.68 0,-3.14 1.39,-7.07 4.16,-11.78 l 13.2,-22.15 h -8.01 l 0.79,-1.18 h 7.85 l 9.19,-15.24 c 1.57,0.42 3.06,0.63 4.48,0.63 1.47,0 2.99,-0.21 4.56,-0.63 l -9.03,15.24 h 10.27 z"
   id="path12" />
	<path
   class="st2"
   d="m 346.23,105.4 c 0,0.16 -0.47,0.84 -1.41,2.04 l -3.38,4.23 c -10.85,13.38 -20.15,20.08 -27.91,20.08 -3.67,0 -6.75,-1.32 -9.24,-3.97 -2.49,-2.64 -3.73,-5.96 -3.73,-9.94 0,-9.43 6.57,-17.72 19.71,-24.9 6.91,-3.77 12.54,-5.65 16.89,-5.65 1.88,0 3.49,0.56 4.83,1.69 1.33,1.13 2,2.5 2,4.12 0,3.77 -2.46,6.98 -7.38,9.62 -4.92,2.65 -13.14,5.12 -24.66,7.42 -3.56,5.39 -5.34,9.9 -5.34,13.51 0,4.5 2.44,6.75 7.31,6.75 8.28,0 18.42,-8.08 30.43,-24.23 0.63,-0.84 1.15,-1.26 1.57,-1.26 0.2,0.08 0.31,0.23 0.31,0.49 z m -6.64,-14.57 c 0,-1.67 -0.92,-2.51 -2.75,-2.51 -2.78,0 -6.43,1.92 -10.96,5.77 -4.53,3.85 -8.97,8.84 -13.31,14.96 7.54,-1.94 13.93,-4.67 19.16,-8.21 5.24,-3.52 7.86,-6.86 7.86,-10.01 z"
   id="path14" />
	<path
   class="st2"
   d="m 402.07,105.33 -0.31,0.63 -0.94,1.26 c -6.87,9.18 -12.19,15.52 -15.96,19.04 -3.93,3.67 -7.47,5.51 -10.61,5.51 -3.15,0 -5.9,-1.22 -8.26,-3.65 -2.36,-2.44 -3.54,-5.25 -3.54,-8.44 0,-1.41 0.39,-3.4 1.18,-5.97 -7.12,12.04 -13.35,18.07 -18.69,18.07 -1.68,0 -3.09,-0.64 -4.24,-1.93 -1.15,-1.29 -1.73,-2.84 -1.73,-4.67 0,-2.72 0.97,-5.24 2.91,-7.54 1.94,-2.3 4.03,-3.46 6.28,-3.46 2.77,0 4.16,1.32 4.16,3.97 0,3.04 -2.15,5.13 -6.44,6.28 -2.36,0.63 -3.53,1.81 -3.53,3.53 0,1.62 0.97,2.43 2.91,2.43 3.87,0 8.33,-3.53 13.35,-10.6 7.96,-11.14 11.94,-19.98 11.94,-26.51 0,-3.19 -1.46,-4.79 -4.39,-4.79 -4.97,0 -11.32,5.38 -19.06,16.14 -0.89,1.2 -1.49,1.8 -1.8,1.8 -0.21,-0.1 -0.32,-0.26 -0.32,-0.47 0,-0.94 2.59,-4.28 7.77,-10.03 5.18,-5.75 9.81,-8.62 13.89,-8.62 3.14,0 5.73,1.07 7.77,3.22 2.04,2.15 3.06,4.84 3.06,8.09 0,1.57 -0.39,3.33 -1.18,5.26 7.23,-11.05 13.46,-16.57 18.69,-16.57 3.98,0 5.97,2.15 5.97,6.44 0,2.57 -0.86,4.95 -2.59,7.15 -1.73,2.2 -3.61,3.3 -5.65,3.3 -2.57,0 -3.85,-1.34 -3.85,-4.01 0,-2.51 1.88,-4.35 5.65,-5.5 2.36,-0.68 3.53,-1.91 3.53,-3.69 0,-1.67 -1.07,-2.51 -3.22,-2.51 -4.45,0 -9.86,4.48 -16.22,13.43 -6.36,8.95 -9.54,16.52 -9.54,22.7 0,3.98 1.89,5.97 5.66,5.97 5.45,0 13.87,-8 25.24,-23.99 0.84,-1.15 1.39,-1.73 1.65,-1.73 0.31,-0.02 0.46,0.14 0.46,0.46 z"
   id="path16" />
	<path
   class="st2"
   d="m 215.75,73.04 c 0,1.76 -0.74,3.41 -2.22,4.94 -1.48,1.53 -3.11,2.3 -4.87,2.3 -2.26,0 -3.39,-1.13 -3.39,-3.39 0,-1.66 0.78,-3.26 2.34,-4.79 1.56,-1.53 3.19,-2.3 4.9,-2.3 2.15,-0.01 3.24,1.07 3.24,3.24 z"
   id="path18" />
</g>
<g
   id="g26"
   transform="matrix(1.3536193,0,0,1,-16.39743,-27.46)">
	<g
   id="g24">
		<path
   class="st3"
   d="m 394.33,125.82 c 0,-3.85 2.94,-6.64 6.94,-6.64 4,0 6.94,2.79 6.94,6.64 0,3.7 -2.94,6.57 -6.94,6.57 -4,0 -6.94,-2.87 -6.94,-6.57 z m 12.98,-0.07 c 0,-3.56 -2.48,-5.8 -6.04,-5.8 -3.56,0 -6.04,2.23 -6.04,5.8 0,3.48 2.48,5.88 6.13,5.88 3.47,-0.01 5.95,-2.41 5.95,-5.88 z m -8.91,-1.05 v -1.89 c 0,-0.46 -0.31,-0.53 -0.91,-0.53 -0.07,0 -0.15,-0.08 -0.15,-0.23 0,-0.23 0.15,-0.31 0.38,-0.31 h 0.31 c 0.15,0 0.75,0.08 1.28,0.08 0.68,0 0.98,-0.08 1.73,-0.08 1.28,0 3.33,0.23 3.33,2.04 0,0.75 -0.31,1.36 -1.59,2.26 l 1.36,1.59 c 0.98,1.13 1.13,1.13 1.28,1.13 0.15,0 0.23,0.07 0.23,0.22 0,0.23 -0.08,0.31 -0.68,0.31 -0.98,0 -1.81,0.07 -2.94,-1.44 l -1.05,-1.43 h -0.9 v 0.68 c 0,1.35 0.07,1.5 0.15,1.58 0.15,0.08 0.53,0.08 0.75,0.08 0.15,0 0.23,0 0.23,0.22 0,0.23 -0.16,0.31 -0.31,0.31 h -0.3 c -0.15,0 -0.83,-0.08 -1.21,-0.08 -0.22,0 -0.98,0.08 -1.13,0.08 h -0.38 c -0.15,0 -0.53,-0.08 -0.53,-0.31 0,-0.15 0.08,-0.22 0.23,-0.22 0.68,0 0.75,0 0.83,-0.46 0.07,-0.38 0,-0.9 0,-1.96 v -1.64 z m 1.66,0.74 c 0.22,0.16 0.75,0.23 1.05,0.23 0.23,0 0.46,0 0.68,-0.15 0.38,-0.23 0.68,-0.68 0.68,-1.28 0,-0.9 -0.68,-1.66 -1.74,-1.66 -0.08,0 -0.53,0 -0.68,0.15 v 2.71 z"
   id="path22" />
	</g>
</g>
<linearGradient
   id="SVGID_1_"
   gradientUnits="userSpaceOnUse"
   x1="129.6019"
   y1="153.9478"
   x2="408.2099"
   y2="153.9478"
   gradientTransform="matrix(1.3536194,0,0,1,-16.397431,-27.46)">
	<stop
   offset="0"
   style="stop-color:#658516"
   id="stop28" />
	<stop
   offset="0.7735"
   style="stop-color:#95C11F"
   id="stop30" />
	<stop
   offset="1"
   style="stop-color:#CEDE8D"
   id="stop32" />
</linearGradient>
<path
   class="st4"
   d="m 159.03165,139.58 c 3.04564,0 377.1319,0 377.1319,0 V 113.39 H 226.65847 c 0,0 -24.17564,21.86 -67.62682,26.19 z"
   id="path35"
   style="fill:url(#SVGID_1_);stroke-width:1.16345" />

<g
   id="g85"
   transform="matrix(1.3536193,0,0,1,-16.39743,-27.46)">
	<path
   class="st5"
   d="m 240.28,56.73 c 0,3.17 -0.37,6.52 -1.12,10.03 -0.75,3.52 -1.47,5.27 -2.15,5.27 -0.37,0 -0.56,-0.19 -0.56,-0.56 0,-0.43 0.06,-0.84 0.19,-1.21 1.43,-3.79 2.15,-8.24 2.15,-13.34 0,-7.84 -2.38,-14.14 -7.15,-18.9 -4.77,-4.76 -11.07,-7.14 -18.92,-7.14 -15.07,0 -29.68,7.16 -43.82,21.49 5.36,9.97 8.03,20.49 8.03,31.58 0,20.43 -7.83,37.75 -23.5,51.95 -15.67,14.2 -34.8,21.3 -57.41,21.3 -6.98,0 -16.54,-0.97 -28.68,-2.9 -10.53,1.93 -20.62,2.9 -30.27,2.9 -16.44,0 -24.67,-1.65 -24.67,-4.95 0,-1.62 2.01,-3.05 6.03,-4.3 4.02,-1.25 8.7,-1.87 14.06,-1.87 6.48,0 19.37,2.12 38.68,6.35 13.02,-3.43 23.26,-8.81 30.74,-16.16 7.29,-7.16 18.47,-22.76 33.54,-46.81 9.09,-14.58 19.09,-27 29.99,-37.28 C 156.34,36.86 141.61,29.2 121.25,29.2 100.2,29.2 80.89,37.48 63.32,54.05 54.48,62.4 47.41,71.61 42.11,81.7 c -5.29,10.09 -7.94,19.37 -7.94,27.84 0,6.73 2.13,12.12 6.4,16.16 4.27,4.05 9.92,6.07 16.96,6.07 11.9,0 24.25,-6.41 37.05,-19.25 12.8,-12.83 19.2,-25.16 19.2,-37 0,-4.48 -1.25,-8.1 -3.74,-10.84 -2.49,-2.74 -5.76,-4.11 -9.81,-4.11 -4.61,0 -6.91,0.75 -6.91,2.24 0,0.43 0.34,0.65 1.03,0.65 0.37,0 0.68,-0.06 0.93,-0.19 h 1.31 c 3.05,0 4.58,1.4 4.58,4.2 0,2.06 -0.78,3.85 -2.34,5.37 -1.56,1.53 -3.4,2.29 -5.51,2.29 -3.8,0 -5.7,-2.06 -5.7,-6.17 0,-2.8 1.24,-5.2 3.74,-7.2 2.49,-1.99 5.51,-2.99 9.06,-2.99 4.55,0 8.24,1.51 11.07,4.53 2.83,3.02 4.25,6.96 4.25,11.82 0,12.58 -6.56,25.44 -19.67,38.58 -13.11,13.14 -25.96,19.71 -38.54,19.71 -8.66,0 -15.79,-2.88 -21.39,-8.64 -5.61,-5.76 -8.41,-13.16 -8.41,-22.19 0,-19.37 9.56,-36.73 28.68,-52.09 19.12,-15.35 40.73,-23.03 64.84,-23.03 20.49,0 35.94,7.57 46.34,22.7 15.2,-14.01 30.65,-21.02 46.34,-21.02 7.85,0 14.2,2.54 19.06,7.61 4.86,5.13 7.29,11.77 7.29,19.98 z M 64.07,153.74 c -17.19,-2.43 -30.02,-3.64 -38.49,-3.64 -7.47,0 -11.21,0.72 -11.21,2.15 0,2.18 8.16,3.27 24.48,3.27 9.34,-0.01 17.74,-0.6 25.22,-1.78 z M 171.88,77.03 c 0,-7.97 -1.68,-15.45 -5.04,-22.42 -8.41,9.59 -15.95,21.64 -22.61,36.15 -8.78,19.25 -17.88,33.11 -27.28,41.58 -9.72,8.66 -23.95,15.6 -42.7,20.83 7.92,1.68 16.33,2.52 25.25,2.52 23.88,0 43.2,-11.55 57.98,-34.66 9.6,-14.94 14.4,-29.61 14.4,-44 z"
   id="path71" />
	<path
   class="st5"
   d="m 216.36,103.64 c -0.05,0.16 -0.31,0.58 -0.78,1.26 l -3.38,4.64 c -9.86,13.69 -17.38,20.53 -22.57,20.53 -2.46,0 -4.52,-0.88 -6.17,-2.63 -1.65,-1.75 -2.48,-3.94 -2.48,-6.56 0,-3.04 1.81,-7.64 5.42,-13.82 l 12.25,-20.81 c 1.62,0.37 2.91,0.55 3.85,0.55 1.41,0 3.4,-0.18 5.97,-0.55 l -17.83,29.3 c -2.57,4.24 -3.85,7.52 -3.85,9.82 0,2.36 1.23,3.53 3.7,3.53 4.67,0 12.87,-8.31 24.62,-24.94 0.26,-0.52 0.52,-0.79 0.79,-0.79 0.3,0 0.46,0.16 0.46,0.47 z"
   id="path73" />
	<path
   class="st5"
   d="m 279.43,103.64 c 0,1.1 -3.8,6.19 -11.4,15.26 -6.24,7.45 -11.14,11.17 -14.71,11.17 -2.36,0 -4.34,-0.92 -5.94,-2.75 -1.6,-1.83 -2.4,-4.08 -2.4,-6.75 0,-2.36 0.48,-4.54 1.45,-6.56 0.97,-2.01 3.49,-6.01 7.58,-11.98 4.24,-6.28 6.36,-10.29 6.36,-12.02 0,-2.15 -1.13,-3.22 -3.38,-3.22 -7.65,0 -19.43,14.19 -35.34,42.57 -2.57,-0.21 -4.11,-0.32 -4.63,-0.32 -1.83,0 -3.56,0.11 -5.18,0.32 l 12.25,-19.4 c 6.96,-11.1 10.45,-18.04 10.45,-20.81 0,-1.57 -0.66,-2.36 -1.97,-2.36 -2.68,0 -7.95,5.64 -15.82,16.92 -0.47,0.68 -0.84,1.05 -1.1,1.1 -0.26,0 -0.42,-0.16 -0.47,-0.47 0.05,-0.26 0.16,-0.47 0.32,-0.63 l 1.49,-1.97 c 8.02,-10.76 13.43,-16.14 16.21,-16.14 1.78,0 3.3,0.81 4.56,2.43 1.26,1.62 1.89,3.56 1.89,5.81 0,3.35 -1.96,8.01 -5.89,13.98 6.18,-8.53 10.93,-14.37 14.25,-17.51 3.32,-3.14 6.4,-4.71 9.23,-4.71 2.3,0 4.24,0.94 5.81,2.83 1.57,1.88 2.36,4.21 2.36,6.99 0,3.51 -2.41,8.88 -7.23,16.1 -4.92,7.38 -7.38,12.1 -7.38,14.14 0,2.15 1.07,3.22 3.23,3.22 4.67,0 12.72,-8.31 24.14,-24.94 0.26,-0.52 0.52,-0.79 0.79,-0.79 0.31,0.02 0.47,0.18 0.47,0.49 z"
   id="path75" />
	<path
   class="st5"
   d="m 308.37,85.62 -0.63,1.18 h -10.29 l -17.51,29.92 c -2.15,3.61 -3.22,6.49 -3.22,8.64 0,2.36 1.23,3.53 3.7,3.53 4.77,0 12.82,-8.31 24.15,-24.94 0.37,-0.52 0.68,-0.79 0.94,-0.79 0.31,0 0.47,0.16 0.47,0.47 -0.05,0.16 -0.32,0.58 -0.79,1.26 l -3.38,4.64 c -9.86,13.69 -17.27,20.53 -22.25,20.53 -2.46,0 -4.52,-0.89 -6.17,-2.67 -1.65,-1.78 -2.48,-4.01 -2.48,-6.68 0,-3.14 1.39,-7.07 4.16,-11.78 l 13.2,-22.15 h -8.01 l 0.79,-1.18 h 7.85 l 9.19,-15.24 c 1.57,0.42 3.06,0.63 4.48,0.63 1.47,0 2.99,-0.21 4.56,-0.63 L 298.1,85.6 h 10.27 z"
   id="path77" />
	<path
   class="st5"
   d="m 345.56,103.72 c 0,0.16 -0.47,0.84 -1.41,2.04 l -3.38,4.23 c -10.85,13.38 -20.15,20.08 -27.91,20.08 -3.67,0 -6.75,-1.32 -9.24,-3.97 -2.49,-2.64 -3.73,-5.96 -3.73,-9.94 0,-9.43 6.57,-17.72 19.71,-24.9 6.91,-3.77 12.54,-5.65 16.89,-5.65 1.88,0 3.49,0.56 4.83,1.69 1.33,1.13 2,2.5 2,4.12 0,3.77 -2.46,6.98 -7.38,9.62 -4.92,2.65 -13.14,5.12 -24.66,7.42 -3.56,5.39 -5.34,9.9 -5.34,13.51 0,4.5 2.44,6.75 7.31,6.75 8.28,0 18.42,-8.08 30.43,-24.23 0.63,-0.84 1.15,-1.26 1.57,-1.26 0.2,0.08 0.31,0.23 0.31,0.49 z m -6.64,-14.57 c 0,-1.67 -0.92,-2.51 -2.75,-2.51 -2.78,0 -6.43,1.92 -10.96,5.77 -4.53,3.85 -8.97,8.84 -13.31,14.96 7.54,-1.94 13.93,-4.67 19.16,-8.21 5.24,-3.53 7.86,-6.86 7.86,-10.01 z"
   id="path79" />
	<path
   class="st5"
   d="m 401.4,103.64 -0.31,0.63 -0.94,1.26 c -6.87,9.18 -12.19,15.52 -15.96,19.04 -3.93,3.67 -7.47,5.51 -10.61,5.51 -3.15,0 -5.9,-1.22 -8.26,-3.65 -2.36,-2.44 -3.54,-5.25 -3.54,-8.44 0,-1.41 0.39,-3.4 1.18,-5.97 -7.12,12.04 -13.35,18.07 -18.69,18.07 -1.68,0 -3.09,-0.64 -4.24,-1.93 -1.15,-1.29 -1.73,-2.84 -1.73,-4.67 0,-2.72 0.97,-5.24 2.91,-7.54 1.94,-2.3 4.03,-3.46 6.28,-3.46 2.77,0 4.16,1.32 4.16,3.97 0,3.04 -2.15,5.13 -6.44,6.28 -2.36,0.63 -3.53,1.81 -3.53,3.53 0,1.62 0.97,2.43 2.91,2.43 3.87,0 8.33,-3.53 13.35,-10.6 7.96,-11.14 11.94,-19.98 11.94,-26.51 0,-3.19 -1.46,-4.79 -4.39,-4.79 -4.97,0 -11.32,5.38 -19.06,16.14 -0.89,1.2 -1.49,1.8 -1.8,1.8 -0.21,-0.1 -0.32,-0.26 -0.32,-0.47 0,-0.94 2.59,-4.28 7.77,-10.03 5.18,-5.75 9.81,-8.62 13.89,-8.62 3.14,0 5.73,1.07 7.77,3.22 2.04,2.15 3.06,4.84 3.06,8.09 0,1.57 -0.39,3.33 -1.18,5.26 7.23,-11.05 13.46,-16.57 18.69,-16.57 3.98,0 5.97,2.15 5.97,6.44 0,2.57 -0.86,4.95 -2.59,7.15 -1.73,2.2 -3.61,3.3 -5.65,3.3 -2.57,0 -3.85,-1.34 -3.85,-4.01 0,-2.51 1.88,-4.35 5.65,-5.5 2.36,-0.68 3.53,-1.91 3.53,-3.69 0,-1.67 -1.07,-2.51 -3.22,-2.51 -4.45,0 -9.86,4.48 -16.22,13.43 -6.36,8.95 -9.54,16.52 -9.54,22.7 0,3.98 1.89,5.97 5.66,5.97 5.45,0 13.87,-8 25.24,-23.99 0.84,-1.15 1.39,-1.73 1.65,-1.73 0.31,-0.01 0.46,0.15 0.46,0.46 z"
   id="path81" />
	<path
   class="st5"
   d="m 215.08,71.36 c 0,1.76 -0.74,3.41 -2.22,4.94 -1.48,1.53 -3.11,2.3 -4.87,2.3 -2.26,0 -3.39,-1.13 -3.39,-3.39 0,-1.66 0.78,-3.26 2.34,-4.79 1.56,-1.53 3.19,-2.3 4.9,-2.3 2.16,-0.01 3.24,1.07 3.24,3.24 z"
   id="path83" />
</g>
<g
   id="g89"
   transform="matrix(1.3536193,0,0,1,-16.39743,-27.46)">
	<path
   class="st5"
   d="m 393.88,125.56 c 0,-3.85 2.94,-6.64 6.94,-6.64 4,0 6.94,2.79 6.94,6.64 0,3.7 -2.94,6.57 -6.94,6.57 -4,-0.01 -6.94,-2.87 -6.94,-6.57 z m 12.98,-0.08 c 0,-3.56 -2.48,-5.8 -6.04,-5.8 -3.56,0 -6.04,2.23 -6.04,5.8 0,3.48 2.48,5.88 6.13,5.88 3.47,0 5.95,-2.4 5.95,-5.88 z m -8.9,-1.05 v -1.89 c 0,-0.46 -0.31,-0.53 -0.91,-0.53 -0.07,0 -0.15,-0.08 -0.15,-0.23 0,-0.23 0.15,-0.31 0.38,-0.31 h 0.31 c 0.15,0 0.75,0.08 1.28,0.08 0.68,0 0.98,-0.08 1.73,-0.08 1.28,0 3.33,0.23 3.33,2.04 0,0.75 -0.31,1.36 -1.59,2.26 l 1.36,1.59 c 0.98,1.13 1.13,1.13 1.28,1.13 0.15,0 0.23,0.07 0.23,0.22 0,0.23 -0.08,0.31 -0.68,0.31 -0.98,0 -1.81,0.07 -2.94,-1.44 l -1.05,-1.43 h -0.9 v 0.68 c 0,1.35 0.07,1.5 0.15,1.58 0.15,0.08 0.53,0.08 0.75,0.08 0.15,0 0.23,0 0.23,0.22 0,0.23 -0.16,0.31 -0.31,0.31 h -0.3 c -0.15,0 -0.83,-0.08 -1.21,-0.08 -0.22,0 -0.98,0.08 -1.13,0.08 h -0.38 c -0.15,0 -0.53,-0.08 -0.53,-0.31 0,-0.15 0.08,-0.22 0.23,-0.22 0.68,0 0.75,0 0.83,-0.46 0.07,-0.38 0,-0.9 0,-1.96 v -1.64 z m 1.66,0.75 c 0.22,0.16 0.75,0.23 1.05,0.23 0.23,0 0.46,0 0.68,-0.15 0.38,-0.23 0.68,-0.68 0.68,-1.28 0,-0.9 -0.68,-1.66 -1.74,-1.66 -0.08,0 -0.53,0 -0.68,0.15 v 2.71 z"
   id="path87" />
</g>
<g
   id="g1008"
   transform="translate(0.6748565,-29.980703)"><g
     id="g1204"
     transform="matrix(1.8696092,0,0,-1.7020995,236.81997,150.55033)"
     style="fill:#000000;fill-opacity:1"><path
       d="M 0,0 V 0.308 C 0.594,0.27 1.047,0.25 1.355,0.25 c 0.352,0 0.731,0.02 1.137,0.058 0.145,-0.367 0.262,-0.645 0.35,-0.836 0.117,-0.259 0.58,-1.237 1.39,-2.934 0.344,-0.722 0.692,-1.425 1.043,-2.112 l 2.276,4.695 C 7.689,-0.59 7.854,-0.194 8.045,0.308 8.521,0.27 8.887,0.25 9.139,0.25 c 0.234,0 0.631,0.02 1.189,0.058 V 0 C 10.223,-0.028 10.143,-0.048 10.09,-0.058 9.596,-0.155 9.318,-0.227 9.262,-0.272 9.17,-0.342 9.123,-0.518 9.123,-0.8 V -0.868 L 9.102,-2.524 c 0,-2.083 0.009,-3.348 0.027,-3.793 0.004,-0.094 0.031,-0.164 0.082,-0.209 0.053,-0.046 0.355,-0.12 0.91,-0.225 0.047,-0.007 0.115,-0.023 0.207,-0.047 v -0.308 c -0.639,0.038 -1.203,0.057 -1.689,0.057 -0.498,0 -1.086,-0.019 -1.766,-0.057 v 0.308 c 0.139,0.034 0.244,0.059 0.315,0.072 0.433,0.08 0.681,0.137 0.744,0.17 0.062,0.034 0.103,0.079 0.125,0.139 0.033,0.102 0.048,0.383 0.048,0.847 v 4.561 C 7.781,-1.636 7.053,-3.146 5.916,-5.539 5.604,-6.197 5.373,-6.701 5.223,-7.049 H 4.92 c -0.795,1.732 -1.772,3.744 -2.926,6.04 l 0.07,-4.87 c 0,-0.387 0.032,-0.607 0.096,-0.663 C 2.225,-6.598 2.492,-6.666 2.965,-6.746 3.02,-6.757 3.1,-6.774 3.211,-6.798 v -0.308 c -0.615,0.038 -1.113,0.057 -1.492,0.057 -0.381,0 -0.885,-0.019 -1.51,-0.057 v 0.308 c 0.104,0.027 0.18,0.045 0.229,0.052 0.47,0.091 0.732,0.169 0.789,0.235 0.086,0.098 0.13,0.336 0.134,0.716 l 0.026,1.176 c 0.017,1.072 0.027,2.112 0.027,3.119 l -0.006,0.638 c 0,0.254 -0.015,0.413 -0.047,0.477 C 1.328,-0.32 1.277,-0.274 1.205,-0.246 1.07,-0.193 0.77,-0.133 0.299,-0.063 0.232,-0.053 0.133,-0.032 0,0"
       style="fill:#000000;fill-opacity:1;fill-rule:nonzero;stroke:none"
       id="path11306" /></g><g
     id="g1208"
     transform="matrix(1.8696092,0,0,-1.7020995,263.75395,156.15858)"
     style="fill:#000000;fill-opacity:1"><path
       d="m 0,0 c 0,-1.15 0.256,-2.014 0.77,-2.591 0.513,-0.577 1.164,-0.865 1.949,-0.865 0.519,0 0.978,0.134 1.381,0.402 0.402,0.269 0.705,0.661 0.912,1.179 0.205,0.519 0.308,1.091 0.308,1.718 0,0.788 -0.131,1.442 -0.394,1.961 C 4.662,2.323 4.338,2.695 3.949,2.921 3.563,3.146 3.127,3.258 2.645,3.258 2.113,3.258 1.639,3.121 1.221,2.848 0.801,2.573 0.492,2.178 0.295,1.66 0.098,1.143 0,0.589 0,0 m -1.168,-0.154 c 0,1.142 0.375,2.081 1.127,2.813 C 0.711,3.393 1.678,3.76 2.857,3.76 3.955,3.76 4.83,3.436 5.48,2.788 6.131,2.14 6.457,1.248 6.457,0.112 c 0,-1.26 -0.367,-2.256 -1.1,-2.986 -0.732,-0.73 -1.695,-1.095 -2.888,-1.095 -1.121,0 -2.006,0.331 -2.658,0.993 -0.653,0.663 -0.979,1.603 -0.979,2.822"
       style="fill:#000000;fill-opacity:1;fill-rule:nonzero;stroke:none"
       id="path11303" /></g><g
     id="g1212"
     transform="matrix(1.8696092,0,0,-1.7020995,285.60145,161.58726)"
     style="fill:#000000;fill-opacity:1"><path
       d="m 0,0 c 0.574,-0.07 1.059,-0.104 1.449,-0.104 0.608,0 1.11,0.095 1.504,0.287 0.565,0.282 0.994,0.693 1.287,1.233 0.293,0.539 0.44,1.203 0.44,1.99 0,0.411 -0.049,0.786 -0.147,1.126 C 4.436,4.872 4.305,5.143 4.143,5.345 3.904,5.646 3.594,5.873 3.209,6.032 2.824,6.19 2.271,6.271 1.545,6.271 1.107,6.271 0.594,6.243 0,6.191 -0.021,5.275 -0.033,4.237 -0.033,3.077 -0.033,1.851 -0.021,0.825 0,0 M -2.277,6.484 V 6.792 C -1.574,6.754 -0.809,6.734 0.021,6.734 L 2.398,6.766 C 3.205,6.766 3.85,6.652 4.332,6.424 4.813,6.195 5.188,5.832 5.453,5.334 5.721,4.836 5.854,4.256 5.854,3.595 5.854,2.375 5.43,1.368 4.584,0.574 3.738,-0.22 2.604,-0.617 1.178,-0.617 c -0.082,0 -0.408,0.01 -0.977,0.029 -0.568,0.019 -0.902,0.028 -1.002,0.028 -0.344,0 -0.836,-0.02 -1.476,-0.062 v 0.309 c 0.58,0.107 0.902,0.171 0.966,0.193 0.067,0.02 0.114,0.045 0.143,0.072 0.027,0.028 0.047,0.068 0.059,0.115 0.017,0.074 0.029,0.371 0.037,0.889 0.021,1.132 0.031,1.956 0.031,2.472 l -0.031,2.288 0.006,0.179 c 0,0.172 -0.053,0.284 -0.157,0.334 -0.06,0.034 -0.412,0.119 -1.054,0.255"
       style="fill:#000000;fill-opacity:1;fill-rule:nonzero;stroke:none"
       id="path11300" /></g><g
     id="g1216"
     transform="matrix(1.8696092,0,0,-1.7020995,304.92835,157.76435)"
     style="fill:#000000;fill-opacity:1"><path
       d="m 0,0 c 0.494,-0.014 0.849,-0.021 1.062,-0.021 0.063,0 0.609,0.007 1.633,0.021 L 1.349,3.135 Z M 1.406,4.672 H 1.742 C 2.222,3.463 2.812,2.092 3.513,0.56 l 1.242,-2.661 c 0.057,-0.093 0.118,-0.163 0.186,-0.21 0.045,-0.03 0.307,-0.113 0.785,-0.25 v -0.307 c -0.648,0.038 -1.123,0.057 -1.43,0.057 -0.314,0 -0.847,-0.019 -1.601,-0.057 v 0.307 c 0.43,0.088 0.683,0.158 0.752,0.21 0.074,0.052 0.109,0.113 0.109,0.183 0,0.073 -0.037,0.196 -0.115,0.371 L 2.9,-0.522 c -0.754,0.006 -1.301,0.01 -1.643,0.01 l -1.459,-0.01 -0.564,-1.322 c -0.09,-0.213 -0.135,-0.345 -0.135,-0.397 0,-0.045 0.02,-0.083 0.065,-0.113 0.043,-0.029 0.25,-0.084 0.621,-0.159 0.039,-0.01 0.095,-0.026 0.164,-0.048 v -0.307 c -0.606,0.038 -1.035,0.057 -1.285,0.057 -0.315,0 -0.721,-0.019 -1.215,-0.057 v 0.307 c 0.324,0.071 0.546,0.149 0.666,0.236 0.091,0.066 0.183,0.178 0.279,0.335 0.203,0.344 0.717,1.454 1.545,3.328 z"
       style="fill:#000000;fill-opacity:1;fill-rule:nonzero;stroke:none"
       id="path11297" /></g><g
     id="g1220"
     transform="matrix(1.8696092,0,0,-1.7020995,333.73565,155.59348)"
     style="fill:#000000;fill-opacity:1"><path
       d="m 0,0 h 1.291 c 0.496,0 0.791,0.013 0.88,0.039 0.09,0.025 0.159,0.079 0.217,0.159 0.053,0.08 0.123,0.312 0.205,0.696 0.01,0.038 0.024,0.097 0.047,0.177 H 2.99 C 2.951,0.496 2.933,0.054 2.933,-0.256 c 0,-0.321 0.018,-0.76 0.057,-1.317 H 2.64 C 2.535,-1.068 2.474,-0.786 2.447,-0.727 2.412,-0.643 2.351,-0.583 2.261,-0.546 2.173,-0.51 1.906,-0.491 1.468,-0.491 H 0.007 l 0.024,-3.072 h 2.236 l 0.197,0.004 c 0.307,0 0.498,0.013 0.575,0.038 0.136,0.044 0.254,0.12 0.357,0.226 0.104,0.107 0.293,0.407 0.572,0.9 0.028,0.05 0.069,0.122 0.129,0.216 H 4.464 C 4.421,-2.291 4.199,-2.945 3.802,-4.145 c -1.293,0.04 -2.476,0.059 -3.545,0.059 -0.746,0 -1.57,-0.019 -2.476,-0.059 v 0.31 l 0.865,0.183 c 0.139,0.038 0.223,0.076 0.256,0.115 0.053,0.065 0.08,0.203 0.08,0.412 v 0.095 l 0.027,1.227 c 0.004,0.237 0.006,0.702 0.006,1.395 0,1.007 -0.004,1.745 -0.013,2.213 -0.006,0.468 -0.023,0.734 -0.053,0.797 -0.02,0.042 -0.053,0.076 -0.096,0.102 -0.045,0.025 -0.209,0.07 -0.496,0.133 l -0.576,0.126 v 0.308 c 0.668,-0.039 1.467,-0.058 2.396,-0.058 0.508,0 1.717,0.019 3.625,0.058 C 3.81,2.668 3.853,2.072 3.931,1.483 H 3.558 C 3.414,1.957 3.3,2.271 3.209,2.43 3.148,2.537 3.074,2.608 2.986,2.644 2.869,2.688 2.609,2.712 2.207,2.712 H 0.054 L 0.017,1.029 Z"
       style="fill:#000000;fill-opacity:1;fill-rule:nonzero;stroke:none"
       id="path11294" /></g><g
     id="g1224"
     transform="matrix(1.8696092,0,0,-1.7020995,346.9708,150.55033)"
     style="fill:#000000;fill-opacity:1"><path
       d="M 0,0 V 0.308 C 0.594,0.27 1.045,0.25 1.354,0.25 c 0.352,0 0.732,0.02 1.135,0.058 0.148,-0.367 0.265,-0.645 0.353,-0.836 0.117,-0.259 0.58,-1.237 1.387,-2.934 0.344,-0.722 0.695,-1.425 1.043,-2.112 l 2.277,4.695 C 7.688,-0.59 7.854,-0.194 8.045,0.308 8.521,0.27 8.887,0.25 9.139,0.25 c 0.233,0 0.631,0.02 1.188,0.058 V 0 C 10.223,-0.028 10.143,-0.048 10.088,-0.058 9.594,-0.155 9.317,-0.227 9.262,-0.272 9.17,-0.342 9.122,-0.518 9.122,-0.8 v -0.068 l -0.02,-1.656 c 0,-2.083 0.008,-3.348 0.027,-3.793 0.004,-0.094 0.03,-0.164 0.082,-0.209 0.053,-0.046 0.354,-0.12 0.909,-0.225 0.046,-0.007 0.115,-0.023 0.207,-0.047 v -0.308 c -0.639,0.038 -1.202,0.057 -1.688,0.057 -0.498,0 -1.086,-0.019 -1.767,-0.057 v 0.308 c 0.14,0.034 0.244,0.059 0.316,0.072 0.432,0.08 0.68,0.137 0.744,0.17 0.061,0.034 0.102,0.079 0.125,0.139 0.033,0.102 0.047,0.383 0.047,0.847 v 4.561 C 7.78,-1.636 7.053,-3.146 5.916,-5.539 5.604,-6.197 5.37,-6.701 5.223,-7.049 H 4.92 c -0.798,1.732 -1.773,3.744 -2.927,6.04 l 0.07,-4.87 c 0,-0.387 0.033,-0.607 0.096,-0.663 0.066,-0.056 0.332,-0.124 0.806,-0.204 0.053,-0.011 0.135,-0.028 0.246,-0.052 v -0.308 c -0.615,0.038 -1.113,0.057 -1.494,0.057 -0.381,0 -0.883,-0.019 -1.508,-0.057 v 0.308 c 0.102,0.027 0.18,0.045 0.229,0.052 0.467,0.091 0.732,0.169 0.789,0.235 0.086,0.098 0.129,0.336 0.131,0.716 l 0.029,1.176 c 0.016,1.072 0.026,2.112 0.026,3.119 l -0.006,0.638 c 0,0.254 -0.014,0.413 -0.049,0.477 C 1.327,-0.32 1.276,-0.274 1.204,-0.246 1.069,-0.193 0.768,-0.133 0.299,-0.063 0.229,-0.053 0.133,-0.032 0,0"
       style="fill:#000000;fill-opacity:1;fill-rule:nonzero;stroke:none"
       id="path11291" /></g><g
     id="g1228"
     transform="matrix(1.8696092,0,0,-1.7020995,375.38737,156.11876)"
     style="fill:#000000;fill-opacity:1"><path
       d="m 0,0 c 0.377,-0.083 0.7,-0.125 0.971,-0.125 0.582,0 1.033,0.149 1.35,0.449 0.32,0.3 0.478,0.697 0.478,1.197 0,0.484 -0.148,0.862 -0.441,1.133 C 2.065,2.926 1.616,3.063 1.014,3.063 0.745,3.063 0.426,3.034 0.049,2.979 0.02,1.927 0.004,0.934 0,0 m -2.24,3.271 v 0.308 c 0.459,-0.038 1.047,-0.058 1.76,-0.058 l 2.107,0.022 c 0.78,0 1.352,-0.162 1.711,-0.486 0.358,-0.328 0.539,-0.772 0.539,-1.332 0,-0.652 -0.242,-1.198 -0.728,-1.639 -0.481,-0.44 -1.145,-0.66 -1.994,-0.66 -0.326,0 -0.713,0.045 -1.162,0.136 -0.002,-0.544 -0.004,-0.933 -0.004,-1.166 0,-0.885 0.019,-1.399 0.054,-1.542 0.014,-0.059 0.047,-0.104 0.102,-0.135 0.098,-0.056 0.432,-0.124 1.001,-0.204 0.048,-0.007 0.122,-0.021 0.212,-0.041 v -0.309 c -0.674,0.038 -1.305,0.058 -1.891,0.058 -0.556,0 -1.123,-0.02 -1.707,-0.058 v 0.309 c 0.137,0.034 0.242,0.056 0.309,0.067 0.469,0.094 0.732,0.162 0.785,0.204 0.088,0.076 0.131,0.28 0.131,0.61 l 0.019,2.53 -0.007,2.529 v 0.115 c 0,0.223 -0.034,0.366 -0.102,0.428 -0.072,0.064 -0.361,0.147 -0.869,0.251 -0.055,0.015 -0.145,0.035 -0.266,0.063"
       style="fill:#000000;fill-opacity:1;fill-rule:nonzero;stroke:none"
       id="path11288" /></g><g
     id="g1232"
     transform="matrix(1.8696092,0,0,-1.7020995,391.97287,155.994)"
     style="fill:#000000;fill-opacity:1"><path
       d="m 0,0 c 0.368,-0.038 0.653,-0.058 0.856,-0.058 0.648,0 1.127,0.142 1.439,0.424 0.309,0.283 0.467,0.676 0.467,1.178 0,0.439 -0.14,0.787 -0.414,1.042 C 2.071,2.841 1.672,2.968 1.146,2.968 0.956,2.968 0.586,2.947 0.03,2.905 Z m -2.234,3.198 v 0.308 c 0.94,-0.038 1.697,-0.058 2.264,-0.058 0.326,0 0.633,0.004 0.918,0.011 0.377,0.014 0.638,0.02 0.783,0.02 0.695,0 1.215,-0.16 1.57,-0.48 C 3.647,2.675 3.821,2.238 3.821,1.688 3.821,1.318 3.743,0.991 3.584,0.708 3.426,0.424 3.196,0.185 2.899,-0.011 2.682,-0.15 2.372,-0.274 1.971,-0.382 L 3.747,-2.649 C 3.967,-2.932 4.104,-3.097 4.163,-3.146 4.252,-3.219 4.366,-3.281 4.51,-3.334 4.709,-3.41 5.045,-3.499 5.518,-3.6 v -0.308 c -0.562,0.038 -0.971,0.057 -1.228,0.057 -0.295,0 -0.596,-0.019 -0.905,-0.057 -0.16,0.261 -0.377,0.59 -0.652,0.984 -0.272,0.396 -0.44,0.63 -0.5,0.703 -0.037,0.042 -0.07,0.085 -0.1,0.131 L 0.959,-0.512 C 0.643,-0.505 0.321,-0.482 0,-0.444 L 0.043,-3.077 C 0.049,-3.182 0.081,-3.261 0.139,-3.313 0.223,-3.383 0.489,-3.457 0.938,-3.537 1.002,-3.548 1.1,-3.568 1.229,-3.6 v -0.308 c -0.641,0.038 -1.208,0.057 -1.701,0.057 -0.524,0 -1.113,-0.019 -1.762,-0.057 V -3.6 l 0.227,0.047 c 0.509,0.094 0.797,0.171 0.867,0.233 0.07,0.06 0.111,0.17 0.119,0.326 0.008,0.101 0.016,0.996 0.029,2.685 l -0.023,2.456 c -0.004,0.376 -0.012,0.592 -0.029,0.649 -0.016,0.056 -0.051,0.097 -0.102,0.125 -0.174,0.091 -0.453,0.165 -0.828,0.225 -0.057,0.01 -0.143,0.028 -0.26,0.052"
       style="fill:#000000;fill-opacity:1;fill-rule:nonzero;stroke:none"
       id="path11285" /></g><g
     id="g1236"
     transform="matrix(1.8696092,0,0,-1.7020995,410.71814,155.59348)"
     style="fill:#000000;fill-opacity:1"><path
       d="M 0,0 H 1.289 C 1.787,0 2.08,0.013 2.171,0.039 2.259,0.064 2.33,0.118 2.386,0.198 2.441,0.278 2.511,0.51 2.591,0.894 2.603,0.932 2.617,0.991 2.64,1.071 H 2.99 C 2.951,0.496 2.933,0.054 2.933,-0.256 c 0,-0.321 0.018,-0.76 0.057,-1.317 H 2.64 C 2.535,-1.068 2.472,-0.786 2.447,-0.727 2.412,-0.643 2.351,-0.583 2.261,-0.546 2.173,-0.51 1.906,-0.491 1.466,-0.491 H 0.005 l 0.026,-3.072 h 2.236 l 0.197,0.004 c 0.305,0 0.498,0.013 0.575,0.038 0.136,0.044 0.255,0.12 0.357,0.226 0.102,0.107 0.293,0.407 0.572,0.9 0.026,0.05 0.069,0.122 0.127,0.216 H 4.464 C 4.421,-2.291 4.199,-2.945 3.802,-4.145 c -1.293,0.04 -2.476,0.059 -3.545,0.059 -0.746,0 -1.572,-0.019 -2.476,-0.059 v 0.31 l 0.865,0.183 c 0.137,0.038 0.223,0.076 0.254,0.115 0.055,0.065 0.08,0.203 0.08,0.412 v 0.095 l 0.029,1.227 c 0.004,0.237 0.006,0.702 0.006,1.395 0,1.007 -0.004,1.745 -0.012,2.213 -0.007,0.468 -0.025,0.734 -0.054,0.797 -0.02,0.042 -0.053,0.076 -0.098,0.102 -0.043,0.025 -0.209,0.07 -0.494,0.133 l -0.576,0.126 v 0.308 c 0.668,-0.039 1.467,-0.058 2.396,-0.058 0.508,0 1.717,0.019 3.625,0.058 C 3.81,2.668 3.853,2.072 3.931,1.483 H 3.558 C 3.414,1.957 3.3,2.271 3.209,2.43 3.148,2.537 3.074,2.608 2.984,2.644 2.867,2.688 2.609,2.712 2.207,2.712 H 0.054 L 0.017,1.029 Z"
       style="fill:#000000;fill-opacity:1;fill-rule:nonzero;stroke:none"
       id="path11282" /></g><g
     id="g1240"
     transform="matrix(1.8696092,0,0,-1.7020995,433.37255,153.42433)"
     style="fill:#000000;fill-opacity:1"><path
       d="m 0,0 h -0.405 c -0.092,0.447 -0.199,0.774 -0.316,0.979 -0.117,0.208 -0.295,0.37 -0.535,0.487 -0.239,0.116 -0.51,0.175 -0.807,0.175 -0.422,0 -0.76,-0.116 -1.01,-0.345 -0.25,-0.232 -0.377,-0.51 -0.377,-0.837 0,-0.29 0.102,-0.542 0.309,-0.759 0.203,-0.216 0.699,-0.489 1.486,-0.819 0.789,-0.33 1.324,-0.671 1.608,-1.025 0.279,-0.354 0.42,-0.753 0.42,-1.197 0,-0.397 -0.104,-0.767 -0.317,-1.109 -0.211,-0.342 -0.531,-0.614 -0.953,-0.82 -0.426,-0.203 -0.883,-0.305 -1.374,-0.305 -0.333,0 -0.669,0.031 -1.005,0.095 -0.336,0.062 -0.74,0.168 -1.207,0.323 0.051,0.491 0.08,1.142 0.08,1.954 h 0.41 c 0.116,-0.523 0.237,-0.888 0.364,-1.097 0.125,-0.209 0.316,-0.381 0.572,-0.514 0.256,-0.134 0.536,-0.202 0.84,-0.202 0.42,0 0.787,0.116 1.105,0.345 0.313,0.231 0.471,0.553 0.471,0.968 0,0.338 -0.113,0.638 -0.34,0.899 -0.232,0.258 -0.732,0.55 -1.5,0.876 -0.771,0.324 -1.287,0.639 -1.543,0.938 -0.26,0.296 -0.392,0.649 -0.392,1.06 0,0.359 0.105,0.701 0.314,1.026 0.211,0.325 0.521,0.583 0.926,0.772 0.406,0.191 0.83,0.285 1.267,0.285 C -1.383,2.153 -0.745,2.029 0,1.782 -0.018,1.272 -0.026,0.967 -0.026,0.862 -0.026,0.65 -0.018,0.362 0,0"
       style="fill:#000000;fill-opacity:1;fill-rule:nonzero;stroke:none"
       id="path11279" /></g><g
     id="g1244"
     transform="matrix(1.8696092,0,0,-1.7020995,444.06802,157.76435)"
     style="fill:#000000;fill-opacity:1"><path
       d="m 0,0 c 0.494,-0.014 0.849,-0.021 1.062,-0.021 0.063,0 0.609,0.007 1.633,0.021 L 1.349,3.135 Z M 1.406,4.672 H 1.742 C 2.222,3.463 2.812,2.092 3.513,0.56 l 1.242,-2.661 c 0.057,-0.093 0.118,-0.163 0.186,-0.21 0.045,-0.03 0.307,-0.113 0.785,-0.25 v -0.307 c -0.648,0.038 -1.123,0.057 -1.43,0.057 -0.314,0 -0.847,-0.019 -1.601,-0.057 v 0.307 c 0.43,0.088 0.683,0.158 0.752,0.21 0.074,0.052 0.109,0.113 0.109,0.183 0,0.073 -0.037,0.196 -0.115,0.371 L 2.9,-0.522 c -0.754,0.006 -1.301,0.01 -1.643,0.01 l -1.459,-0.01 -0.564,-1.322 c -0.09,-0.213 -0.135,-0.345 -0.135,-0.397 0,-0.045 0.02,-0.083 0.065,-0.113 0.043,-0.029 0.25,-0.084 0.621,-0.159 0.039,-0.01 0.095,-0.026 0.164,-0.048 v -0.307 c -0.606,0.038 -1.035,0.057 -1.285,0.057 -0.315,0 -0.721,-0.019 -1.215,-0.057 v 0.307 c 0.324,0.071 0.545,0.149 0.666,0.236 0.09,0.066 0.183,0.178 0.279,0.335 0.203,0.344 0.717,1.454 1.545,3.328 z"
       style="fill:#000000;fill-opacity:1;fill-rule:nonzero;stroke:none"
       id="path11276" /></g><g
     id="g1248"
     transform="matrix(1.8696092,0,0,-1.7020995,463.60956,155.994)"
     style="fill:#000000;fill-opacity:1"><path
       d="m 0,0 c 0.368,-0.038 0.655,-0.058 0.858,-0.058 0.648,0 1.125,0.142 1.437,0.424 0.311,0.283 0.467,0.676 0.467,1.178 0,0.439 -0.137,0.787 -0.412,1.042 C 2.073,2.841 1.672,2.968 1.146,2.968 0.959,2.968 0.586,2.947 0.03,2.905 Z m -2.234,3.198 v 0.308 c 0.94,-0.038 1.697,-0.058 2.264,-0.058 0.328,0 0.633,0.004 0.918,0.011 0.377,0.014 0.64,0.02 0.783,0.02 0.695,0 1.217,-0.16 1.57,-0.48 C 3.647,2.675 3.821,2.238 3.821,1.688 3.821,1.318 3.743,0.991 3.586,0.708 3.428,0.424 3.198,0.185 2.899,-0.011 2.684,-0.15 2.372,-0.274 1.973,-0.382 L 3.747,-2.649 C 3.969,-2.932 4.106,-3.097 4.163,-3.146 4.252,-3.219 4.368,-3.281 4.51,-3.334 4.709,-3.41 5.045,-3.499 5.52,-3.6 v -0.308 c -0.564,0.038 -0.971,0.057 -1.227,0.057 -0.296,0 -0.599,-0.019 -0.906,-0.057 -0.16,0.261 -0.377,0.59 -0.652,0.984 -0.274,0.396 -0.44,0.63 -0.502,0.703 -0.035,0.042 -0.07,0.085 -0.1,0.131 L 0.959,-0.512 C 0.643,-0.505 0.323,-0.482 0,-0.444 L 0.043,-3.077 C 0.051,-3.182 0.081,-3.261 0.139,-3.313 0.225,-3.383 0.489,-3.457 0.938,-3.537 1.002,-3.548 1.1,-3.568 1.231,-3.6 v -0.308 c -0.643,0.038 -1.21,0.057 -1.701,0.057 -0.526,0 -1.115,-0.019 -1.764,-0.057 V -3.6 l 0.229,0.047 c 0.509,0.094 0.798,0.171 0.865,0.233 0.072,0.06 0.111,0.17 0.121,0.326 0.006,0.101 0.016,0.996 0.027,2.685 l -0.023,2.456 c -0.002,0.376 -0.01,0.592 -0.029,0.649 -0.016,0.056 -0.051,0.097 -0.102,0.125 -0.174,0.091 -0.451,0.165 -0.828,0.225 -0.055,0.01 -0.143,0.028 -0.26,0.052"
       style="fill:#000000;fill-opacity:1;fill-rule:nonzero;stroke:none"
       id="path11273" /></g><g
     id="g1252"
     transform="matrix(1.8696092,0,0,-1.7020995,484.79971,150.02678)"
     style="fill:#000000;fill-opacity:1"><path
       d="m 0,0 v -0.308 c -0.125,-0.028 -0.218,-0.047 -0.277,-0.057 -0.473,-0.08 -0.746,-0.156 -0.822,-0.228 -0.076,-0.071 -0.113,-0.23 -0.113,-0.478 v -0.183 l -0.024,-2.1 0.014,-3.051 c 0,-0.244 0.035,-0.4 0.111,-0.466 0.072,-0.067 0.322,-0.123 0.748,-0.172 0.082,-0.011 0.201,-0.031 0.356,-0.062 v -0.309 c -0.571,0.038 -1.123,0.058 -1.651,0.058 -0.547,0 -1.15,-0.02 -1.804,-0.058 v 0.309 c 0.105,0.027 0.183,0.043 0.234,0.051 0.506,0.08 0.795,0.155 0.869,0.222 0.072,0.068 0.109,0.24 0.109,0.515 l -0.013,0.261 0.019,1.918 c 0,1.972 -0.006,3.062 -0.019,3.271 -0.006,0.115 -0.045,0.204 -0.112,0.266 -0.068,0.063 -0.339,0.138 -0.806,0.225 -0.061,0.014 -0.156,0.036 -0.281,0.068 V 0 c 0.774,-0.038 1.378,-0.058 1.812,-0.058 0.484,0 1.035,0.02 1.65,0.058"
       style="fill:#000000;fill-opacity:1;fill-rule:nonzero;stroke:none"
       id="path11270" /></g><g
     id="g1256"
     transform="matrix(1.8696092,0,0,-1.7020995,494.20253,157.76435)"
     style="fill:#000000;fill-opacity:1"><path
       d="m 0,0 c 0.493,-0.014 0.846,-0.021 1.061,-0.021 0.061,0 0.607,0.007 1.633,0.021 L 1.346,3.135 Z M 1.403,4.672 H 1.739 C 2.221,3.463 2.811,2.092 3.512,0.56 l 1.242,-2.661 c 0.057,-0.093 0.118,-0.163 0.184,-0.21 0.047,-0.03 0.309,-0.113 0.785,-0.25 V -2.868 C 5.075,-2.83 4.6,-2.811 4.295,-2.811 3.981,-2.811 3.448,-2.83 2.694,-2.868 v 0.307 c 0.431,0.088 0.681,0.158 0.752,0.21 0.072,0.052 0.107,0.113 0.107,0.183 0,0.073 -0.037,0.196 -0.113,0.371 l -0.541,1.275 c -0.753,0.006 -1.301,0.01 -1.645,0.01 l -1.459,-0.01 -0.562,-1.322 c -0.09,-0.213 -0.137,-0.345 -0.137,-0.397 0,-0.045 0.02,-0.083 0.065,-0.113 0.045,-0.029 0.252,-0.084 0.621,-0.159 0.039,-0.01 0.097,-0.026 0.166,-0.048 v -0.307 c -0.606,0.038 -1.037,0.057 -1.285,0.057 -0.315,0 -0.721,-0.019 -1.215,-0.057 v 0.307 c 0.323,0.071 0.545,0.149 0.666,0.236 0.088,0.066 0.183,0.178 0.279,0.335 0.203,0.344 0.715,1.454 1.544,3.328 z"
       style="fill:#000000;fill-opacity:1;fill-rule:nonzero;stroke:none"
       id="path11267" /></g><g
     id="g1260"
     transform="matrix(1.8696092,0,0,-1.7020995,509.6341,150.55033)"
     style="fill:#000000;fill-opacity:1"><path
       d="M 0,0 V 0.308 C 0.87,0.27 1.461,0.25 1.77,0.25 c 0.191,0 0.803,0.02 1.838,0.058 V 0 C 2.969,-0.108 2.594,-0.18 2.483,-0.215 2.405,-0.239 2.35,-0.277 2.313,-0.33 2.26,-0.402 2.229,-0.555 2.223,-0.784 2.217,-1.014 2.213,-2.303 2.213,-4.65 c 0,-0.464 0.004,-1.082 0.016,-1.856 h 2.35 c 0.353,0 0.58,0.022 0.689,0.063 0.107,0.042 0.215,0.134 0.33,0.277 0.113,0.143 0.328,0.502 0.639,1.076 H 6.69 L 6.266,-6.255 C 6.188,-6.471 6.1,-6.755 5.991,-7.106 c -1.47,0.038 -2.75,0.057 -3.84,0.057 -0.77,0 -1.485,-0.019 -2.145,-0.057 v 0.308 c 0.541,0.097 0.858,0.164 0.955,0.201 0.096,0.036 0.159,0.086 0.192,0.149 0.035,0.062 0.051,0.246 0.051,0.549 l 0.025,3.203 -0.014,2.063 c 0,0.178 -0.027,0.289 -0.08,0.335 C 1.053,-0.229 0.791,-0.155 0.346,-0.079 0.268,-0.065 0.151,-0.039 0,0"
       style="fill:#000000;fill-opacity:1;fill-rule:nonzero;stroke:none"
       id="path11264" /></g></g></svg>
