<?xml version="1.0" encoding="UTF-8" standalone="no"?>
<!-- Created with Inkscape (http://www.inkscape.org/) -->

<svg
   version="1.1"
   id="svg9"
   width="813"
   height="307"
   viewBox="0 0 813 307"
   sodipodi:docname="dintex.svg"
   inkscape:version="1.1.1 (3bf5ae0d25, 2021-09-20)"
   xmlns:inkscape="http://www.inkscape.org/namespaces/inkscape"
   xmlns:sodipodi="http://sodipodi.sourceforge.net/DTD/sodipodi-0.dtd"
   xmlns="http://www.w3.org/2000/svg"
   xmlns:svg="http://www.w3.org/2000/svg">
  <defs
     id="defs13" />
  <sodipodi:namedview
     id="namedview11"
     pagecolor="#ffffff"
     bordercolor="#666666"
     borderopacity="1.0"
     inkscape:pageshadow="2"
     inkscape:pageopacity="0.0"
     inkscape:pagecheckerboard="0"
     showgrid="false"
     inkscape:zoom="1.0498155"
     inkscape:cx="395.30756"
     inkscape:cy="113.82953"
     inkscape:window-width="1920"
     inkscape:window-height="1001"
     inkscape:window-x="-9"
     inkscape:window-y="-9"
     inkscape:window-maximized="1"
     inkscape:current-layer="g15" />
  <g
     inkscape:groupmode="layer"
     inkscape:label="Image"
     id="g15">
    <path
       style="fill:#89d631"
       d="m 641.16035,288.31418 c -3.63644,-3.63644 -3.74701,-7.12307 -0.51615,-16.27669 6.52483,-18.48601 19.46847,-33.21913 41.16457,-46.85563 6.89609,-4.33435 7.16137,-4.65544 10.69471,-12.9446 1.99276,-4.675 6.78721,-15.25 10.65434,-23.5 7.75909,-16.553 8.63313,-20.5 4.53961,-20.5 -7.56406,0 -28.63601,16.68168 -39.15856,31 -2.22308,3.025 -8.64114,10.675 -14.26237,17 -23.07317,25.96193 -41.59291,38.57992 -64.76491,44.12606 -15.5045,3.71094 -34.23239,1.75295 -41.29706,-4.3176 -7.7025,-6.61862 -12.96652,-18.20066 -12.99683,-28.59597 l -0.0196,-6.71249 -3.68661,4.5 c -7.18946,8.77572 -22.86271,24.26481 -29.04319,28.70195 -9.53779,6.84743 -18.313,10.23834 -26.57993,10.271 -11.3864,0.045 -15.48688,-2.91791 -18.21326,-13.16037 -1.79211,-6.73256 -1.80077,-12.39731 -0.0331,-21.66614 0.77131,-4.04445 1.0409,-6.96945 0.59908,-6.5 -0.44181,0.46946 -2.80294,3.21911 -5.24696,6.11033 -6.60104,7.80892 -25.15348,24.79391 -31.60946,28.93885 -9.06676,5.82115 -16.2861,8.34677 -24.06698,8.41962 -12.78885,0.11974 -16.79574,-4.49704 -15.75216,-18.14981 0.78775,-10.30586 4.78187,-21.16898 17.6358,-47.96543 13.75665,-28.67835 14.09096,-30.03621 6.77585,-27.52139 -5.44246,1.87103 -13.21417,8.21275 -24.9462,20.35615 -20.45926,21.17662 -27.42617,30.4517 -37.68737,50.17338 l -9.36118,17.99186 h -16.37258 c -9.00492,0 -16.37258,-0.2325 -16.37258,-0.51666 0,-0.28416 2.53233,-5.57166 5.6274,-11.75 l 5.6274,-11.23334 -8.43907,8.09172 c -14.08108,13.5015 -25.68121,19.04439 -38.00993,18.16227 -5.90024,-0.42216 -7.37439,-0.92225 -9.94813,-3.37479 -4.76799,-4.54346 -6.14875,-8.76077 -6.18114,-18.8792 -0.0337,-10.52238 1.06969,-16.35109 6.41993,-33.91413 4.25736,-13.97548 8.55187,-25.21599 14.80512,-38.75113 l 3.98418,-8.62373 13.63549,-0.73031 c 16.48799,-0.88309 19.01909,-0.19784 18.18792,4.92404 -0.29753,1.8335 -4.56913,10.48 -9.49243,19.21445 -21.09463,37.42404 -29.3179,57.89395 -26.24129,65.32155 1.13058,2.72945 1.72252,3.05926 5.49083,3.05926 8.31258,0 21.83994,-11.15366 41.8807,-34.53172 11.2404,-13.11222 12.91816,-15.63332 22.3421,-33.57255 5.60399,-10.66765 10.70921,-20.56846 11.34493,-22.0018 1.12632,-2.53946 1.45379,-2.6208 12.81093,-3.18218 19.12534,-0.94535 20.21946,0.74841 11.69864,18.11012 -3.04897,6.21246 -5.54358,11.59524 -5.54358,11.96173 0,0.36649 3.2625,-2.50673 7.25,-6.38492 17.81465,-17.32633 32.68501,-25.41033 46.7101,-25.3931 13.6991,0.0168 19.07512,6.51867 17.08307,20.66051 -1.25392,8.90176 -6.14696,20.0825 -19.19427,43.85946 -14.70891,26.80499 -15.66228,29.47445 -10.52653,29.47445 5.77184,0 26.0785,-18.52131 44.09873,-40.2216 8.44855,-10.17389 10.36505,-13.21078 14.5147,-23 2.6295,-6.20312 10.00334,-21.70455 16.3863,-34.44761 l 11.60539,-23.16922 -12.54644,-0.33078 c -10.81387,-0.28511 -12.73268,-0.58588 -13.89506,-2.17799 -1.55936,-2.13584 -1.04941,-4.15228 1.34133,-5.30388 0.91997,-0.44314 8.13339,-1.04044 16.02981,-1.32732 l 14.35714,-0.5216 8.58462,-16.25 8.58462,-16.250001 h 13.10825 c 13.80936,0 15.50824,0.500963 15.50824,4.573051 0,1.195178 -2.8854,8.02295 -6.41199,15.17283 l -6.41199,12.99979 10.16199,0.45468 c 10.33623,0.46248 14.66199,1.73101 14.66199,4.29965 0,2.68866 -3.8739,3.5 -16.7114,3.5 h -12.84289 l -4.31653,8.75 c -2.3741,4.8125 -9.7322,18.81554 -16.35134,31.11787 -25.91374,48.16324 -35.8547,72.53936 -32.82859,80.49864 0.83857,2.20561 1.61456,2.63197 4.776,2.62411 5.59941,-0.0139 12.86892,-4.69001 24.20226,-15.56803 10.42497,-10.00614 29.50385,-31.54183 32.07249,-36.2025 11.05323,-20.05557 22.18794,-30.62014 39.36828,-37.35245 7.59015,-2.97429 8.99751,-3.19254 21.13172,-3.27707 12.26573,-0.0855 13.2875,0.0611 18.09002,2.59521 5.37382,2.83553 10.24029,7.69972 13.08384,13.07772 2.57244,4.86526 2.30908,15.90388 -0.53052,22.2365 -7.16917,15.98805 -29.02301,26.5 -55.09222,26.5 h -9.81813 l -0.67438,6.29727 c -0.92885,8.67353 1.55946,16.21806 6.44139,19.53017 3.22248,2.18627 4.21362,2.33329 12.5,1.85429 12.55499,-0.72576 21.70339,-4.60819 36.03929,-15.29445 8.14658,-6.07263 25.13967,-22.7011 30.96071,-30.29639 14.43829,-18.8391 30.47063,-34.61014 40.99928,-40.33107 9.83689,-5.34506 14.25943,-6.59949 23.50072,-6.66587 10.08872,-0.0725 15.39313,2.23003 18.24845,7.92112 2.35002,4.68397 2.24986,13.7488 -0.24845,22.48493 -1.1,3.8465 -2,7.36131 -2,7.81069 0,1.52003 12.31334,-7.77071 18.57824,-14.01777 5.93618,-5.91927 13.42176,-16.67176 13.42176,-19.27937 0,-0.67366 -1.12513,-2.56198 -2.50029,-4.19627 -5.02323,-5.96977 -3.92292,-11.21722 3.04924,-14.54201 3.20578,-1.52873 3.69794,-1.52796 6.9248,0.0108 6.13371,2.92496 6.05516,9.96316 -0.25806,23.12025 -6.75035,14.06812 -20.35004,27.87373 -37.21541,37.77893 -8.33658,4.89616 -7.20749,3.20456 -18.89924,28.31473 -3.32917,7.15 -6.35882,14.53121 -6.73257,16.40268 l -0.67954,3.40268 4.40553,-0.67412 c 6.49254,-0.99346 21.20913,-8.45155 30.90554,-15.66235 8.504,-6.32406 30.65081,-27.66162 37.1354,-35.77846 3.3766,-4.22653 3.54656,-4.30361 8.82004,-4 l 5.3771,0.30957 -9.14045,10.62297 c -9.91748,11.52602 -30.05107,30.45649 -39.77223,37.39558 -8.21017,5.86053 -20.62574,12.06944 -27.87996,13.94252 -8.677,2.24045 -19.92495,2.02625 -24.97418,-0.4756 -6.85765,-3.39791 -8.0663,-5.98188 -8.06194,-17.23547 0.002,-5.3625 -0.16577,-9.75 -0.37301,-9.75 -1.2976,0 -13.6723,9.75892 -18.5134,14.60002 -5.94182,5.94183 -9.51062,10.69316 -13.64188,18.1622 l -2.35751,4.26223 3.63147,3.73777 c 6.74717,6.94468 6.65566,12.04152 -0.2772,15.43975 -5.23805,2.56749 -8.67781,2.24632 -12.04917,-1.12505 z m -47.67736,-73.54116 c 8.14595,-1.72624 18.54874,-6.53838 23.46397,-10.85401 4.74475,-4.16595 8.26806,-11.83786 8.28054,-18.03062 0.038,-18.8624 -20.94442,-22.61834 -35.55761,-6.36496 -5.26073,5.85119 -13.98464,20.25398 -17.82829,29.4337 -1.43238,3.42092 -2.60433,6.45842 -2.60433,6.75 0,1.11541 17.81266,0.42915 24.24572,-0.93411 z M 27.113382,262.40976 c -2.543132,-0.91988 -6.143132,-2.85517 -8,-4.30066 -2.974152,-2.31524 -3.376123,-3.1819 -3.376123,-7.27897 0,-4.1125 0.40005,-4.96576 3.456305,-7.37184 6.938794,-5.46267 11.18808,-6.48191 27.543695,-6.60664 11.692891,-0.0892 16.6165,0.29962 22.331932,1.76341 l 7.331932,1.8778 4.470406,-4.3778 c 8.212243,-8.04212 21.767581,-31.08099 35.381351,-60.13475 29.50382,-62.96541 44.09451,-88.44136 62.65177,-109.392607 3.48294,-3.932256 6.33262,-7.387048 6.33262,-7.677314 0,-1.156523 -16.57651,-6.825593 -24.29345,-8.308219 -10.19869,-1.959433 -41.53142,-1.33659 -51.70655,1.027841 -23.631518,5.491338 -44.501033,17.177965 -57.58778,32.24831 -23.056839,26.551639 -23.014351,62.959109 0.08777,75.207929 4.6076,2.44296 5.941759,2.65101 17,2.65101 10.974064,0 12.497159,-0.23293 17.815093,-2.72448 11.76522,-5.51222 22.639907,-16.83647 27.448627,-28.58338 1.28157,-3.13068 2.7766,-9.20794 3.32227,-13.50502 1.49399,-11.76489 -0.54346,-20.491481 -7.20971,-30.879944 -3.4346,-5.352351 -3.5307,-9.142523 -0.24372,-9.611337 4.3796,-0.62465 12.99618,13.523121 15.3828,25.257381 0.77669,3.81874 0.96522,9.09274 0.52583,14.70956 -1.26955,16.22875 -9.00968,30.81293 -21.77665,41.03218 -11.997537,9.60335 -21.333707,12.81196 -37.224639,12.79317 -16.509394,-0.0195 -27.771736,-4.21996 -37.56048,-14.00871 C 4.2322158,131.23222 14.297388,87.483673 50.520304,63.619906 72.36338,49.229621 95.964493,42.432748 127.28506,41.512468 c 22.60353,-0.664155 37.91548,0.694804 55.55297,4.9304 l 13.10075,3.146111 8.39925,-6.014267 c 19.67032,-14.084909 40.34684,-22.097099 63.39924,-24.567309 13.34279,-1.42976 18.28336,-1.0821 19.83845,1.39603 1.88945,3.01095 -0.96045,4.50078 -13.10585,6.85133 -13.43816,2.60074 -21.60707,5.93553 -31.07893,12.68735 -6.76522,4.822447 -23.15367,19.932016 -23.15367,21.346861 0,0.426843 2.99402,3.158488 6.65337,6.070323 12.68964,10.097454 22.3914,24.715064 27.79455,41.877963 2.19292,6.96571 2.77705,11.11732 3.23613,23 0.8137,21.0618 -1.94321,34.53263 -11.30462,55.23674 -16.16146,35.74337 -44.7508,60.77964 -81.3218,71.21515 -7.43415,2.12133 -12.46884,2.81699 -23.67251,3.27094 -16.8701,0.68353 -24.00838,-0.28707 -41.29777,-5.61533 l -12.412637,-3.82534 -8.19386,3.83978 c -11.976229,5.61225 -22.585422,7.87873 -36.480863,7.79355 -8.088714,-0.0496 -12.871597,-0.56662 -16.123877,-1.74299 z m 27.636934,-7.97127 c 2.757182,-0.95341 7.257182,-3.05274 10,-4.66518 l 4.986943,-2.93171 -6.5,-1.3632 c -3.95096,-0.82861 -10.813759,-1.23959 -17.5,-1.048 -9.672942,0.27718 -11.69369,0.65534 -16.75,3.13458 -3.1625,1.55066 -5.75,3.483 -5.75,4.2941 0,4.32812 21.392225,6.07912 31.513057,2.57941 z m 96.655824,-1.84256 c 20.69413,-6.13983 43.26973,-28.82147 56.0952,-56.35867 18.55694,-39.84307 20.24232,-82.76217 4.34859,-110.739381 -2.26196,-3.981659 -4.34381,-7.244159 -4.62632,-7.25 -0.75084,-0.01552 -12.92342,19.88866 -19.25761,31.489381 -3.0031,5.5 -11.64181,21.86557 -19.19714,36.36793 -27.87617,53.50795 -44.19367,77.56733 -63.65736,93.85982 -4.33083,3.62521 -7.874238,6.89254 -7.874238,7.26075 0,0.93268 18.903488,6.11891 25.808938,7.08075 7.70615,1.07338 21.8526,0.22011 28.35994,-1.71058 z M 287.11232,144.79832 c -12.52381,-8.51014 -6.85824,-29.56106 7.95596,-29.56106 9.66332,0 16.16899,6.383 16.16899,15.8641 0,9.67481 -6.26088,16.1359 -15.6359,16.1359 -3.54602,0 -5.89152,-0.67387 -8.48905,-2.43894 z"
       id="path117" />
  </g>
</svg>
