<?xml version="1.0" encoding="UTF-8" standalone="no"?>
<!-- Created with Inkscape (http://www.inkscape.org/) -->

<svg
   version="1.1"
   id="svg824"
   xml:space="preserve"
   width="389"
   height="102"
   viewBox="0 0 389 102"
   sodipodi:docname="logo dintex.svg"
   inkscape:version="1.1.1 (3bf5ae0d25, 2021-09-20)"
   xmlns:inkscape="http://www.inkscape.org/namespaces/inkscape"
   xmlns:sodipodi="http://sodipodi.sourceforge.net/DTD/sodipodi-0.dtd"
   xmlns="http://www.w3.org/2000/svg"
   xmlns:svg="http://www.w3.org/2000/svg"><defs
     id="defs828"><clipPath
       clipPathUnits="userSpaceOnUse"
       id="clipPath838"><path
         d="M 0,0 H 595.28 V 841.89 H 0 Z"
         id="path836" /></clipPath><linearGradient
       x1="0"
       y1="0"
       x2="1"
       y2="0"
       gradientUnits="userSpaceOnUse"
       gradientTransform="matrix(10.113281,0,0,10.113281,300.80908,421.21436)"
       spreadMethod="pad"
       id="linearGradient1084"><stop
         style="stop-opacity:1;stop-color:#ffffff"
         offset="0"
         id="stop1080" /><stop
         style="stop-opacity:1;stop-color:#231f20"
         offset="1"
         id="stop1082" /></linearGradient><clipPath
       clipPathUnits="userSpaceOnUse"
       id="clipPath1094"><path
         d="M 0,0 H 595.28 V 841.89 H 0 Z"
         id="path1092" /></clipPath><linearGradient
       x1="0"
       y1="0"
       x2="1"
       y2="0"
       gradientUnits="userSpaceOnUse"
       gradientTransform="matrix(-0.4281769,-5.8307037,5.8307037,-0.4281769,252.25195,441.27344)"
       spreadMethod="pad"
       id="linearGradient1154"><stop
         style="stop-opacity:1;stop-color:#ffffff"
         offset="0"
         id="stop1144" /><stop
         style="stop-opacity:1;stop-color:#ffffff"
         offset="0.30640562"
         id="stop1146" /><stop
         style="stop-opacity:1;stop-color:#83c451"
         offset="0.523804"
         id="stop1148" /><stop
         style="stop-opacity:1;stop-color:#ffffff"
         offset="0.68792463"
         id="stop1150" /><stop
         style="stop-opacity:1;stop-color:#ffffff"
         offset="1"
         id="stop1152" /></linearGradient><clipPath
       clipPathUnits="userSpaceOnUse"
       id="clipPath1164"><path
         d="M 0,0 H 595.28 V 841.89 H 0 Z"
         id="path1162" /></clipPath><linearGradient
       x1="0"
       y1="0"
       x2="1"
       y2="0"
       gradientUnits="userSpaceOnUse"
       gradientTransform="matrix(79.451172,0,0,79.451172,174.76807,414.63086)"
       spreadMethod="pad"
       id="linearGradient1192"><stop
         style="stop-opacity:1;stop-color:#83c451"
         offset="0"
         id="stop1182" /><stop
         style="stop-opacity:1;stop-color:#83c451"
         offset="0.654755"
         id="stop1184" /><stop
         style="stop-opacity:1;stop-color:#83c451"
         offset="0.70218611"
         id="stop1186" /><stop
         style="stop-opacity:1;stop-color:#231f20"
         offset="0.976196"
         id="stop1188" /><stop
         style="stop-opacity:1;stop-color:#231f20"
         offset="1"
         id="stop1190" /></linearGradient><clipPath
       clipPathUnits="userSpaceOnUse"
       id="clipPath1202"><path
         d="M 0,0 H 595.28 V 841.89 H 0 Z"
         id="path1200" /></clipPath></defs><sodipodi:namedview
     id="namedview826"
     pagecolor="#ffffff"
     bordercolor="#666666"
     borderopacity="1.0"
     inkscape:pageshadow="2"
     inkscape:pageopacity="0.0"
     inkscape:pagecheckerboard="0"
     showgrid="false"
     inkscape:zoom="1.9729345"
     inkscape:cx="210.34657"
     inkscape:cy="76.282311"
     inkscape:window-width="1920"
     inkscape:window-height="1001"
     inkscape:window-x="-9"
     inkscape:window-y="-9"
     inkscape:window-maximized="1"
     inkscape:current-layer="g830"
     width="793.70667px" /><g
     id="g830"
     inkscape:groupmode="layer"
     inkscape:label="logo dintex"
     transform="matrix(1.3333333,0,0,-1.3333333,0,1122.52)"><g
       id="g832"
       transform="translate(-152.05777,383.16499)"><g
         id="g834"
         clip-path="url(#clipPath838)"><g
           id="g840"
           transform="translate(175.7822,389.4189)"><path
             d="m 0,0 c -13.615,0 -17.742,0.617 -18.963,1.045 0.787,0.222 2.832,0.514 8.127,0.514 5.494,0 13.352,-0.415 23.426,-1.236 C 8.645,0.108 4.436,0 0,0 m 49.543,-0.099 c -5.678,0 -11.166,0.277 -16.369,0.825 6.271,1.26 11.887,2.697 16.838,4.299 l -4.088,2.25 C 40.619,4.851 34.086,2.959 26.393,1.64 10.719,3.866 0.094,4.995 -5.189,4.995 c -4.397,0 -8.305,-0.337 -11.614,-1.002 -3.82,-0.767 -5.449,-1.639 -5.449,-2.917 0,-1.701 2.522,-3.275 20.801,-3.275 7.846,0 16.166,0.514 24.73,1.529 9.867,-1.015 17.748,-1.529 23.422,-1.529 5.053,0 9.904,0.296 14.561,0.864 L 58.734,0.412 C 55.762,0.083 52.705,-0.099 49.543,-0.099"
             style="fill:#231f20;fill-opacity:1;fill-rule:nonzero;stroke:none"
             id="path842" /></g><g
           id="g844"
           transform="translate(334.7192,452.1396)"><path
             d="m 0,0 c -4.061,2.746 -9.422,4.139 -15.936,4.139 -12.732,0 -25.435,-3.69 -37.761,-10.968 -8.579,7.868 -21.34,11.857 -37.935,11.857 -19.703,0 -37.623,-4.126 -53.263,-12.263 -15.778,-8.21 -23.778,-17.682 -23.778,-28.151 0,-4.991 2.407,-9.126 7.159,-12.289 4.666,-3.108 10.668,-4.684 17.838,-4.684 10.357,0 21.068,3.546 31.834,10.54 10.859,7.05 16.363,14.108 16.363,20.972 0,2.786 -1.265,5.073 -3.756,6.795 -2.416,1.668 -5.584,2.514 -9.414,2.514 -2.994,0 -5.584,-0.557 -7.705,-1.655 -2.258,-1.172 -3.406,-2.649 -3.406,-4.39 0,-1.787 0.923,-3.918 5.311,-3.918 1.847,0 3.48,0.441 4.853,1.313 1.468,0.932 2.211,2.075 2.211,3.396 0,1.314 -0.761,2.881 -4.391,2.881 h -0.056 c 0.724,0.073 1.702,0.124 3.029,0.124 3.152,0 5.72,-0.692 7.634,-2.054 1.868,-1.334 2.776,-3.036 2.776,-5.204 0,-5.998 -5.174,-12.402 -15.381,-19.033 -10.3,-6.691 -20.361,-10.082 -29.902,-10.082 -5.598,0 -10.143,1.049 -13.508,3.117 -3.308,2.034 -4.916,4.649 -4.916,7.998 0,4.309 2.136,9.129 6.343,14.324 4.256,5.257 10.028,10.133 17.153,14.492 14.174,8.665 29.979,13.058 46.972,13.058 15.963,0 27.754,-3.826 35.067,-11.374 -1.556,-0.965 -3.082,-1.979 -4.599,-3.018 h 5.773 c 0.287,0.222 0.567,0.456 0.856,0.673 2.394,-3.413 3.607,-7.091 3.607,-10.946 0,-7.4 -3.894,-15.082 -11.573,-22.832 -4.04,-4.094 -8.54,-7.484 -13.461,-10.199 l 8.157,-0.237 c 0.947,0.5 1.879,1.012 2.791,1.549 12.951,7.608 19.516,17.048 19.516,28.06 0,5.785 -2.102,11.353 -6.25,16.562 11.204,7.215 22.914,10.871 34.822,10.871 6.252,0 11.332,-1.236 15.097,-3.673 3.727,-2.413 5.538,-5.505 5.538,-9.453 0,-2.571 -0.561,-4.835 -1.682,-6.762 -0.147,-0.287 -0.223,-0.605 -0.223,-0.944 0,-0.473 0.342,-0.951 1.11,-0.951 0.92,0 1.632,0.969 2.38,3.242 0.629,1.92 0.946,3.776 0.946,5.514 C 6.24,-6.532 4.142,-2.801 0,0"
             style="fill:#231f20;fill-opacity:1;fill-rule:nonzero;stroke:none"
             id="path846" /></g><g
           id="g848"
           transform="translate(239.9072,400.4629)"><path
             d="m 0,0 c 7.729,4.511 15.293,11.979 22.484,22.192 2.692,3.796 5.58,7.286 8.643,10.458 h -7.27 C 20.543,29.853 17.35,26.879 14.309,23.72 4.721,13.812 -2.982,6.58 -8.699,2.109 L -0.416,-0.23 C -0.279,-0.153 -0.135,-0.077 0,0"
             style="fill:#231f20;fill-opacity:1;fill-rule:nonzero;stroke:none"
             id="path850" /></g><g
           id="g852"
           transform="translate(239.4912,400.2324)"><path
             d="m 0,0 -8.283,2.34 c -1.572,-1.229 -3.002,-2.262 -4.27,-3.069 -1.578,-1.005 -3.332,-1.94 -5.232,-2.809 l 4.088,-2.25 C -8.328,-4.052 -3.752,-2.119 0,0"
             style="fill:#231f20;fill-opacity:1;fill-rule:nonzero;stroke:none"
             id="path854" /></g><g
           id="g856"
           transform="translate(406.2603,450.0996)"><path
             d="M 0,0 C -0.291,-0.493 -2.112,-0.892 -2.108,0.087 -1.395,0.508 -0.831,-0.024 0,0"
             style="fill:#1c1c20;fill-opacity:1;fill-rule:evenodd;stroke:none"
             id="path858" /></g><g
           id="g860"
           transform="translate(403.1479,449.3184)"><path
             d="M 0,0 C -0.054,-0.463 -0.353,-0.719 -0.302,-1.042 -0.724,-1.031 -0.603,-0.55 -0.806,-0.348 -0.619,-0.161 -0.511,0.094 0,0"
             style="fill:#ffffff;fill-opacity:1;fill-rule:evenodd;stroke:none"
             id="path862" /></g><g
           id="g864"
           transform="translate(382.3481,448.5361)"><path
             d="M 0,0 C -0.233,-0.205 -0.491,0.015 -0.801,0 -0.813,0.329 0.113,0.579 0,0"
             style="fill:#ffffff;fill-opacity:1;fill-rule:evenodd;stroke:none"
             id="path866" /></g><g
           id="g868"
           transform="translate(409.6792,444.2793)"><path
             d="M 0,0 C 0.108,-0.362 -0.716,-0.362 -0.605,0 -0.396,0.189 -0.314,-0.043 0,0"
             style="fill:#1c1c20;fill-opacity:1;fill-rule:evenodd;stroke:none"
             id="path870" /></g><g
           id="g872"
           transform="translate(409.7769,443.9316)"><path
             d="M 0,0 C 0.063,0.186 0.618,0.081 0.702,0 0.625,-0.325 0.219,-0.056 0,0"
             style="fill:#1c1c20;fill-opacity:1;fill-rule:evenodd;stroke:none"
             id="path874" /></g><g
           id="g876"
           transform="translate(382.2515,442.8896)"><path
             d="m 0,0 c -0.255,-2.009 -0.679,-4.089 -1.609,-5.733 -1.154,1.472 -2.197,3.827 -2.816,5.733 0.321,-0.014 0.445,-0.197 0.808,-0.174 0.459,0.196 1.479,0.388 2.008,0.695 C -0.812,0.986 -0.677,0.951 0,0"
             style="fill:#ffffff;fill-opacity:1;fill-rule:evenodd;stroke:none"
             id="path878" /></g><g
           id="g880"
           transform="translate(410.5815,443.8447)"><path
             d="M 0,0 C 0.079,0.057 0.102,-0.087 0.102,-0.087 1.424,0.063 0.688,-0.48 0,0"
             style="fill:#1c1c20;fill-opacity:1;fill-rule:evenodd;stroke:none"
             id="path882" /></g><g
           id="g884"
           transform="translate(411.7886,443.584)"><path
             d="M 0,0 C 0.168,-0.201 0.897,0.084 0.803,-0.347 0.543,-0.224 0.006,-0.34 0,0"
             style="fill:#1c1c20;fill-opacity:1;fill-rule:evenodd;stroke:none"
             id="path886" /></g><g
           id="g888"
           transform="translate(402.4438,443.1504)"><path
             d="M 0,0 C 0.313,0.04 0.32,-0.187 0.302,-0.435 H -0.102 C -0.176,-0.789 0.224,-0.733 0.101,-1.13 -0.28,-1.168 -0.37,-0.958 -0.604,-0.869 -0.395,-0.588 -0.241,-0.256 0,0"
             style="fill:#ffffff;fill-opacity:1;fill-rule:evenodd;stroke:none"
             id="path890" /></g><g
           id="g892"
           transform="translate(414.0981,442.1943)"><path
             d="M 0,0 C -0.35,-0.036 -0.559,0.495 -0.805,0.261 -1.026,0.826 0.064,0.513 0,0"
             style="fill:#ffffff;fill-opacity:1;fill-rule:evenodd;stroke:none"
             id="path894" /></g><g
           id="g896"
           transform="translate(407.5679,442.0205)"><path
             d="M 0,0 C 0.034,-0.32 -0.25,-0.363 -0.503,-0.435 -0.373,-0.256 -0.343,0.006 0,0"
             style="fill:#1c1c20;fill-opacity:1;fill-rule:evenodd;stroke:none"
             id="path898" /></g><g
           id="g900"
           transform="translate(413.0942,441.8467)"><path
             d="M 0,0 C 0.093,0.237 0.313,-0.121 0.601,0 0.66,-0.239 0.853,-0.362 0.902,-0.607 0.498,-0.495 0.347,-0.165 0,0"
             style="fill:#ffffff;fill-opacity:1;fill-rule:evenodd;stroke:none"
             id="path902" /></g><g
           id="g904"
           transform="translate(401.9399,441.7598)"><path
             d="M 0,0 C 0.273,-0.035 0.416,-0.412 0.203,-0.608 -0.252,-0.619 -0.276,-0.166 0,0"
             style="fill:#ffffff;fill-opacity:1;fill-rule:evenodd;stroke:none"
             id="path906" /></g><g
           id="g908"
           transform="translate(412.189,441.5859)"><path
             d="M 0,0 C 0.321,0.076 0.206,-0.226 0.401,-0.261 0.336,-0.377 0.188,-0.422 0,-0.435 -0.011,-0.218 -0.188,-0.165 0,0"
             style="fill:#ffffff;fill-opacity:1;fill-rule:evenodd;stroke:none"
             id="path910" /></g><g
           id="g912"
           transform="translate(412.6899,441.3252)"><path
             d="M 0,0 C 0.339,-0.026 0.871,0.116 0.808,-0.26 0.494,-0.211 0.041,-0.284 0,0"
             style="fill:#ffffff;fill-opacity:1;fill-rule:evenodd;stroke:none"
             id="path914" /></g><g
           id="g916"
           transform="translate(414.3979,440.8916)"><path
             d="M 0,0 C -0.371,-0.062 -0.431,0.148 -0.802,0.087 -0.666,0.238 0.055,0.428 0,0"
             style="fill:#ffffff;fill-opacity:1;fill-rule:evenodd;stroke:none"
             id="path918" /></g><g
           id="g920"
           transform="translate(409.4761,440.8047)"><path
             d="M 0,0 C 0.237,-0.028 0.225,-0.27 0.401,-0.348 0.366,-0.462 0.225,-0.485 0.202,-0.608 0.157,-0.748 0.575,-0.9 0.604,-0.695 0.938,-0.825 0.395,-0.908 0.504,-1.13 -0.093,-0.931 0.172,-0.503 0,0"
             style="fill:#ffffff;fill-opacity:1;fill-rule:evenodd;stroke:none"
             id="path922" /></g><g
           id="g924"
           transform="translate(401.7417,440.7178)"><path
             d="M 0,0 C 0.342,-0.156 0.157,-0.769 0,-0.956 -0.3,-0.72 0.055,-0.315 0,0"
             style="fill:#ffffff;fill-opacity:1;fill-rule:evenodd;stroke:none"
             id="path926" /></g><g
           id="g928"
           transform="translate(412.189,440.457)"><path
             d="M 0,0 H 1.506 C 1.348,-0.377 0.088,-0.346 0,0"
             style="fill:#ffffff;fill-opacity:1;fill-rule:evenodd;stroke:none"
             id="path930" /></g><g
           id="g932"
           transform="translate(407.9692,440.2832)"><path
             d="m 0,0 c 0.462,-0.036 0.41,-0.514 0.904,-0.521 -0.211,-0.713 -1.016,0.087 -1.508,-0.348 -0.08,0.416 0.334,0.407 0.301,0.782 C -0.157,-0.095 -0.018,-0.102 0,0"
             style="fill:#ffffff;fill-opacity:1;fill-rule:evenodd;stroke:none"
             id="path934" /></g><g
           id="g936"
           transform="translate(409.8774,438.8057)"><path
             d="M 0,0 C -0.831,-0.328 -2.483,-0.391 -3.416,-0.348 -3.485,0.304 0.16,0.921 0,0"
             style="fill:#ffffff;fill-opacity:1;fill-rule:evenodd;stroke:none"
             id="path938" /></g><g
           id="g940"
           transform="translate(414.3979,439.0664)"><path
             d="M 0,0 C -0.365,0.06 -0.729,0.121 -1.203,0.088 -1.181,0.377 0.106,0.39 0,0"
             style="fill:#ffffff;fill-opacity:1;fill-rule:evenodd;stroke:none"
             id="path942" /></g><g
           id="g944"
           transform="translate(415.3042,437.5029)"><path
             d="M 0,0 C -1.119,0.147 -2.621,0.64 -3.416,1.043 -2.244,1.066 -1.027,0.392 0,0"
             style="fill:#ffffff;fill-opacity:1;fill-rule:evenodd;stroke:none"
             id="path946" /></g><g
           id="g948"
           transform="translate(411.8882,437.5898)"><path
             d="M 0,0 C 0.598,-0.612 1.688,-0.8 2.51,-1.216 1.879,-1.29 0.2,-0.868 0,0"
             style="fill:#ffffff;fill-opacity:1;fill-rule:evenodd;stroke:none"
             id="path950" /></g><g
           id="g952"
           transform="translate(389.3843,431.8564)"><path
             d="M 0,0 C -1.125,-0.13 -2.093,-0.392 -3.316,-0.435 -3.947,0.86 -3.371,2.909 -2.513,3.735 -1.496,2.645 -0.636,1.421 0,0"
             style="fill:#ffffff;fill-opacity:1;fill-rule:evenodd;stroke:none"
             id="path954" /></g><g
           id="g956"
           transform="translate(374.2124,434.8105)"><path
             d="M 0,0 C 0.309,-0.916 0.86,-2.058 1.004,-2.954 1.25,-4.479 0.071,-4.779 0,-6.082 -0.104,-4.126 -0.156,-2.002 0,0"
             style="fill:#ffffff;fill-opacity:1;fill-rule:evenodd;stroke:none"
             id="path958" /></g><g
           id="g960"
           transform="translate(399.0269,432.8115)"><path
             d="m 0,0 c 0.09,-0.038 0.182,-0.076 0.202,-0.173 -0.471,-3.201 -1.885,-5.286 -2.512,-8.515 -0.094,-0.494 0.029,-1.041 -0.1,-1.563 -0.211,-0.865 -0.778,-1.777 -1.107,-2.692 -0.703,-1.961 -1.346,-4.179 -1.707,-6.43 -2.492,-4.289 -1.416,-11.918 -3.012,-16.506 -0.836,-0.695 -0.275,-2.601 -1.709,-2.78 0.676,4.668 0.955,9.888 0.502,15.029 -0.336,3.837 -0.113,7.514 -0.101,11.12 0.005,1.409 -0.227,2.617 -0.502,3.822 0.603,-0.145 0.687,-0.738 1.406,-0.781 1.603,1.193 3.424,2.194 3.115,5.039 C -2.949,-3.588 -1.541,-1.734 0,0"
             style="fill:#ffffff;fill-opacity:1;fill-rule:evenodd;stroke:none"
             id="path962" /></g><g
           id="g964"
           transform="translate(405.1558,431.6826)"><path
             d="M 0,0 C -0.771,0.143 -1.302,0.493 -2.109,0.607 -1.72,1.07 -0.263,0.485 0,0"
             style="fill:#ffffff;fill-opacity:1;fill-rule:evenodd;stroke:none"
             id="path966" /></g><g
           id="g968"
           transform="translate(380.9429,430.9883)"><path
             d="M 0,0 C 0.047,-0.36 -0.47,-0.231 -0.703,-0.349 -0.638,-0.085 -0.429,0.05 0,0"
             style="fill:#ffffff;fill-opacity:1;fill-rule:evenodd;stroke:none"
             id="path970" /></g><g
           id="g972"
           transform="translate(405.2563,430.2061)"><path
             d="M 0,0 C 0.162,-0.148 0.632,-0.034 0.603,-0.349 0.296,-0.284 0.31,-0.498 0,-0.436 Z"
             style="fill:#ffffff;fill-opacity:1;fill-rule:evenodd;stroke:none"
             id="path974" /></g><g
           id="g976"
           transform="translate(374.1128,428.4678)"><path
             d="M 0,0 C 0.428,-0.167 0.104,-0.878 0,-1.13 -0.238,-0.889 0.135,-0.44 0,0"
             style="fill:#ffffff;fill-opacity:1;fill-rule:evenodd;stroke:none"
             id="path978" /></g><g
           id="g980"
           transform="translate(409.7769,427.4258)"><path
             d="M 0,0 C 0.163,-0.459 -0.63,-0.432 -0.603,-0.088 -0.482,0.013 -0.246,0.012 0,0"
             style="fill:#ffffff;fill-opacity:1;fill-rule:evenodd;stroke:none"
             id="path982" /></g><g
           id="g984"
           transform="translate(410.8813,425.167)"><path
             d="M 0,0 C 0.349,0.012 0.164,-0.44 0.505,-0.435 0.404,-0.701 0.236,-0.335 0.104,-0.348 -0.092,-0.556 0.023,-1.033 -0.401,-1.043 -0.247,-0.71 -0.231,-0.26 0,0"
             style="fill:#ffffff;fill-opacity:1;fill-rule:evenodd;stroke:none"
             id="path986" /></g><g
           id="g988"
           transform="translate(406.2603,422.9951)"><path
             d="M 0,0 C 0.396,0.053 0.445,-0.195 0.505,-0.435 0.298,-0.324 -0.006,-0.296 0,0"
             style="fill:#ffffff;fill-opacity:1;fill-rule:evenodd;stroke:none"
             id="path990" /></g><g
           id="g992"
           transform="translate(407.1499,422.209)"><path
             d="M 0,0 C -0.062,0.243 -0.107,0.494 -0.511,0.441 -0.519,0.141 -0.21,0.112 0,0 M -1.837,1.234 C -1.392,1.09 -1.162,0.29 -0.511,0.617 -1.195,0.535 -0.802,0.934 -0.611,1.059 -1.193,0.516 -1.341,1.508 -1.837,1.234 M -19.89,1.499 c 0.515,-0.298 0.76,0.789 0.818,0.882 C -19.269,2.02 -19.75,1.909 -19.89,1.499 M 3.772,1.587 C 4.204,1.597 4.088,2.081 4.282,2.293 4.42,2.306 4.59,1.935 4.69,2.204 4.344,2.199 4.536,2.657 4.182,2.646 3.94,2.382 3.928,1.925 3.772,1.587 m -37.43,0.088 c -0.035,0.517 0.332,1.179 0.205,1.677 -0.078,-0.495 -0.521,-1.137 -0.205,-1.677 M 2.446,4.85 C 2.42,4.5 3.225,4.473 3.061,4.938 2.809,4.95 2.567,4.951 2.446,4.85 M -18.46,1.675 c 0.427,0.813 1.255,0.194 2.039,0.353 0.064,0.375 -0.37,0.237 0,0.442 -0.686,0.495 -1.336,1.02 -1.838,1.675 0.279,0.407 0.65,0.735 0.818,1.235 -0.812,-0.032 -1.445,-0.222 -1.531,-0.883 0.381,-0.142 0.599,-0.425 0.713,-0.793 0,-0.184 -0.553,-0.332 -0.304,-0.441 0.093,0.078 0.577,0.253 0.614,0.089 0.074,-0.332 -0.392,-0.193 -0.41,-0.442 0.457,0.218 0.322,-0.164 0.41,-0.264 0.131,0.151 0.209,0.346 0.508,0.353 0,-0.089 0.084,-0.105 0.102,-0.177 -0.274,-0.364 -1.252,-1.014 -1.121,-1.147 M -33.148,4.85 c 0.107,0.255 0.434,0.976 0,1.147 0.139,-0.447 -0.242,-0.903 0,-1.147 M 7.854,5.997 C 7.657,6.034 7.596,6.187 7.344,6.174 7.223,5.911 7.774,5.794 7.854,5.997 m 0.816,0 C 8.811,6.304 8.329,6.736 8.159,7.056 7.985,6.722 8.29,6.138 8.67,5.997 M -1.529,7.319 c 0.311,-0.063 0.299,0.153 0.61,0.089 0.029,0.319 -0.446,0.201 -0.61,0.353 z m -25.398,0.882 c 0.238,0.118 0.763,-0.012 0.715,0.354 -0.434,0.051 -0.647,-0.086 -0.715,-0.354 m 36.31,0 C 9.356,8.368 9.497,8.396 9.483,8.555 9.348,8.582 9.29,8.681 9.075,8.643 9.057,8.39 9.063,8.161 9.383,8.201 M -2.144,7.056 c 0.273,0.001 0.6,-0.05 0.615,0.175 -0.131,0.229 -0.615,-0.068 -0.615,0.088 -0.043,0.302 0.307,0.266 0.41,0.442 -0.871,0.158 -1.305,0.694 -1.939,1.058 0.111,-0.932 1.584,-0.687 1.529,-1.763 m -1.629,2.821 c 0.818,-0.114 1.357,-0.472 2.141,-0.617 -0.266,0.493 -1.746,1.087 -2.141,0.617 m -9.691,-3.968 c 0.316,-2.888 -1.534,-3.905 -3.161,-5.115 -0.732,0.043 -0.816,0.645 -1.429,0.793 0.283,-1.224 0.517,-2.45 0.51,-3.88 -0.012,-3.661 -0.239,-7.394 0.103,-11.288 0.459,-5.218 0.176,-10.521 -0.508,-15.258 1.457,0.181 0.883,2.116 1.731,2.822 1.623,4.659 0.531,12.403 3.06,16.756 0.364,2.285 1.02,4.537 1.733,6.527 0.334,0.93 0.908,1.855 1.123,2.734 0.129,0.53 0.004,1.086 0.101,1.587 0.638,3.278 2.073,5.394 2.553,8.642 -0.023,0.1 -0.115,0.139 -0.206,0.177 -1.567,-1.76 -2.997,-3.642 -5.61,-4.497 m 21.418,5.468 c 0.593,0.076 1.271,0.076 1.634,0.353 -0.697,0.014 -1.32,-0.036 -1.634,-0.353 M 5.305,3.969 C 6.518,5.543 8.002,7.229 8.362,9.26 7.063,9.664 7.268,11.369 6.221,11.994 5.385,10.806 5.118,9.125 4.182,8.025 4.51,6.685 5.157,5.178 5.305,3.969 m -38.353,2.294 c 0.074,1.321 1.271,1.626 1.023,3.174 -0.148,0.91 -0.707,2.068 -1.023,2.998 -0.157,-2.032 -0.102,-4.189 0,-6.172 m 43.146,5.996 c -0.527,0.17 -1.441,0.824 -1.836,0.528 0.692,-0.047 1.18,-0.739 1.836,-0.528 m -30.291,0.97 c -0.873,-0.839 -1.457,-2.919 -0.818,-4.233 1.242,0.042 2.226,0.31 3.365,0.441 -0.643,1.442 -1.516,2.685 -2.547,3.792 m 29.471,0.264 c -0.504,0.13 -0.684,0.355 -1.119,0.354 0.254,-0.166 0.791,-0.548 1.119,-0.354 m -1.526,0.529 c -0.839,0.423 -1.943,0.614 -2.55,1.235 0.203,-0.881 1.904,-1.31 2.55,-1.235 m 1.526,1.323 c 0.035,0.233 -0.137,0.29 -0.406,0.264 0.009,-0.237 0.234,-0.423 0.406,-0.264 m -11.725,0.089 c -0.157,0.429 0.295,0.332 0.303,0.617 -0.479,0.189 -0.469,-0.815 -0.303,-0.617 m 7.649,0.794 c 0.806,-0.41 2.33,-0.91 3.468,-1.059 -1.043,0.396 -2.279,1.082 -3.468,1.059 m 1.324,0.617 c 0.486,0.034 0.851,-0.029 1.226,-0.088 0.106,0.394 -1.201,0.383 -1.226,0.088 M -0.308,16.14 c 0.947,-0.045 2.623,0.019 3.469,0.352 0.164,0.935 -3.541,0.308 -3.469,-0.352 m 7.652,1.674 c 0.121,-0.101 0.358,-0.099 0.61,-0.087 0.052,0.291 -0.588,0.37 -0.61,0.087 M 0.918,17.903 C 0.95,17.522 0.53,17.531 0.61,17.109 1.108,17.552 1.928,16.738 2.143,17.462 1.641,17.469 1.69,17.955 1.223,17.991 1.206,17.889 1.063,17.896 0.918,17.903 m 6.116,0.264 H 5.508 c 0.088,-0.351 1.364,-0.383 1.526,0 M -5.101,17.462 c 0.163,0.19 0.348,0.811 0,0.971 0.057,-0.321 -0.301,-0.732 0,-0.971 m 8.367,-0.088 c -0.115,0.226 0.436,0.309 0.098,0.44 -0.026,-0.208 -0.451,-0.053 -0.405,0.089 0.022,0.126 0.168,0.149 0.202,0.264 -0.18,0.08 -0.17,0.325 -0.407,0.354 0.174,-0.511 -0.097,-0.945 0.512,-1.147 m 3.67,1.323 c 0.377,0.062 0.436,-0.151 0.816,-0.088 0.053,0.434 -0.679,0.243 -0.816,0.088 m -0.105,0.088 c 0.068,0.381 -0.473,0.237 -0.813,0.265 0.041,-0.289 0.5,-0.215 0.813,-0.265 m -1.323,0.088 c 0.188,0.012 0.34,0.059 0.407,0.177 -0.196,0.036 -0.081,0.342 -0.407,0.264 -0.193,-0.168 -0.013,-0.221 0,-0.441 m -10.199,0 c 0.215,0.198 0.074,0.581 -0.205,0.617 -0.283,-0.168 -0.256,-0.628 0.205,-0.617 m 12.035,0.089 c -0.054,0.248 -0.248,0.374 -0.31,0.616 -0.291,-0.123 -0.514,0.241 -0.608,0 0.35,-0.167 0.508,-0.502 0.918,-0.616 m -0.713,1.233 c 0.248,0.24 0.461,-0.299 0.813,-0.263 0.064,0.52 -1.041,0.839 -0.813,0.263 M -4.996,20.02 c 0.233,-0.091 0.327,-0.303 0.711,-0.265 0.127,0.401 -0.278,0.347 -0.201,0.706 h 0.406 c 0.02,0.252 0.014,0.481 -0.308,0.44 -0.244,-0.258 -0.395,-0.596 -0.608,-0.881 m -21.525,1.146 c -0.535,-0.312 -1.572,-0.507 -2.039,-0.705 -0.367,-0.024 -0.49,0.162 -0.813,0.176 0.627,-1.936 1.685,-4.325 2.852,-5.821 0.947,1.67 1.379,3.783 1.633,5.821 -0.684,0.966 -0.819,1.002 -1.633,0.529 m 0.92,5.203 c 0.316,0.015 0.578,-0.208 0.818,0 0.11,0.588 -0.83,0.335 -0.818,0 m 21.115,0.442 c 0.203,-0.205 0.08,-0.694 0.507,-0.707 -0.05,0.329 0.253,0.59 0.306,1.059 C -4.191,27.258 -4.3,27 -4.486,26.811 m -23.461,-1.059 c 0.115,0.127 0.11,0.216 -0.101,0.265 -0.153,-0.544 -0.879,-0.594 -1.123,-1.058 0.138,-0.38 0.421,-1.163 1.123,-1.324 0.963,0.271 1.42,0.342 2.242,-0.088 -0.264,-0.171 -1.233,0.101 -1.531,-0.265 0.474,-0.108 1.013,0.18 1.228,0 -0.66,-0.636 -1.582,-0.209 -2.144,0.177 -0.018,-1.178 2.681,-1.706 2.959,-0.353 0.812,0.173 0.986,1.796 0.511,2.735 -0.681,-0.178 -1.592,-0.465 -1.633,0.705 0.469,0.125 1.038,0.427 1.528,0.265 -0.375,0.821 -0.442,1.908 -1.528,2.116 -0.855,-0.465 -1.232,-1.347 -1.531,-2.293 0.645,-0.177 0.885,-0.905 0.61,-1.235 0.015,0.161 -0.184,0.662 -0.405,0.529 0.291,-0.045 -0.164,-0.13 -0.205,-0.176 m 27.844,-4.851 c 0.051,-1.517 -1.762,-2.645 -1.529,-4.321 0.744,-0.058 0.611,0.648 1.121,0.794 -0.063,0.333 -0.426,-0.096 -0.408,0.353 0.074,0.14 0.498,-0.021 0.408,0.264 0.566,-0.434 0.006,-1.254 -0.408,-1.411 0.564,-0.086 0.919,0.723 1.326,1.058 -0.028,0.239 -0.428,0.159 -0.51,0.353 0.045,0.459 0.482,0.584 0.713,0.882 0.373,0.057 0.127,-0.42 0.41,-0.44 0.126,0.212 0.205,0.467 0.408,0.617 -0.181,0.345 -0.435,-0.435 -0.611,-0.088 -0.029,0.741 0.814,0.912 0.508,1.41 0.699,-0.302 0.312,-0.458 0.205,-1.058 0.148,-0.035 0.57,0.444 0.713,0.706 -0.069,0.468 -0.381,0.726 -0.407,1.234 0.321,0.049 0.926,0.48 1.123,0.088 C 3.079,20.711 2.217,21.356 2.243,20.725 2.241,20.207 2.809,20.521 3.061,20.372 3.42,20.217 3.463,19.651 3.877,20.02 3.879,19.869 3.799,19.791 3.672,19.755 c 0.231,-0.138 1.03,0.365 1.121,-0.177 0.27,0.062 0.217,0.401 0.512,0.442 0.379,0.092 0.328,-0.186 0.508,-0.265 0.119,0.457 0.457,0.723 0.713,1.058 1.441,-0.197 1.656,-1.452 1.939,-2.646 0.301,-0.564 1.139,-1.13 0.813,-1.939 0.369,-0.477 0.89,-0.823 0.82,-1.676 0.596,-0.429 0.803,-0.71 1.018,-1.587 0.451,-1.83 2.326,-2.882 1.631,-5.204 C 12.422,6.671 11.467,5.338 10.811,4.057 10.118,2.703 9.512,1.36 8.872,0.441 6.514,0.064 6.795,3.46 4.588,2.91 5.311,2.093 6.157,1.386 6.731,0.441 6.635,0.101 6.159,0.468 5.915,0.529 4.834,0.181 5.106,-0.35 5.202,-1.323 5.396,-3.317 4.219,-5.639 4.387,-7.496 c 0.384,-4.271 0.483,-10.538 0.201,-15.787 -0.216,-4.002 -0.832,-7.586 -1.019,-11.2 -1.86,-0.891 -4.18,-1.383 -7.139,-1.324 -0.23,0.096 -0.191,0.425 -0.615,0.353 -0.035,0.533 0.031,0.975 0.105,1.412 0.852,0.685 2.03,1.693 2.653,2.646 0.5,0.768 0.068,2.314 0.916,2.91 -0.313,1.794 -0.348,4.106 0,5.82 0.051,0.254 0.029,0.596 0,0.883 -0.147,1.5 -0.588,3.473 -0.717,5.202 -0.074,1.057 0.111,2.219 0,3.176 -0.043,0.419 -0.293,0.81 -0.404,1.235 -0.44,1.692 -0.457,3.519 -0.815,4.939 -0.101,0.389 -0.366,0.595 -0.308,1.322 -1.887,-2.232 -3.348,-5.582 -4.793,-8.643 -0.141,-0.302 -0.149,-0.704 -0.205,-1.235 -0.495,-4.755 -2.698,-9.504 -3.672,-14.022 -0.389,-1.823 -0.307,-3.654 -1.834,-4.587 -1.354,0.267 -2.807,0.096 -3.875,0.707 -0.268,0.152 -0.334,0.489 -0.612,0.617 -0.531,0.244 -1.597,0.39 -2.144,0.353 -0.447,-0.031 -0.964,-0.415 -1.426,-0.353 -0.555,0.074 -0.773,0.687 -1.225,0.883 0.401,0.349 -0.191,0.541 -0.103,0.88 -0.822,0.847 -2.141,1.263 -2.854,2.205 0.254,0.911 1.903,0.757 2.649,0.353 0.066,2.335 -0.115,4.83 0.103,6.878 0.092,0.829 0.508,1.652 0.512,2.559 0.01,2.063 -0.564,4.245 -0.818,6.35 -0.11,0.943 -0.287,1.935 -0.51,2.821 -0.289,1.156 -0.75,3.545 -1.326,5.38 -0.216,0.7 -0.174,2.047 -0.815,2.117 -0.763,0.083 -1.591,-2.05 -2.039,-2.822 -1.73,-2.972 -3.295,-6.276 -4.183,-9.966 -1.268,-5.281 -2.274,-10.023 -3.772,-14.817 -0.408,-0.175 -0.873,-0.303 -1.226,-0.528 -0.049,-0.31 -0.151,-0.575 -0.1,-0.971 -1.18,-0.771 -3.041,-0.956 -4.793,-1.234 -1.68,0.747 0.361,1.868 0.712,2.822 0.286,0.768 0.202,2.715 0.409,3.88 0.672,3.793 1.195,7.844 2.141,11.642 0.191,0.762 0.291,1.393 0.408,2.117 0.203,1.255 0.996,2.491 1.326,3.88 0.143,0.603 0.389,1.182 0.613,1.764 0.649,1.715 0.649,2.304 -0.205,3.969 -0.164,0.32 -0.884,0.729 -1.326,0.794 0.129,0.701 -0.504,1.535 0,1.587 -0.295,2.08 -0.166,4.992 0.205,7.585 0.508,3.563 0.332,7.578 1.326,10.671 0.012,1.076 0.327,1.89 0.918,2.468 0.432,-0.021 0.549,0.231 1.018,0.177 0.217,0.18 -0.35,0.586 0,0.882 0.285,-0.283 0.51,-0.617 1.021,-0.705 0.467,0.231 0.959,0.994 1.122,1.675 0.056,0.23 -0.143,0.535 -0.102,0.795 0.43,2.669 1.23,7.659 5.098,7.496 4.232,-0.179 4.859,-5.631 5.101,-9.79 0.774,-0.072 1.381,0.135 1.938,0 -0.069,-0.322 -0.405,0.018 -0.813,-0.088 0.307,-0.459 1.053,-0.395 1.526,-0.705 0.707,-0.465 0.775,-1.371 1.121,-2.118 1.068,-2.277 3.252,-5.026 4.285,-7.054 0.842,1.801 2.006,3.32 3.162,4.849 -0.139,0.115 -0.1,0.384 -0.102,0.619 1.006,1.158 0.756,2.423 1.633,3.527 0.938,1.186 4.177,1.191 4.996,2.822 0.125,1.699 -1.097,2.748 -2.039,3.792 0.114,1.745 -0.957,3.813 0.1,5.468 0.822,0.615 1.801,1.091 2.857,1.499 2.502,-0.381 4.477,-1.699 4.387,-4.586 -0.207,0.026 -0.201,0.239 -0.41,0.266 0.183,-0.52 -0.254,-0.881 0.105,-1.412 -0.771,-0.105 -0.826,0.405 -0.818,0.97 -0.266,0.389 -0.643,0.844 -0.408,1.411 -0.973,1.023 -2.746,0.092 -4.08,0 0.386,-0.736 -0.138,-0.905 0,-1.588 0.242,-0.349 0.927,-0.316 1.326,-0.528 0.152,-0.516 0.246,-1.082 0.205,-1.765 0.34,-0.359 0.678,0.106 1.019,-0.087 -0.013,-0.43 -0.609,-0.356 -0.814,-0.618 0.307,-0.351 1.24,0.072 1.627,-0.176 -0.357,-0.348 -1.018,-0.4 -0.711,-0.882 -0.363,-0.008 -0.701,-0.041 -0.816,-0.264 1.103,-1.049 2.148,0.378 2.652,1.146 -0.068,0.919 -0.199,1.15 0.205,1.852 0.508,0.06 -0.201,-0.506 0.203,-0.618 0.447,0.756 0.701,1.499 0.715,2.205 C 1.909,27.338 0.198,26.06 0.51,24.518 0.711,23.517 1.608,23.099 2.243,22.313 2.049,21.999 1.485,22.811 1.12,22.93 c 0.08,0.689 -0.756,1.261 -1.018,1.94 -0.754,-0.846 -1.115,-2.035 -2.246,-2.557 0.248,-0.611 1.275,-0.546 1.633,-1.059 -0.518,-0.038 -0.797,0.136 -1.121,0.265 -0.477,-0.175 -0.731,-0.543 -1.123,-0.794 0.562,-1.347 -0.073,-2.838 0.205,-4.321 0.832,1.483 1.685,2.953 2.447,4.497"
             style="fill:#1c1c20;fill-opacity:1;fill-rule:evenodd;stroke:none"
             id="path994" /></g><g
           id="g996"
           transform="translate(379.5356,446.5381)"><path
             d="M 0,0 C 0.367,-0.228 1.021,-0.193 1.205,0.174 0.921,0.246 0.947,0.052 0.703,0.087 0.373,0.233 0.529,0.806 0.201,0.955 0.175,0.604 0.029,0.352 0,0 M -0.1,1.563 C 0.117,1.694 0.314,1.2 0.302,1.042 0.572,1.367 0.337,2.084 -0.303,2.259 -0.006,3.191 0.361,4.061 1.205,4.518 2.275,4.313 2.343,3.241 2.716,2.433 2.229,2.593 1.671,2.295 1.205,2.172 1.248,1.019 2.146,1.303 2.813,1.477 3.285,0.553 3.109,-1.046 2.313,-1.216 2.037,-2.55 -0.618,-2.028 -0.602,-0.869 c 0.551,-0.379 1.459,-0.799 2.111,-0.174 -0.211,0.178 -0.742,-0.107 -1.207,0 0.291,0.36 1.246,0.093 1.508,0.261 -0.812,0.423 -1.258,0.354 -2.211,0.087 -0.691,0.158 -0.969,0.929 -1.105,1.303 0.24,0.458 0.953,0.508 1.105,1.042 0.209,-0.047 0.213,-0.134 0.098,-0.26 0.041,0.046 0.49,0.129 0.203,0.173"
             style="fill:#ffffff;fill-opacity:1;fill-rule:evenodd;stroke:none"
             id="path998" /></g><g
           id="g1000"
           transform="translate(407.769,444.9746)"><path
             d="M 0,0 C 0.45,-0.543 -0.496,-1.281 -0.904,-1.65 -0.681,-1.033 -0.191,-0.646 0,0"
             style="fill:#1c1c20;fill-opacity:1;fill-rule:evenodd;stroke:none"
             id="path1002" /></g><g
           id="g1004"
           transform="translate(404.6528,438.3721)"><path
             d="M 0,0 C -0.01,-0.281 -0.454,-0.186 -0.301,-0.608 -0.463,-0.804 -0.475,0.187 0,0"
             style="fill:#ffffff;fill-opacity:1;fill-rule:evenodd;stroke:none"
             id="path1006" /></g><g
           id="g1008"
           transform="translate(410.8813,430.4658)"><path
             d="M 0,0 C 0.927,1.084 1.189,2.739 2.013,3.909 3.039,3.295 2.841,1.615 4.121,1.217 3.767,-0.784 2.304,-2.445 1.105,-3.995 0.964,-2.805 0.324,-1.32 0,0"
             style="fill:#ffffff;fill-opacity:1;fill-rule:evenodd;stroke:none"
             id="path1010" /></g><g
           id="g1012"
           transform="translate(403.1479,431.2471)"><path
             d="M 0,0 C 0.622,-0.357 1.051,-0.886 1.907,-1.041 1.809,-1.215 1.465,-1.179 1.506,-1.477 1.508,-1.63 1.979,-1.338 2.108,-1.563 2.098,-1.785 1.772,-1.735 1.506,-1.736 1.561,-0.676 0.108,-0.917 0,0"
             style="fill:#ffffff;fill-opacity:1;fill-rule:evenodd;stroke:none"
             id="path1014" /></g><g
           id="g1016"
           transform="translate(389.6851,425.3408)"><path
             d="m 0,0 c -0.019,0.07 -0.103,0.087 -0.103,0.174 -0.293,-0.006 -0.373,-0.199 -0.501,-0.348 -0.085,0.099 0.048,0.475 -0.401,0.261 0.019,0.244 0.478,0.108 0.401,0.434 -0.036,0.162 -0.511,-0.01 -0.601,-0.087 -0.248,0.108 0.301,0.253 0.301,0.434 -0.117,0.364 -0.33,0.643 -0.703,0.782 0.086,0.651 0.707,0.837 1.504,0.87 C -0.269,2.026 -0.634,1.704 -0.904,1.303 -0.412,0.658 0.229,0.14 0.903,-0.348 0.538,-0.55 0.967,-0.413 0.903,-0.781 0.131,-0.938 -0.685,-0.328 -1.105,-1.13 -1.234,-1 -0.271,-0.359 0,0"
             style="fill:#ffffff;fill-opacity:1;fill-rule:evenodd;stroke:none"
             id="path1018" /></g><g
           id="g1020"
           transform="translate(373.8101,425.8623)"><path
             d="M 0,0 C 0.127,-0.491 -0.236,-1.143 -0.201,-1.651 -0.511,-1.121 -0.076,-0.487 0,0"
             style="fill:#ffffff;fill-opacity:1;fill-rule:evenodd;stroke:none"
             id="path1022" /></g><g
           id="g1024"
           transform="translate(387.9761,424.9063)"><path
             d="M 0,0 C -0.054,-0.091 -0.298,-1.161 -0.804,-0.869 -0.669,-0.465 -0.191,-0.356 0,0"
             style="fill:#ffffff;fill-opacity:1;fill-rule:evenodd;stroke:none"
             id="path1026" /></g><g
           id="g1028"
           transform="translate(406.1606,423.6035)"><path
             d="M 0,0 C -0.188,-0.123 -0.575,-0.515 0.101,-0.435 -0.543,-0.757 -0.766,0.03 -1.204,0.174 -0.719,0.442 -0.571,-0.534 0,0"
             style="fill:#ffffff;fill-opacity:1;fill-rule:evenodd;stroke:none"
             id="path1030" /></g><g
           id="g1032"
           transform="translate(379.7378,447.4932)"><path
             d="M 0,0 C 0.327,-0.149 0.172,-0.722 0.502,-0.868 0.745,-0.903 0.719,-0.709 1.004,-0.781 0.819,-1.148 0.165,-1.183 -0.201,-0.955 -0.173,-0.604 -0.027,-0.352 0,0"
             style="fill:#1c1c20;fill-opacity:1;fill-rule:evenodd;stroke:none"
             id="path1034" /></g><g
           id="g1036"
           transform="translate(379.8696,447.6641)"><path
             d="M 0,0 C 0.328,-0.149 0.171,-0.722 0.503,-0.868 0.744,-0.903 0.722,-0.71 1.005,-0.782 0.818,-1.148 0.166,-1.184 -0.2,-0.955 -0.174,-0.604 -0.028,-0.352 0,0"
             style="fill:#1c1c20;fill-opacity:1;fill-rule:evenodd;stroke:none"
             id="path1038" /></g><g
           id="g1040"
           transform="translate(406.5601,450.1836)"><path
             d="M 0,0 C -0.294,-0.494 -2.115,-0.892 -2.109,0.087 -1.396,0.508 -0.832,-0.023 0,0"
             style="fill:#1c1c20;fill-opacity:1;fill-rule:evenodd;stroke:none"
             id="path1042" /></g><g
           id="g1044"
           transform="translate(384.0308,410.1934)"><path
             d="m 0,0 c -2.943,-1.264 -6.511,-2.285 -10.619,-3.042 2.375,2.009 4.809,3.694 7.26,5.021 2.807,1.519 5.09,2.291 6.781,2.291 1.323,0 1.323,-0.448 1.323,-0.595 C 4.745,2.931 3.922,1.688 0,0 m 44.696,-1.591 c -0.254,0 -0.563,-0.135 -1.34,-0.811 -7.133,-6.391 -12.451,-9.632 -15.801,-9.632 -2.853,0 -3.183,1.139 -3.183,1.997 0,2.373 1.998,5.366 5.941,8.898 3.955,3.547 7.336,5.345 10.051,5.345 0.742,0 1.627,-0.102 1.627,-0.595 0,-0.602 -1.034,-0.92 -1.907,-1.08 -2.658,-0.517 -3.949,-1.385 -3.949,-2.65 0,-0.937 0.498,-2.053 2.879,-2.053 1.393,0 2.697,0.483 3.875,1.435 1.199,0.973 1.805,2.06 1.805,3.232 0,1.387 -0.733,3.04 -4.229,3.04 -3.08,0 -6.699,-1.851 -10.779,-5.509 0.027,0.167 0.041,0.332 0.041,0.493 0,1.462 -0.719,2.686 -2.137,3.637 -1.365,0.915 -3.111,1.379 -5.189,1.379 -2.676,0 -5.738,-1.203 -9.094,-3.578 C 10.131,-0.288 8.924,-1.318 8.463,-1.857 8.291,-1.954 8.112,-2.073 7.922,-2.235 c -7.533,-6.46 -13.966,-9.736 -19.113,-9.736 -4.236,0 -4.236,1.744 -4.236,2.317 0,1.319 1.068,3.028 3.172,5.08 7.271,0.93 12.537,1.945 15.662,3.015 C 6.768,-0.41 8.399,1 8.399,2.75 8.399,3.575 7.896,4.265 6.901,4.8 5.991,5.288 4.889,5.535 3.622,5.535 c -2.807,0 -6.476,-0.78 -10.903,-2.318 -6.088,-2.117 -9.965,-4.449 -11.732,-7.062 -6.063,-5.43 -10.471,-8.189 -13.104,-8.189 -1.933,0 -1.933,0.733 -1.933,1.009 0,0.52 0.336,1.501 1.943,3.219 l 11.035,12.012 h 6.572 l 1.11,1.329 h -6.492 l 5.949,6.392 -1.24,-0.211 c -1.905,-0.324 -3.639,-0.336 -5.614,0 l -0.226,0.038 -5.885,-6.219 h -4.994 l -1.393,-1.329 h 5.188 l -6.321,-6.759 c -6.861,-6.286 -11.748,-9.481 -14.521,-9.481 -1.629,0 -1.629,0.64 -1.629,0.882 0,0.319 0.445,1.487 4.574,5.431 3.186,3.046 4.737,5.285 4.737,6.845 0,1.261 -0.561,2.329 -1.67,3.177 -1.071,0.819 -2.405,1.234 -3.963,1.234 -1.875,0 -3.926,-0.664 -6.1,-1.972 -1.392,-0.838 -3.187,-2.155 -5.364,-3.934 0.454,0.798 0.675,1.506 0.675,2.134 0,1.042 -0.457,1.946 -1.358,2.688 -0.877,0.72 -1.945,1.084 -3.179,1.084 -1.893,0 -5.362,-2.176 -10.6,-6.649 l -0.592,-0.498 c -0.238,-0.047 -0.457,-0.189 -0.625,-0.408 -7.369,-6.644 -12.551,-10.014 -15.405,-10.014 -1.93,0 -1.93,0.733 -1.93,1.009 0,0.562 0.405,1.66 2.337,3.691 l 12.145,12.716 -1.131,-0.103 c -1.613,-0.147 -2.879,-0.221 -3.764,-0.221 -0.58,0 -1.385,0.073 -2.394,0.218 l -0.221,0.033 -7.961,-8.616 c -2.401,-2.615 -3.567,-4.546 -3.567,-5.901 0,-1.208 0.593,-2.223 1.765,-3.016 1.121,-0.756 2.526,-1.14 4.175,-1.14 3.446,0 8.244,2.761 14.664,8.44 l 2.115,1.85 c 0.229,0.068 0.485,0.232 0.799,0.52 6.117,5.587 8.703,6.76 9.797,6.76 0.828,0 0.828,-0.333 0.828,-0.531 0,-0.566 -0.851,-2.376 -6.535,-8.151 l -8.623,-8.695 1.15,0.095 c 1.016,0.084 2.114,0.127 3.268,0.127 0.33,0 1.314,-0.043 2.93,-0.128 l 0.207,-0.011 0.138,0.155 c 10.012,11.372 17.483,17.139 22.207,17.139 1.726,0 1.726,-0.641 1.726,-0.882 0,-0.204 -0.284,-1.136 -3.919,-4.566 -2.648,-2.465 -4.244,-4.074 -4.879,-4.919 -0.672,-0.889 -1.014,-1.871 -1.014,-2.919 0,-1.224 0.573,-2.262 1.704,-3.086 1.089,-0.795 2.445,-1.198 4.033,-1.198 2.392,0 5.539,1.511 9.631,4.622 0.535,0.406 1.021,0.778 1.48,1.133 -0.213,-0.543 -0.327,-1.055 -0.327,-1.535 0,-1.228 0.591,-2.258 1.761,-3.061 1.121,-0.77 2.527,-1.159 4.177,-1.159 2.978,0 7.11,2.242 12.582,6.823 -0.031,-0.249 -0.05,-0.5 -0.05,-0.753 0,-1.759 0.863,-3.234 2.568,-4.387 1.652,-1.117 3.712,-1.683 6.127,-1.683 5.016,0 11.09,2.773 18.051,8.244 l 2.159,1.722 c 0.27,0.22 0.466,0.385 0.618,0.52 0.211,0.125 0.477,0.319 0.844,0.638 4.83,4.277 8.82,6.446 11.865,6.446 2.375,0 2.375,-1.102 2.375,-1.518 0,-2.514 -2.514,-6.029 -7.469,-10.447 -3.108,-2.784 -5.875,-4.195 -8.228,-4.195 -0.945,0 -1.424,0.189 -1.424,0.562 0,0.603 1.189,0.895 1.898,1.015 3,0.513 4.459,1.484 4.459,2.971 0,0.928 -0.533,2.036 -3.078,2.036 -1.527,0 -2.961,-0.501 -4.263,-1.489 -1.342,-1.016 -2.02,-2.16 -2.02,-3.401 0,-0.886 0.428,-1.642 1.279,-2.245 0.805,-0.57 1.797,-0.859 2.95,-0.859 3.15,0 6.781,2.02 10.816,6.01 -0.053,-0.246 -0.08,-0.47 -0.08,-0.673 0,-1.444 0.826,-2.716 2.449,-3.785 1.565,-1.03 3.416,-1.552 5.496,-1.552 2.071,0 4.422,0.772 6.979,2.295 2.41,1.429 5.855,4.044 10.232,7.77 l 0.662,0.572 0.291,0.372 v 0.147 c 0,0.308 -0.226,0.617 -0.726,0.617"
             style="fill:#1c1c20;fill-opacity:1;fill-rule:nonzero;stroke:none"
             id="path1046" /></g><g
           id="g1048"
           transform="translate(384.0308,410.1934)"><path
             d="m 0,0 c -2.943,-1.264 -6.511,-2.285 -10.619,-3.042 2.375,2.009 4.809,3.694 7.26,5.021 2.807,1.519 5.09,2.291 6.781,2.291 1.323,0 1.323,-0.448 1.323,-0.595 C 4.745,2.931 3.922,1.688 0,0 Z m 44.696,-1.591 c -0.254,0 -0.563,-0.135 -1.34,-0.811 -7.133,-6.391 -12.451,-9.632 -15.801,-9.632 -2.853,0 -3.183,1.139 -3.183,1.997 0,2.373 1.998,5.366 5.941,8.898 3.955,3.547 7.336,5.345 10.051,5.345 0.742,0 1.627,-0.102 1.627,-0.595 0,-0.602 -1.034,-0.92 -1.907,-1.08 -2.658,-0.517 -3.949,-1.385 -3.949,-2.65 0,-0.937 0.498,-2.053 2.879,-2.053 1.393,0 2.697,0.483 3.875,1.435 1.199,0.973 1.805,2.06 1.805,3.232 0,1.387 -0.733,3.04 -4.229,3.04 -3.08,0 -6.699,-1.851 -10.779,-5.509 0.027,0.167 0.041,0.332 0.041,0.493 0,1.462 -0.719,2.686 -2.137,3.637 -1.365,0.915 -3.111,1.379 -5.189,1.379 -2.676,0 -5.738,-1.203 -9.094,-3.578 C 10.131,-0.288 8.924,-1.318 8.463,-1.857 8.291,-1.954 8.112,-2.073 7.922,-2.235 c -7.533,-6.46 -13.966,-9.736 -19.113,-9.736 -4.236,0 -4.236,1.744 -4.236,2.317 0,1.319 1.068,3.028 3.172,5.08 7.271,0.93 12.537,1.945 15.662,3.015 C 6.768,-0.41 8.399,1 8.399,2.75 8.399,3.575 7.896,4.265 6.901,4.8 5.991,5.288 4.889,5.535 3.622,5.535 c -2.807,0 -6.476,-0.78 -10.903,-2.318 -6.088,-2.117 -9.965,-4.449 -11.732,-7.062 -6.063,-5.43 -10.471,-8.189 -13.104,-8.189 -1.933,0 -1.933,0.733 -1.933,1.009 0,0.52 0.336,1.501 1.943,3.219 l 11.035,12.012 h 6.572 l 1.11,1.329 h -6.492 l 5.949,6.392 -1.24,-0.211 c -1.905,-0.324 -3.639,-0.336 -5.614,0 l -0.226,0.038 -5.885,-6.219 h -4.994 l -1.393,-1.329 h 5.188 l -6.321,-6.759 c -6.861,-6.286 -11.748,-9.481 -14.521,-9.481 -1.629,0 -1.629,0.64 -1.629,0.882 0,0.319 0.445,1.487 4.574,5.431 3.186,3.046 4.737,5.285 4.737,6.845 0,1.261 -0.561,2.329 -1.67,3.177 -1.071,0.819 -2.405,1.234 -3.963,1.234 -1.875,0 -3.926,-0.664 -6.1,-1.972 -1.392,-0.838 -3.187,-2.155 -5.364,-3.934 0.454,0.798 0.675,1.506 0.675,2.134 0,1.042 -0.457,1.946 -1.358,2.688 -0.877,0.72 -1.945,1.084 -3.179,1.084 -1.893,0 -5.362,-2.176 -10.6,-6.649 l -0.592,-0.498 c -0.238,-0.047 -0.457,-0.189 -0.625,-0.408 -7.369,-6.644 -12.551,-10.014 -15.405,-10.014 -1.93,0 -1.93,0.733 -1.93,1.009 0,0.562 0.405,1.66 2.337,3.691 l 12.145,12.716 -1.131,-0.103 c -1.613,-0.147 -2.879,-0.221 -3.764,-0.221 -0.58,0 -1.385,0.073 -2.394,0.218 l -0.221,0.033 -7.961,-8.616 c -2.401,-2.615 -3.567,-4.546 -3.567,-5.901 0,-1.208 0.593,-2.223 1.765,-3.016 1.121,-0.756 2.526,-1.14 4.175,-1.14 3.446,0 8.244,2.761 14.664,8.44 l 2.115,1.85 c 0.229,0.068 0.485,0.232 0.799,0.52 6.117,5.587 8.703,6.76 9.797,6.76 0.828,0 0.828,-0.333 0.828,-0.531 0,-0.566 -0.851,-2.376 -6.535,-8.151 l -8.623,-8.695 1.15,0.095 c 1.016,0.084 2.114,0.127 3.268,0.127 0.33,0 1.314,-0.043 2.93,-0.128 l 0.207,-0.011 0.138,0.155 c 10.012,11.372 17.483,17.139 22.207,17.139 1.726,0 1.726,-0.641 1.726,-0.882 0,-0.204 -0.284,-1.136 -3.919,-4.566 -2.648,-2.465 -4.244,-4.074 -4.879,-4.919 -0.672,-0.889 -1.014,-1.871 -1.014,-2.919 0,-1.224 0.573,-2.262 1.704,-3.086 1.089,-0.795 2.445,-1.198 4.033,-1.198 2.392,0 5.539,1.511 9.631,4.622 0.535,0.406 1.021,0.778 1.48,1.133 -0.213,-0.543 -0.327,-1.055 -0.327,-1.535 0,-1.228 0.591,-2.258 1.761,-3.061 1.121,-0.77 2.527,-1.159 4.177,-1.159 2.978,0 7.11,2.242 12.582,6.823 -0.031,-0.249 -0.05,-0.5 -0.05,-0.753 0,-1.759 0.863,-3.234 2.568,-4.387 1.652,-1.117 3.712,-1.683 6.127,-1.683 5.016,0 11.09,2.773 18.051,8.244 l 2.159,1.722 c 0.27,0.22 0.466,0.385 0.618,0.52 0.211,0.125 0.477,0.319 0.844,0.638 4.83,4.277 8.82,6.446 11.865,6.446 2.375,0 2.375,-1.102 2.375,-1.518 0,-2.514 -2.514,-6.029 -7.469,-10.447 -3.108,-2.784 -5.875,-4.195 -8.228,-4.195 -0.945,0 -1.424,0.189 -1.424,0.562 0,0.603 1.189,0.895 1.898,1.015 3,0.513 4.459,1.484 4.459,2.971 0,0.928 -0.533,2.036 -3.078,2.036 -1.527,0 -2.961,-0.501 -4.263,-1.489 -1.342,-1.016 -2.02,-2.16 -2.02,-3.401 0,-0.886 0.428,-1.642 1.279,-2.245 0.805,-0.57 1.797,-0.859 2.95,-0.859 3.15,0 6.781,2.02 10.816,6.01 -0.053,-0.246 -0.08,-0.47 -0.08,-0.673 0,-1.444 0.826,-2.716 2.449,-3.785 1.565,-1.03 3.416,-1.552 5.496,-1.552 2.071,0 4.422,0.772 6.979,2.295 2.41,1.429 5.855,4.044 10.232,7.77 l 0.662,0.572 0.291,0.372 v 0.147 c 0,0.308 -0.226,0.617 -0.726,0.617 z"
             style="fill:none;stroke:#ffffff;stroke-width:2;stroke-linecap:butt;stroke-linejoin:miter;stroke-miterlimit:10;stroke-dasharray:none;stroke-opacity:1"
             id="path1050" /></g><g
           id="g1052"
           transform="translate(387.4517,413.9629)"><path
             d="m 0,0 c -1.604,0 -3.809,-0.751 -6.545,-2.232 -1.879,-1.018 -3.762,-2.256 -5.61,-3.695 3.248,0.698 6.112,1.575 8.537,2.617 4.09,1.76 4.436,2.891 4.442,3.206 C 0.802,-0.102 0.604,0 0,0 m 23.837,-17.634 c -2.181,0 -4.121,0.55 -5.773,1.635 -1.572,1.035 -2.457,2.265 -2.635,3.661 -3.779,-3.516 -7.232,-5.296 -10.273,-5.296 -1.26,0 -2.348,0.321 -3.24,0.951 -0.975,0.693 -1.489,1.61 -1.489,2.654 0,1.406 0.746,2.684 2.219,3.8 1.389,1.054 2.924,1.589 4.563,1.589 3.113,0 3.578,-1.589 3.578,-2.536 0,-1.77 -1.594,-2.903 -4.875,-3.463 -0.903,-0.154 -1.303,-0.366 -1.434,-0.48 0.113,-0.043 0.363,-0.105 0.877,-0.105 2.225,0 4.879,1.369 7.893,4.069 6.035,5.38 7.304,8.448 7.304,10.074 0,0.33 0,1.018 -1.875,1.018 -2.918,0 -6.8,-2.127 -11.531,-6.321 C 6.783,-6.697 6.482,-6.923 6.224,-7.077 6.146,-7.158 5.943,-7.328 5.666,-7.555 L 3.502,-9.28 c -7.053,-5.544 -13.231,-8.354 -18.362,-8.354 -2.517,0 -4.672,0.596 -6.408,1.77 -1.74,1.176 -2.67,2.676 -2.777,4.46 -5.151,-4.19 -9.1,-6.23 -12.043,-6.23 -1.754,0 -3.254,0.42 -4.459,1.247 -1.311,0.902 -1.977,2.071 -1.977,3.474 0,0.092 0.002,0.184 0.008,0.276 -0.117,-0.089 -0.236,-0.179 -0.359,-0.272 -4.182,-3.179 -7.43,-4.725 -9.934,-4.725 -1.697,0 -3.154,0.436 -4.328,1.295 -1.266,0.923 -1.91,2.097 -1.91,3.489 0,1.16 0.375,2.243 1.113,3.221 0.658,0.868 2.273,2.498 4.941,4.983 3.551,3.35 3.754,4.199 3.762,4.233 -0.002,0.3 -0.771,0.35 -1.23,0.35 -4.571,0 -11.918,-5.71 -21.832,-16.97 l -0.297,-0.336 -0.446,0.023 c -1.61,0.084 -2.589,0.127 -2.904,0.127 -1.142,0 -2.228,-0.042 -3.23,-0.125 l -2.5,-0.207 9.576,9.658 c 6.082,6.176 6.392,7.58 6.392,7.798 0.008,-0.003 0.012,-0.004 0.014,-0.004 0.002,0 -0.098,0.036 -0.342,0.036 -0.824,0 -3.146,-0.862 -9.461,-6.629 -0.322,-0.297 -0.605,-0.489 -0.882,-0.593 l -2.04,-1.785 c -6.513,-5.762 -11.419,-8.564 -14.993,-8.564 -1.75,0 -3.248,0.413 -4.452,1.227 -1.32,0.891 -1.988,2.046 -1.988,3.428 0,1.508 1.177,3.491 3.699,6.241 l 8.143,8.809 0.482,-0.07 c 0.984,-0.142 1.764,-0.213 2.32,-0.213 0.868,0 2.12,0.073 3.721,0.22 l 2.459,0.223 -13.07,-13.679 c -1.982,-2.088 -2.197,-3.036 -2.197,-3.347 0,-0.337 0.48,-0.509 1.431,-0.509 1.873,0 6.006,1.716 15.07,9.887 0.153,0.213 0.422,0.4 0.725,0.491 l 0.502,0.424 c 5.406,4.616 8.877,6.768 10.924,6.768 1.353,0 2.529,-0.403 3.496,-1.198 1.025,-0.841 1.541,-1.876 1.541,-3.075 0,-0.193 -0.016,-0.391 -0.049,-0.594 1.557,1.221 2.891,2.167 3.979,2.822 2.254,1.357 4.394,2.045 6.359,2.045 1.668,0 3.104,-0.451 4.266,-1.337 1.238,-0.948 1.867,-2.15 1.867,-3.575 0,-1.727 -1.553,-4.017 -4.891,-7.206 -4.193,-4.003 -4.41,-4.981 -4.42,-5.08 0,-0.243 0.379,-0.372 1.129,-0.372 1.813,0 5.748,1.622 14.182,9.351 l 5.508,5.89 h -5.284 l 2.44,2.329 h 4.98 l 5.922,6.256 0.487,-0.083 c 0.953,-0.162 1.845,-0.24 2.726,-0.24 0.879,0 1.77,0.078 2.721,0.24 l 2.697,0.459 -6.172,-6.632 h 6.414 l -1.949,-2.329 h -6.584 l -10.889,-11.851 c -1.634,-1.749 -1.81,-2.597 -1.81,-2.881 0,-0.337 0.482,-0.509 1.433,-0.509 1.715,0 5.313,1.393 12.725,8.022 1.852,2.695 5.76,5.051 11.947,7.201 4.481,1.558 8.205,2.347 11.067,2.347 1.349,0 2.531,-0.268 3.517,-0.794 1.457,-0.784 1.761,-1.787 1.761,-2.492 0,-1.991 -1.743,-3.555 -5.331,-4.781 -3.131,-1.074 -8.377,-2.089 -15.592,-3.017 -2.396,-2.365 -2.904,-3.808 -2.904,-4.606 0,-0.449 0,-1.816 3.736,-1.816 5.026,0 11.346,3.235 18.789,9.615 0.176,0.148 0.352,0.276 0.543,0.389 0.414,0.465 1.416,1.384 4.877,3.832 3.442,2.435 6.598,3.67 9.383,3.67 2.178,0 4.016,-0.493 5.467,-1.463 1.366,-0.917 2.146,-2.074 2.322,-3.444 3.835,3.257 7.289,4.907 10.274,4.907 4.115,0 4.73,-2.218 4.73,-3.54 0,-1.33 -0.669,-2.548 -1.992,-3.621 -1.266,-1.026 -2.677,-1.546 -4.188,-1.546 -2.941,0 -3.379,1.599 -3.379,2.552 0,2.293 3.276,2.932 4.352,3.141 1.122,0.207 1.445,0.478 1.497,0.567 H 38.06 c -0.062,0 -0.338,0.118 -1.117,0.118 -2.588,0 -5.856,-1.755 -9.717,-5.217 -3.832,-3.434 -5.775,-6.303 -5.775,-8.527 0,-0.485 0,-1.497 2.683,-1.497 3.223,0 8.429,3.199 15.469,9.505 0.805,0.703 1.225,0.939 1.672,0.939 0.805,0 1.225,-0.563 1.225,-1.119 v -0.319 l -0.396,-0.507 -0.729,-0.641 c -4.401,-3.747 -7.866,-6.378 -10.303,-7.823 -2.635,-1.569 -5.072,-2.365 -7.235,-2.365"
             style="fill:#231f20;fill-opacity:1;fill-rule:nonzero;stroke:none"
             id="path1054" /></g><g
           id="g1056"
           transform="translate(411.5854,399.1592)"><path
             d="m 0,0 c -2.183,0 -2.183,0.648 -2.183,0.997 0,1.427 0.974,4 5.609,8.154 1.785,1.602 3.434,2.828 4.936,3.676 -0.469,-0.488 -0.783,-1.112 -0.783,-1.912 0,-0.716 0.279,-3.053 3.88,-3.053 0.866,0 1.698,0.159 2.493,0.471 C 6.079,1.478 2.028,0 0,0 m -17.568,7.35 c 0.262,0.166 0.559,0.391 0.902,0.687 4.582,4.061 8.454,6.203 11.209,6.203 1.375,0 1.375,-0.349 1.375,-0.517 0,-1.525 -1.238,-4.445 -7.136,-9.701 -0.629,-0.563 -1.237,-1.066 -1.832,-1.508 0.131,0.331 0.203,0.701 0.203,1.114 0,0.913 -0.395,3.036 -4.078,3.036 -0.584,0 -1.153,-0.063 -1.711,-0.189 l 0.476,0.379 c 0.254,0.207 0.442,0.365 0.592,0.496 m -16.449,2.577 c 1.189,0.822 2.383,1.558 3.578,2.205 2.625,1.421 4.805,2.172 6.305,2.172 0.03,0 0.06,0 0.086,-10e-4 -0.381,-0.45 -1.362,-1.257 -3.903,-2.35 -1.783,-0.767 -3.816,-1.444 -6.066,-2.026 m -4.725,14.515 -2.912,-0.495 -1.242,-0.211 c -0.922,-0.157 -1.787,-0.233 -2.637,-0.233 -0.853,0 -1.717,0.076 -2.642,0.233 l -0.223,0.038 -0.527,0.089 -0.366,-0.387 -5.593,-5.907 h -4.561 -0.402 l -0.291,-0.276 -1.391,-1.329 -1.81,-1.724 h 2.498 2.886 L -62.677,9.193 C -70.974,1.597 -74.771,0 -76.494,0 c -0.228,0 -0.394,0.016 -0.513,0.033 0.293,0.497 1.224,1.762 4.15,4.557 3.443,3.29 5.045,5.695 5.045,7.568 0,1.567 -0.711,2.94 -2.061,3.971 -1.252,0.956 -2.789,1.44 -4.57,1.44 -2.06,0 -4.286,-0.712 -6.619,-2.117 -0.902,-0.543 -1.971,-1.282 -3.193,-2.209 -0.118,1.156 -0.7,2.192 -1.7,3.015 -1.064,0.87 -2.345,1.311 -3.816,1.311 -2.203,0 -5.672,-2.125 -11.25,-6.889 l -0.426,-0.359 c -0.33,-0.121 -0.629,-0.333 -0.867,-0.616 C -111.218,1.687 -115.211,0 -116.993,0 c -0.504,0 -0.778,0.059 -0.913,0.102 0.064,0.319 0.396,1.174 2.045,2.91 l 12.145,12.714 1.843,1.928 -2.656,-0.242 -1.131,-0.102 c -1.586,-0.145 -2.822,-0.218 -3.677,-0.218 -0.53,0 -1.286,0.07 -2.25,0.208 l -0.219,0.032 -0.52,0.076 -0.359,-0.387 -7.961,-8.615 c -2.617,-2.85 -3.833,-4.94 -3.833,-6.58 0,-1.538 0.764,-2.867 2.206,-3.844 1.289,-0.871 2.881,-1.312 4.733,-1.312 3.702,0 8.716,2.843 15.326,8.691 l 1.974,1.726 c 0.307,0.132 0.619,0.346 0.957,0.659 5.375,4.907 7.729,6.129 8.676,6.413 -0.504,-0.848 -1.932,-2.792 -5.977,-6.898 l -8.619,-8.694 -1.908,-1.924 2.701,0.223 1.147,0.096 c 0.99,0.081 2.062,0.123 3.189,0.123 0.211,0 0.883,-0.023 2.879,-0.126 l 0.205,-0.011 0.483,-0.025 0.319,0.363 0.136,0.154 c 12.228,13.885 18.416,16.8 21.457,16.8 0.25,0 0.433,-0.015 0.566,-0.036 -0.32,-0.476 -1.176,-1.545 -3.445,-3.683 -2.721,-2.537 -4.309,-4.141 -4.992,-5.045 -0.805,-1.067 -1.215,-2.251 -1.215,-3.522 0,-1.539 0.734,-2.886 2.117,-3.893 1.26,-0.923 2.818,-1.391 4.623,-1.391 2.533,0 5.753,1.48 9.836,4.523 0.193,-1.259 0.924,-2.352 2.141,-3.188 1.291,-0.886 2.888,-1.335 4.742,-1.335 2.926,0 6.756,1.897 11.672,5.79 0.343,-1.541 1.318,-2.885 2.867,-3.935 1.822,-1.231 4.072,-1.855 6.689,-1.855 4.369,0 9.457,1.974 15.157,5.874 -0.245,-0.565 -0.37,-1.154 -0.37,-1.77 0,-0.845 0.295,-2.062 1.7,-3.06 0.978,-0.693 2.164,-1.044 3.529,-1.044 2.998,0 6.346,1.631 9.978,4.851 0.396,-1.181 1.284,-2.231 2.655,-3.134 1.736,-1.139 3.769,-1.717 6.047,-1.717 2.257,0 4.777,0.819 7.492,2.435 2.459,1.458 5.949,4.106 10.369,7.869 l 0.666,0.578 0.076,0.062 0.057,0.076 0.291,0.372 0.213,0.272 v 0.345 0.147 c 0,0.784 -0.602,1.617 -1.723,1.617 -0.08,0 -0.158,-0.005 -0.236,-0.015 0.82,0.945 1.234,1.984 1.234,3.101 0,1.215 -0.51,4.04 -5.232,4.04 -2.938,0 -6.287,-1.512 -9.969,-4.501 -0.363,1.151 -1.158,2.155 -2.348,2.953 -1.533,1.028 -3.467,1.548 -5.744,1.548 -2.892,0 -6.146,-1.265 -9.672,-3.761 -3.347,-2.365 -4.426,-3.322 -4.912,-3.851 -0.191,-0.117 -0.368,-0.246 -0.541,-0.394 -7.355,-6.305 -13.566,-9.5 -18.469,-9.5 -3.234,0 -3.234,0.992 -3.234,1.317 0,0.566 0.346,1.844 2.633,4.132 7.162,0.926 12.383,1.941 15.525,3.018 3.813,1.304 5.668,3.023 5.668,5.254 0,0.84 -0.353,2.03 -2.027,2.931 -1.057,0.567 -2.319,0.854 -3.752,0.854 -2.918,0 -6.697,-0.798 -11.231,-2.374 C -41.416,13.021 -45.396,10.619 -47.322,7.854 -54.587,1.366 -58.048,0 -59.673,0 c -0.508,0 -0.78,0.059 -0.916,0.103 0.06,0.293 0.341,1.032 1.656,2.443 l 10.745,11.694 h 6.132 0.467 l 0.3,0.359 1.112,1.329 1.373,1.641 h -2.139 -4.197 l 4.383,4.711 z m 0.567,-16.45 c 4.111,0.757 7.677,1.779 10.619,3.042 3.922,1.689 4.746,2.931 4.746,3.675 0,0.147 0,0.595 -1.324,0.595 -1.688,0 -3.971,-0.772 -6.78,-2.292 -2.449,-1.325 -4.886,-3.011 -7.261,-5.02 m -3.311,14.969 -5.951,-6.392 h 6.494 l -1.113,-1.329 h -6.572 L -59.662,3.229 c -1.607,-1.719 -1.942,-2.7 -1.942,-3.22 0,-0.276 0,-1.009 1.931,-1.009 2.634,0 7.041,2.759 13.107,8.189 1.764,2.613 5.641,4.945 11.729,7.062 4.429,1.538 8.099,2.318 10.904,2.318 1.267,0 2.37,-0.247 3.281,-0.735 0.994,-0.535 1.498,-1.225 1.498,-2.05 0,-1.75 -1.633,-3.16 -4.992,-4.308 -3.125,-1.071 -8.393,-2.085 -15.664,-3.016 -2.104,-2.052 -3.17,-3.761 -3.17,-5.08 0,-0.572 0,-2.317 4.234,-2.317 5.147,0 11.58,3.276 19.112,9.736 0.193,0.162 0.369,0.281 0.541,0.378 0.461,0.539 1.668,1.569 4.845,3.814 3.356,2.375 6.418,3.578 9.096,3.578 2.076,0 3.822,-0.464 5.186,-1.379 1.418,-0.951 2.138,-2.174 2.138,-3.637 0,-0.16 -0.015,-0.325 -0.041,-0.492 4.08,3.657 7.698,5.508 10.778,5.508 3.496,0 4.232,-1.653 4.232,-3.04 0,-1.172 -0.609,-2.258 -1.807,-3.232 -1.179,-0.952 -2.48,-1.435 -3.875,-1.435 -2.382,0 -2.88,1.117 -2.88,2.053 0,1.266 1.291,2.133 3.949,2.65 0.873,0.161 1.91,0.478 1.91,1.081 0,0.491 -0.885,0.594 -1.627,0.594 C 10.096,15.24 6.713,13.442 2.758,9.896 -1.185,6.363 -3.183,3.37 -3.183,0.997 -3.183,0.14 -2.853,-1 0,-1 c 3.352,0 8.668,3.241 15.803,9.632 0.774,0.677 1.086,0.811 1.34,0.811 0.5,0 0.723,-0.309 0.723,-0.617 V 8.679 L 17.575,8.308 16.913,7.735 C 12.536,4.009 9.094,1.396 6.684,-0.035 4.125,-1.558 1.774,-2.33 -0.298,-2.33 c -2.08,0 -3.93,0.522 -5.496,1.553 -1.622,1.068 -2.446,2.34 -2.446,3.784 0,0.203 0.024,0.428 0.078,0.674 -4.033,-3.991 -7.666,-6.011 -10.816,-6.011 -1.154,0 -2.145,0.289 -2.951,0.859 -0.848,0.603 -1.278,1.358 -1.278,2.245 0,1.242 0.68,2.385 2.02,3.401 1.301,0.988 2.738,1.489 4.262,1.489 2.545,0 3.078,-1.107 3.078,-2.036 0,-1.486 -1.459,-2.458 -4.459,-2.971 -0.709,-0.12 -1.897,-0.412 -1.897,-1.014 0,-0.372 0.479,-0.563 1.426,-0.563 2.35,0 5.119,1.411 8.225,4.195 4.955,4.418 7.47,7.933 7.47,10.448 0,0.415 0,1.517 -2.375,1.517 -3.046,0 -7.035,-2.169 -11.863,-6.446 -0.368,-0.318 -0.635,-0.513 -0.846,-0.638 -0.15,-0.135 -0.349,-0.3 -0.617,-0.52 l -2.158,-1.722 c -6.961,-5.471 -13.037,-8.244 -18.053,-8.244 -2.414,0 -4.476,0.566 -6.127,1.684 -1.703,1.152 -2.567,2.627 -2.567,4.386 0,0.253 0.017,0.504 0.048,0.753 -5.469,-4.581 -9.602,-6.823 -12.582,-6.823 -1.649,0 -3.053,0.39 -4.174,1.159 -1.17,0.803 -1.762,1.833 -1.762,3.062 0,0.479 0.112,0.991 0.326,1.534 -0.459,-0.355 -0.943,-0.727 -1.48,-1.133 -4.09,-3.11 -7.24,-4.622 -9.629,-4.622 -1.588,0 -2.947,0.403 -4.035,1.198 -1.129,0.824 -1.705,1.862 -1.705,3.086 0,1.048 0.342,2.03 1.015,2.919 0.637,0.845 2.231,2.454 4.879,4.919 3.637,3.431 3.92,4.362 3.92,4.566 0,0.242 0,0.882 -1.728,0.882 -4.721,0 -12.194,-5.766 -22.207,-17.138 l -0.136,-0.156 -0.208,0.011 c -1.617,0.085 -2.6,0.128 -2.928,0.128 -1.155,0 -2.254,-0.043 -3.271,-0.127 l -1.149,-0.095 8.623,8.696 c 5.684,5.774 6.534,7.585 6.534,8.15 0,0.198 0,0.531 -0.827,0.531 -1.095,0 -3.681,-1.173 -9.798,-6.76 -0.311,-0.288 -0.567,-0.452 -0.799,-0.52 l -2.114,-1.85 c -6.421,-5.678 -11.217,-8.44 -14.665,-8.44 -1.648,0 -3.052,0.384 -4.173,1.141 -1.172,0.793 -1.766,1.807 -1.766,3.015 0,1.356 1.166,3.286 3.566,5.902 l 7.964,8.615 0.22,-0.032 c 1.007,-0.146 1.813,-0.219 2.392,-0.219 0.886,0 2.152,0.074 3.767,0.221 l 1.131,0.103 L -116.586,3.7 c -1.933,-2.031 -2.336,-3.129 -2.336,-3.691 0,-0.276 0,-1.009 1.929,-1.009 2.853,0 8.036,3.37 15.404,10.015 0.168,0.218 0.388,0.36 0.625,0.407 l 0.593,0.498 c 5.237,4.474 8.707,6.649 10.6,6.649 1.234,0 2.301,-0.364 3.178,-1.084 0.904,-0.742 1.361,-1.646 1.361,-2.688 0,-0.628 -0.223,-1.336 -0.676,-2.134 2.178,1.779 3.971,3.096 5.362,3.933 2.175,1.309 4.228,1.973 6.103,1.973 1.555,0 2.889,-0.415 3.963,-1.234 1.107,-0.848 1.668,-1.916 1.668,-3.177 0,-1.559 -1.549,-3.799 -4.738,-6.845 -4.129,-3.944 -4.573,-5.112 -4.573,-5.431 0,-0.241 0,-0.882 1.629,-0.882 2.772,0 7.66,3.195 14.52,9.481 l 6.324,6.759 h -5.191 l 1.396,1.329 h 4.992 l 5.887,6.219 0.223,-0.038 c 0.982,-0.166 1.9,-0.247 2.81,-0.247 0.928,0 1.844,0.084 2.805,0.247 l 1.242,0.211"
             style="fill:#ffffff;fill-opacity:1;fill-rule:nonzero;stroke:none"
             id="path1058" /></g><g
           id="g1060"
           transform="translate(312.0854,421.2168)"><path
             d="m 0,0 c 0,-2.756 -2.783,-4.99 -6.22,-4.99 -3.432,0 -6.218,2.234 -6.218,4.99 0,2.755 2.786,4.988 6.218,4.988 C -2.783,4.988 0,2.755 0,0"
             style="fill:#231f20;fill-opacity:1;fill-rule:nonzero;stroke:none"
             id="path1062" /></g><g
           id="g1064"
           transform="translate(312.0854,421.2168)"><path
             d="m 0,0 c 0,-2.756 -2.783,-4.99 -6.22,-4.99 -3.432,0 -6.218,2.234 -6.218,4.99 0,2.755 2.786,4.988 6.218,4.988 C -2.783,4.988 0,2.755 0,0 Z"
             style="fill:none;stroke:#1c1c20;stroke-width:0.101;stroke-linecap:butt;stroke-linejoin:miter;stroke-miterlimit:10;stroke-dasharray:none;stroke-opacity:1"
             id="path1066" /></g></g></g><g
       id="g1068"
       transform="translate(-152.05777,383.16499)"><g
         id="g1070"><g
           id="g1076"><g
             id="g1078"><path
               d="m 300.81,421.217 c 0,-2.29 2.267,-4.15 5.056,-4.15 v 0 c 2.789,0 5.057,1.86 5.057,4.15 v 0 c 0,2.287 -2.268,4.148 -5.057,4.148 v 0 c -2.789,0 -5.056,-1.861 -5.056,-4.148 m 0.372,0 c 0,2.014 2.102,3.653 4.684,3.653 v 0 c 2.582,0 4.683,-1.639 4.683,-3.653 v 0 c 0,-2.016 -2.101,-3.655 -4.683,-3.655 v 0 c -2.582,0 -4.684,1.639 -4.684,3.655"
               style="fill:url(#linearGradient1084);stroke:none"
               id="path1086" /></g></g></g></g><g
       id="g1088"
       transform="translate(-152.05777,383.16499)"><g
         id="g1090"
         clip-path="url(#clipPath1094)"><g
           id="g1096"
           transform="translate(305.9946,423.2217)"><path
             d="m 0,0 c 0,-0.417 -0.422,-0.755 -0.942,-0.755 -0.521,0 -0.943,0.338 -0.943,0.755 0,0.417 0.422,0.755 0.943,0.755 C -0.422,0.755 0,0.417 0,0"
             style="fill:#ffffff;fill-opacity:1;fill-rule:nonzero;stroke:none"
             id="path1098" /></g><g
           id="g1100"
           transform="translate(305.9946,423.2217)"><path
             d="m 0,0 c 0,-0.417 -0.422,-0.755 -0.942,-0.755 -0.521,0 -0.943,0.338 -0.943,0.755 0,0.417 0.422,0.755 0.943,0.755 C -0.422,0.755 0,0.417 0,0 Z"
             style="fill:none;stroke:#1c1c20;stroke-width:0.015;stroke-linecap:butt;stroke-linejoin:miter;stroke-miterlimit:10;stroke-dasharray:none;stroke-opacity:1"
             id="path1102" /></g><g
           id="g1104"
           transform="translate(308.9653,422.0811)"><path
             d="m 0,0 c 0,-0.417 -0.42,-0.755 -0.94,-0.755 -0.521,0 -0.943,0.338 -0.943,0.755 0,0.417 0.422,0.755 0.943,0.755 C -0.42,0.755 0,0.417 0,0"
             style="fill:#ffffff;fill-opacity:1;fill-rule:nonzero;stroke:none"
             id="path1106" /></g><g
           id="g1108"
           transform="translate(308.9653,422.0811)"><path
             d="m 0,0 c 0,-0.417 -0.42,-0.755 -0.94,-0.755 -0.521,0 -0.943,0.338 -0.943,0.755 0,0.417 0.422,0.755 0.943,0.755 C -0.42,0.755 0,0.417 0,0 Z"
             style="fill:none;stroke:#1c1c20;stroke-width:0.015;stroke-linecap:butt;stroke-linejoin:miter;stroke-miterlimit:10;stroke-dasharray:none;stroke-opacity:1"
             id="path1110" /></g><g
           id="g1112"
           transform="translate(304.7632,420.8145)"><path
             d="m 0,0 c 0,-0.417 -0.423,-0.755 -0.941,-0.755 -0.521,0 -0.943,0.338 -0.943,0.755 0,0.417 0.422,0.755 0.943,0.755 C -0.423,0.755 0,0.417 0,0"
             style="fill:#ffffff;fill-opacity:1;fill-rule:nonzero;stroke:none"
             id="path1114" /></g><g
           id="g1116"
           transform="translate(304.7632,420.8145)"><path
             d="m 0,0 c 0,-0.417 -0.423,-0.755 -0.941,-0.755 -0.521,0 -0.943,0.338 -0.943,0.755 0,0.417 0.422,0.755 0.943,0.755 C -0.423,0.755 0,0.417 0,0 Z"
             style="fill:none;stroke:#1c1c20;stroke-width:0.015;stroke-linecap:butt;stroke-linejoin:miter;stroke-miterlimit:10;stroke-dasharray:none;stroke-opacity:1"
             id="path1118" /></g><g
           id="g1120"
           transform="translate(307.7358,419.6738)"><path
             d="m 0,0 c 0,-0.417 -0.423,-0.755 -0.941,-0.755 -0.523,0 -0.943,0.338 -0.943,0.755 0,0.417 0.42,0.755 0.943,0.755 C -0.423,0.755 0,0.417 0,0"
             style="fill:#ffffff;fill-opacity:1;fill-rule:nonzero;stroke:none"
             id="path1122" /></g><g
           id="g1124"
           transform="translate(307.7358,419.6738)"><path
             d="m 0,0 c 0,-0.417 -0.423,-0.755 -0.941,-0.755 -0.523,0 -0.943,0.338 -0.943,0.755 0,0.417 0.42,0.755 0.943,0.755 C -0.423,0.755 0,0.417 0,0 Z"
             style="fill:none;stroke:#1c1c20;stroke-width:0.015;stroke-linecap:butt;stroke-linejoin:miter;stroke-miterlimit:10;stroke-dasharray:none;stroke-opacity:1"
             id="path1126" /></g><g
           id="g1128"
           transform="translate(417.6089,382.6797)"><path
             d="M 0,0 H -163.363 V 13.438 H 7.165 Z"
             style="fill:#231f20;fill-opacity:1;fill-rule:nonzero;stroke:none"
             id="path1130" /></g></g></g><g
       id="g1132"
       transform="translate(-152.05777,383.16499)"><g
         id="g1134"><g
           id="g1140"><g
             id="g1142"><path
               d="m 165.024,448.225 c 0.436,-7.394 16.703,-8.886 18.415,-8.844 v 0 c 1.711,0.041 11.308,0.145 12.904,0.435 v 0 c 1.596,0.289 6.814,0.145 6.814,0.145 v 0 l 136.354,-7.54 v 0 L 199.95,444.876 c 0,0 -7.472,0.631 -9.613,1.32 v 0 c -2.139,0.686 -13.858,2.756 -15.31,2.899 v 0 c -0.796,0.08 -3.789,0.553 -6.294,0.553 v 0 c -2.05,10e-4 -3.774,-0.316 -3.709,-1.423 m 14.536,-6.111 c -1.776,0.218 -3.622,0.87 -5.36,1.34 v 0 c -1.738,0.471 -4.054,1.81 -4.054,2.896 v 0 c 0,0 1.301,0.76 6.445,0 v 0 c 8.998,-1.331 13.031,-4.018 11.656,-4.382 v 0 c -0.472,-0.123 -1.434,-0.171 -2.565,-0.171 v 0 c -2.167,0 -4.957,0.175 -6.122,0.317"
               style="fill:url(#linearGradient1154);stroke:none"
               id="path1156" /></g></g></g></g><g
       id="g1158"
       transform="translate(-152.05777,383.16499)"><g
         id="g1160"
         clip-path="url(#clipPath1164)"><g
           id="g1166"
           transform="translate(188.2471,441.9697)"><path
             d="m 0,0 c -1.375,-0.362 -6.914,-0.072 -8.688,0.145 -1.775,0.217 -3.621,0.869 -5.359,1.339 -1.738,0.471 -4.055,1.811 -4.055,2.897 0,0 1.303,0.76 6.446,0 C -2.658,3.05 1.375,0.362 0,0 Z m 11.703,2.906 c 0,0 -7.473,0.631 -9.613,1.32 -2.139,0.687 -13.858,2.754 -15.309,2.899 -1.449,0.146 -10.148,1.591 -10.004,-0.869 0.436,-7.395 16.703,-8.887 18.414,-8.845 1.711,0.041 11.309,0.145 12.905,0.435 1.595,0.29 6.814,0.145 6.814,0.145 l 136.354,-7.54 z"
             style="fill:none;stroke:#1c1c20;stroke-width:0.3;stroke-linecap:butt;stroke-linejoin:miter;stroke-miterlimit:10;stroke-dasharray:none;stroke-opacity:1"
             id="path1168" /></g></g></g><g
       id="g1170"
       transform="translate(-152.05777,383.16499)"><g
         id="g1172"><g
           id="g1178"><g
             id="g1180"><path
               d="m 174.794,446.572 c 0,0 0.456,-1.061 1.469,-2.878 v 0 c -0.506,0.947 -0.995,1.906 -1.469,2.878 z m 79.451,-63.892 v 13.438 c -51.6,7.019 -72.613,37.939 -77.982,47.576 v 0 c 23.252,-43.621 77.982,-61.014 77.982,-61.014"
               style="fill:url(#linearGradient1192);stroke:none"
               id="path1194" /></g></g></g></g><g
       id="g1196"
       transform="translate(-152.05777,383.16499)"><g
         id="g1198"
         clip-path="url(#clipPath1202)"><g
           id="g1204"
           transform="translate(263.4893,392.7031)"><path
             d="M 0,0 V 0.308 C 0.594,0.27 1.047,0.25 1.355,0.25 c 0.352,0 0.731,0.02 1.137,0.058 0.145,-0.367 0.262,-0.645 0.35,-0.836 0.117,-0.259 0.58,-1.237 1.39,-2.934 0.344,-0.722 0.692,-1.425 1.043,-2.112 l 2.276,4.695 C 7.689,-0.59 7.854,-0.194 8.045,0.308 8.521,0.27 8.887,0.25 9.139,0.25 c 0.234,0 0.631,0.02 1.189,0.058 V 0 C 10.223,-0.028 10.143,-0.048 10.09,-0.058 9.596,-0.155 9.318,-0.227 9.262,-0.272 9.17,-0.342 9.123,-0.518 9.123,-0.8 V -0.868 L 9.102,-2.524 c 0,-2.083 0.009,-3.348 0.027,-3.793 0.004,-0.094 0.031,-0.164 0.082,-0.209 0.053,-0.046 0.355,-0.12 0.91,-0.225 0.047,-0.007 0.115,-0.023 0.207,-0.047 v -0.308 c -0.639,0.038 -1.203,0.057 -1.689,0.057 -0.498,0 -1.086,-0.019 -1.766,-0.057 v 0.308 c 0.139,0.034 0.244,0.059 0.315,0.072 0.433,0.08 0.681,0.137 0.744,0.17 0.062,0.034 0.103,0.079 0.125,0.139 0.033,0.102 0.048,0.383 0.048,0.847 v 4.561 C 7.781,-1.636 7.053,-3.146 5.916,-5.539 5.604,-6.197 5.373,-6.701 5.223,-7.049 H 4.92 c -0.795,1.732 -1.772,3.744 -2.926,6.04 l 0.07,-4.87 c 0,-0.387 0.032,-0.607 0.096,-0.663 C 2.225,-6.598 2.492,-6.666 2.965,-6.746 3.02,-6.757 3.1,-6.774 3.211,-6.798 v -0.308 c -0.615,0.038 -1.113,0.057 -1.492,0.057 -0.381,0 -0.885,-0.019 -1.51,-0.057 v 0.308 c 0.104,0.027 0.18,0.045 0.229,0.052 0.47,0.091 0.732,0.169 0.789,0.235 0.086,0.098 0.13,0.336 0.134,0.716 l 0.026,1.176 c 0.017,1.072 0.027,2.112 0.027,3.119 l -0.006,0.638 c 0,0.254 -0.015,0.413 -0.047,0.477 C 1.328,-0.32 1.277,-0.274 1.205,-0.246 1.07,-0.193 0.77,-0.133 0.299,-0.063 0.232,-0.053 0.133,-0.032 0,0"
             style="fill:#83c452;fill-opacity:1;fill-rule:nonzero;stroke:none"
             id="path1206" /></g><g
           id="g1208"
           transform="translate(277.8955,389.4082)"><path
             d="m 0,0 c 0,-1.15 0.256,-2.014 0.77,-2.591 0.513,-0.577 1.164,-0.865 1.949,-0.865 0.519,0 0.978,0.134 1.381,0.402 0.402,0.269 0.705,0.661 0.912,1.179 0.205,0.519 0.308,1.091 0.308,1.718 0,0.788 -0.131,1.442 -0.394,1.961 C 4.662,2.323 4.338,2.695 3.949,2.921 3.563,3.146 3.127,3.258 2.645,3.258 2.113,3.258 1.639,3.121 1.221,2.848 0.801,2.573 0.492,2.178 0.295,1.66 0.098,1.143 0,0.589 0,0 m -1.168,-0.154 c 0,1.142 0.375,2.081 1.127,2.813 C 0.711,3.393 1.678,3.76 2.857,3.76 3.955,3.76 4.83,3.436 5.48,2.788 6.131,2.14 6.457,1.248 6.457,0.112 c 0,-1.26 -0.367,-2.256 -1.1,-2.986 -0.732,-0.73 -1.695,-1.095 -2.888,-1.095 -1.121,0 -2.006,0.331 -2.658,0.993 -0.653,0.663 -0.979,1.603 -0.979,2.822"
             style="fill:#83c452;fill-opacity:1;fill-rule:nonzero;stroke:none"
             id="path1210" /></g><g
           id="g1212"
           transform="translate(289.5811,386.2188)"><path
             d="m 0,0 c 0.574,-0.07 1.059,-0.104 1.449,-0.104 0.608,0 1.11,0.095 1.504,0.287 0.565,0.282 0.994,0.693 1.287,1.233 0.293,0.539 0.44,1.203 0.44,1.99 0,0.411 -0.049,0.786 -0.147,1.126 C 4.436,4.872 4.305,5.143 4.143,5.345 3.904,5.646 3.594,5.873 3.209,6.032 2.824,6.19 2.271,6.271 1.545,6.271 1.107,6.271 0.594,6.243 0,6.191 -0.021,5.275 -0.033,4.237 -0.033,3.077 -0.033,1.851 -0.021,0.825 0,0 M -2.277,6.484 V 6.792 C -1.574,6.754 -0.809,6.734 0.021,6.734 L 2.398,6.766 C 3.205,6.766 3.85,6.652 4.332,6.424 4.813,6.195 5.188,5.832 5.453,5.334 5.721,4.836 5.854,4.256 5.854,3.595 5.854,2.375 5.43,1.368 4.584,0.574 3.738,-0.22 2.604,-0.617 1.178,-0.617 c -0.082,0 -0.408,0.01 -0.977,0.029 -0.568,0.019 -0.902,0.028 -1.002,0.028 -0.344,0 -0.836,-0.02 -1.476,-0.062 v 0.309 c 0.58,0.107 0.902,0.171 0.966,0.193 0.067,0.02 0.114,0.045 0.143,0.072 0.027,0.028 0.047,0.068 0.059,0.115 0.017,0.074 0.029,0.371 0.037,0.889 0.021,1.132 0.031,1.956 0.031,2.472 l -0.031,2.288 0.006,0.179 c 0,0.172 -0.053,0.284 -0.157,0.334 -0.06,0.034 -0.412,0.119 -1.054,0.255"
             style="fill:#83c452;fill-opacity:1;fill-rule:nonzero;stroke:none"
             id="path1214" /></g><g
           id="g1216"
           transform="translate(299.9185,388.4648)"><path
             d="m 0,0 c 0.494,-0.014 0.849,-0.021 1.062,-0.021 0.063,0 0.609,0.007 1.633,0.021 L 1.349,3.135 Z M 1.406,4.672 H 1.742 C 2.222,3.463 2.812,2.092 3.513,0.56 l 1.242,-2.661 c 0.057,-0.093 0.118,-0.163 0.186,-0.21 0.045,-0.03 0.307,-0.113 0.785,-0.25 v -0.307 c -0.648,0.038 -1.123,0.057 -1.43,0.057 -0.314,0 -0.847,-0.019 -1.601,-0.057 v 0.307 c 0.43,0.088 0.683,0.158 0.752,0.21 0.074,0.052 0.109,0.113 0.109,0.183 0,0.073 -0.037,0.196 -0.115,0.371 L 2.9,-0.522 c -0.754,0.006 -1.301,0.01 -1.643,0.01 l -1.459,-0.01 -0.564,-1.322 c -0.09,-0.213 -0.135,-0.345 -0.135,-0.397 0,-0.045 0.02,-0.083 0.065,-0.113 0.043,-0.029 0.25,-0.084 0.621,-0.159 0.039,-0.01 0.095,-0.026 0.164,-0.048 v -0.307 c -0.606,0.038 -1.035,0.057 -1.285,0.057 -0.315,0 -0.721,-0.019 -1.215,-0.057 v 0.307 c 0.324,0.071 0.546,0.149 0.666,0.236 0.091,0.066 0.183,0.178 0.279,0.335 0.203,0.344 0.717,1.454 1.545,3.328 z"
             style="fill:#83c452;fill-opacity:1;fill-rule:nonzero;stroke:none"
             id="path1218" /></g><g
           id="g1220"
           transform="translate(315.3267,389.7402)"><path
             d="m 0,0 h 1.291 c 0.496,0 0.791,0.013 0.88,0.039 0.09,0.025 0.159,0.079 0.217,0.159 0.053,0.08 0.123,0.312 0.205,0.696 0.01,0.038 0.024,0.097 0.047,0.177 H 2.99 C 2.951,0.496 2.933,0.054 2.933,-0.256 c 0,-0.321 0.018,-0.76 0.057,-1.317 H 2.64 C 2.535,-1.068 2.474,-0.786 2.447,-0.727 2.412,-0.643 2.351,-0.583 2.261,-0.546 2.173,-0.51 1.906,-0.491 1.468,-0.491 H 0.007 l 0.024,-3.072 h 2.236 l 0.197,0.004 c 0.307,0 0.498,0.013 0.575,0.038 0.136,0.044 0.254,0.12 0.357,0.226 0.104,0.107 0.293,0.407 0.572,0.9 0.028,0.05 0.069,0.122 0.129,0.216 H 4.464 C 4.421,-2.291 4.199,-2.945 3.802,-4.145 c -1.293,0.04 -2.476,0.059 -3.545,0.059 -0.746,0 -1.57,-0.019 -2.476,-0.059 v 0.31 l 0.865,0.183 c 0.139,0.038 0.223,0.076 0.256,0.115 0.053,0.065 0.08,0.203 0.08,0.412 v 0.095 l 0.027,1.227 c 0.004,0.237 0.006,0.702 0.006,1.395 0,1.007 -0.004,1.745 -0.013,2.213 -0.006,0.468 -0.023,0.734 -0.053,0.797 -0.02,0.042 -0.053,0.076 -0.096,0.102 -0.045,0.025 -0.209,0.07 -0.496,0.133 l -0.576,0.126 v 0.308 c 0.668,-0.039 1.467,-0.058 2.396,-0.058 0.508,0 1.717,0.019 3.625,0.058 C 3.81,2.668 3.853,2.072 3.931,1.483 H 3.558 C 3.414,1.957 3.3,2.271 3.209,2.43 3.148,2.537 3.074,2.608 2.986,2.644 2.869,2.688 2.609,2.712 2.207,2.712 H 0.054 L 0.017,1.029 Z"
             style="fill:#83c452;fill-opacity:1;fill-rule:nonzero;stroke:none"
             id="path1222" /></g><g
           id="g1224"
           transform="translate(322.4058,392.7031)"><path
             d="M 0,0 V 0.308 C 0.594,0.27 1.045,0.25 1.354,0.25 c 0.352,0 0.732,0.02 1.135,0.058 0.148,-0.367 0.265,-0.645 0.353,-0.836 0.117,-0.259 0.58,-1.237 1.387,-2.934 0.344,-0.722 0.695,-1.425 1.043,-2.112 l 2.277,4.695 C 7.688,-0.59 7.854,-0.194 8.045,0.308 8.521,0.27 8.887,0.25 9.139,0.25 c 0.233,0 0.631,0.02 1.188,0.058 V 0 C 10.223,-0.028 10.143,-0.048 10.088,-0.058 9.594,-0.155 9.317,-0.227 9.262,-0.272 9.17,-0.342 9.122,-0.518 9.122,-0.8 v -0.068 l -0.02,-1.656 c 0,-2.083 0.008,-3.348 0.027,-3.793 0.004,-0.094 0.03,-0.164 0.082,-0.209 0.053,-0.046 0.354,-0.12 0.909,-0.225 0.046,-0.007 0.115,-0.023 0.207,-0.047 v -0.308 c -0.639,0.038 -1.202,0.057 -1.688,0.057 -0.498,0 -1.086,-0.019 -1.767,-0.057 v 0.308 c 0.14,0.034 0.244,0.059 0.316,0.072 0.432,0.08 0.68,0.137 0.744,0.17 0.061,0.034 0.102,0.079 0.125,0.139 0.033,0.102 0.047,0.383 0.047,0.847 v 4.561 C 7.78,-1.636 7.053,-3.146 5.916,-5.539 5.604,-6.197 5.37,-6.701 5.223,-7.049 H 4.92 c -0.798,1.732 -1.773,3.744 -2.927,6.04 l 0.07,-4.87 c 0,-0.387 0.033,-0.607 0.096,-0.663 0.066,-0.056 0.332,-0.124 0.806,-0.204 0.053,-0.011 0.135,-0.028 0.246,-0.052 v -0.308 c -0.615,0.038 -1.113,0.057 -1.494,0.057 -0.381,0 -0.883,-0.019 -1.508,-0.057 v 0.308 c 0.102,0.027 0.18,0.045 0.229,0.052 0.467,0.091 0.732,0.169 0.789,0.235 0.086,0.098 0.129,0.336 0.131,0.716 l 0.029,1.176 c 0.016,1.072 0.026,2.112 0.026,3.119 l -0.006,0.638 c 0,0.254 -0.014,0.413 -0.049,0.477 C 1.327,-0.32 1.276,-0.274 1.204,-0.246 1.069,-0.193 0.768,-0.133 0.299,-0.063 0.229,-0.053 0.133,-0.032 0,0"
             style="fill:#83c452;fill-opacity:1;fill-rule:nonzero;stroke:none"
             id="path1226" /></g><g
           id="g1228"
           transform="translate(337.605,389.4316)"><path
             d="m 0,0 c 0.377,-0.083 0.7,-0.125 0.971,-0.125 0.582,0 1.033,0.149 1.35,0.449 0.32,0.3 0.478,0.697 0.478,1.197 0,0.484 -0.148,0.862 -0.441,1.133 C 2.065,2.926 1.616,3.063 1.014,3.063 0.745,3.063 0.426,3.034 0.049,2.979 0.02,1.927 0.004,0.934 0,0 m -2.24,3.271 v 0.308 c 0.459,-0.038 1.047,-0.058 1.76,-0.058 l 2.107,0.022 c 0.78,0 1.352,-0.162 1.711,-0.486 0.358,-0.328 0.539,-0.772 0.539,-1.332 0,-0.652 -0.242,-1.198 -0.728,-1.639 -0.481,-0.44 -1.145,-0.66 -1.994,-0.66 -0.326,0 -0.713,0.045 -1.162,0.136 -0.002,-0.544 -0.004,-0.933 -0.004,-1.166 0,-0.885 0.019,-1.399 0.054,-1.542 0.014,-0.059 0.047,-0.104 0.102,-0.135 0.098,-0.056 0.432,-0.124 1.001,-0.204 0.048,-0.007 0.122,-0.021 0.212,-0.041 v -0.309 c -0.674,0.038 -1.305,0.058 -1.891,0.058 -0.556,0 -1.123,-0.02 -1.707,-0.058 v 0.309 c 0.137,0.034 0.242,0.056 0.309,0.067 0.469,0.094 0.732,0.162 0.785,0.204 0.088,0.076 0.131,0.28 0.131,0.61 l 0.019,2.53 -0.007,2.529 v 0.115 c 0,0.223 -0.034,0.366 -0.102,0.428 -0.072,0.064 -0.361,0.147 -0.869,0.251 -0.055,0.015 -0.145,0.035 -0.266,0.063"
             style="fill:#83c452;fill-opacity:1;fill-rule:nonzero;stroke:none"
             id="path1230" /></g><g
           id="g1232"
           transform="translate(346.4761,389.5049)"><path
             d="m 0,0 c 0.368,-0.038 0.653,-0.058 0.856,-0.058 0.648,0 1.127,0.142 1.439,0.424 0.309,0.283 0.467,0.676 0.467,1.178 0,0.439 -0.14,0.787 -0.414,1.042 C 2.071,2.841 1.672,2.968 1.146,2.968 0.956,2.968 0.586,2.947 0.03,2.905 Z m -2.234,3.198 v 0.308 c 0.94,-0.038 1.697,-0.058 2.264,-0.058 0.326,0 0.633,0.004 0.918,0.011 0.377,0.014 0.638,0.02 0.783,0.02 0.695,0 1.215,-0.16 1.57,-0.48 C 3.647,2.675 3.821,2.238 3.821,1.688 3.821,1.318 3.743,0.991 3.584,0.708 3.426,0.424 3.196,0.185 2.899,-0.011 2.682,-0.15 2.372,-0.274 1.971,-0.382 L 3.747,-2.649 C 3.967,-2.932 4.104,-3.097 4.163,-3.146 4.252,-3.219 4.366,-3.281 4.51,-3.334 4.709,-3.41 5.045,-3.499 5.518,-3.6 v -0.308 c -0.562,0.038 -0.971,0.057 -1.228,0.057 -0.295,0 -0.596,-0.019 -0.905,-0.057 -0.16,0.261 -0.377,0.59 -0.652,0.984 -0.272,0.396 -0.44,0.63 -0.5,0.703 -0.037,0.042 -0.07,0.085 -0.1,0.131 L 0.959,-0.512 C 0.643,-0.505 0.321,-0.482 0,-0.444 L 0.043,-3.077 C 0.049,-3.182 0.081,-3.261 0.139,-3.313 0.223,-3.383 0.489,-3.457 0.938,-3.537 1.002,-3.548 1.1,-3.568 1.229,-3.6 v -0.308 c -0.641,0.038 -1.208,0.057 -1.701,0.057 -0.524,0 -1.113,-0.019 -1.762,-0.057 V -3.6 l 0.227,0.047 c 0.509,0.094 0.797,0.171 0.867,0.233 0.07,0.06 0.111,0.17 0.119,0.326 0.008,0.101 0.016,0.996 0.029,2.685 l -0.023,2.456 c -0.004,0.376 -0.012,0.592 -0.029,0.649 -0.016,0.056 -0.051,0.097 -0.102,0.125 -0.174,0.091 -0.453,0.165 -0.828,0.225 -0.057,0.01 -0.143,0.028 -0.26,0.052"
             style="fill:#83c452;fill-opacity:1;fill-rule:nonzero;stroke:none"
             id="path1234" /></g><g
           id="g1236"
           transform="translate(356.5024,389.7402)"><path
             d="M 0,0 H 1.289 C 1.787,0 2.08,0.013 2.171,0.039 2.259,0.064 2.33,0.118 2.386,0.198 2.441,0.278 2.511,0.51 2.591,0.894 2.603,0.932 2.617,0.991 2.64,1.071 H 2.99 C 2.951,0.496 2.933,0.054 2.933,-0.256 c 0,-0.321 0.018,-0.76 0.057,-1.317 H 2.64 C 2.535,-1.068 2.472,-0.786 2.447,-0.727 2.412,-0.643 2.351,-0.583 2.261,-0.546 2.173,-0.51 1.906,-0.491 1.466,-0.491 H 0.005 l 0.026,-3.072 h 2.236 l 0.197,0.004 c 0.305,0 0.498,0.013 0.575,0.038 0.136,0.044 0.255,0.12 0.357,0.226 0.102,0.107 0.293,0.407 0.572,0.9 0.026,0.05 0.069,0.122 0.127,0.216 H 4.464 C 4.421,-2.291 4.199,-2.945 3.802,-4.145 c -1.293,0.04 -2.476,0.059 -3.545,0.059 -0.746,0 -1.572,-0.019 -2.476,-0.059 v 0.31 l 0.865,0.183 c 0.137,0.038 0.223,0.076 0.254,0.115 0.055,0.065 0.08,0.203 0.08,0.412 v 0.095 l 0.029,1.227 c 0.004,0.237 0.006,0.702 0.006,1.395 0,1.007 -0.004,1.745 -0.012,2.213 -0.007,0.468 -0.025,0.734 -0.054,0.797 -0.02,0.042 -0.053,0.076 -0.098,0.102 -0.043,0.025 -0.209,0.07 -0.494,0.133 l -0.576,0.126 v 0.308 c 0.668,-0.039 1.467,-0.058 2.396,-0.058 0.508,0 1.717,0.019 3.625,0.058 C 3.81,2.668 3.853,2.072 3.931,1.483 H 3.558 C 3.414,1.957 3.3,2.271 3.209,2.43 3.148,2.537 3.074,2.608 2.984,2.644 2.867,2.688 2.609,2.712 2.207,2.712 H 0.054 L 0.017,1.029 Z"
             style="fill:#83c452;fill-opacity:1;fill-rule:nonzero;stroke:none"
             id="path1238" /></g><g
           id="g1240"
           transform="translate(368.6196,391.0146)"><path
             d="m 0,0 h -0.405 c -0.092,0.447 -0.199,0.774 -0.316,0.979 -0.117,0.208 -0.295,0.37 -0.535,0.487 -0.239,0.116 -0.51,0.175 -0.807,0.175 -0.422,0 -0.76,-0.116 -1.01,-0.345 -0.25,-0.232 -0.377,-0.51 -0.377,-0.837 0,-0.29 0.102,-0.542 0.309,-0.759 0.203,-0.216 0.699,-0.489 1.486,-0.819 0.789,-0.33 1.324,-0.671 1.608,-1.025 0.279,-0.354 0.42,-0.753 0.42,-1.197 0,-0.397 -0.104,-0.767 -0.317,-1.109 -0.211,-0.342 -0.531,-0.614 -0.953,-0.82 -0.426,-0.203 -0.883,-0.305 -1.374,-0.305 -0.333,0 -0.669,0.031 -1.005,0.095 -0.336,0.062 -0.74,0.168 -1.207,0.323 0.051,0.491 0.08,1.142 0.08,1.954 h 0.41 c 0.116,-0.523 0.237,-0.888 0.364,-1.097 0.125,-0.209 0.316,-0.381 0.572,-0.514 0.256,-0.134 0.536,-0.202 0.84,-0.202 0.42,0 0.787,0.116 1.105,0.345 0.313,0.231 0.471,0.553 0.471,0.968 0,0.338 -0.113,0.638 -0.34,0.899 -0.232,0.258 -0.732,0.55 -1.5,0.876 -0.771,0.324 -1.287,0.639 -1.543,0.938 -0.26,0.296 -0.392,0.649 -0.392,1.06 0,0.359 0.105,0.701 0.314,1.026 0.211,0.325 0.521,0.583 0.926,0.772 0.406,0.191 0.83,0.285 1.267,0.285 C -1.383,2.153 -0.745,2.029 0,1.782 -0.018,1.272 -0.026,0.967 -0.026,0.862 -0.026,0.65 -0.018,0.362 0,0"
             style="fill:#83c452;fill-opacity:1;fill-rule:nonzero;stroke:none"
             id="path1242" /></g><g
           id="g1244"
           transform="translate(374.3403,388.4648)"><path
             d="m 0,0 c 0.494,-0.014 0.849,-0.021 1.062,-0.021 0.063,0 0.609,0.007 1.633,0.021 L 1.349,3.135 Z M 1.406,4.672 H 1.742 C 2.222,3.463 2.812,2.092 3.513,0.56 l 1.242,-2.661 c 0.057,-0.093 0.118,-0.163 0.186,-0.21 0.045,-0.03 0.307,-0.113 0.785,-0.25 v -0.307 c -0.648,0.038 -1.123,0.057 -1.43,0.057 -0.314,0 -0.847,-0.019 -1.601,-0.057 v 0.307 c 0.43,0.088 0.683,0.158 0.752,0.21 0.074,0.052 0.109,0.113 0.109,0.183 0,0.073 -0.037,0.196 -0.115,0.371 L 2.9,-0.522 c -0.754,0.006 -1.301,0.01 -1.643,0.01 l -1.459,-0.01 -0.564,-1.322 c -0.09,-0.213 -0.135,-0.345 -0.135,-0.397 0,-0.045 0.02,-0.083 0.065,-0.113 0.043,-0.029 0.25,-0.084 0.621,-0.159 0.039,-0.01 0.095,-0.026 0.164,-0.048 v -0.307 c -0.606,0.038 -1.035,0.057 -1.285,0.057 -0.315,0 -0.721,-0.019 -1.215,-0.057 v 0.307 c 0.324,0.071 0.545,0.149 0.666,0.236 0.09,0.066 0.183,0.178 0.279,0.335 0.203,0.344 0.717,1.454 1.545,3.328 z"
             style="fill:#83c452;fill-opacity:1;fill-rule:nonzero;stroke:none"
             id="path1246" /></g><g
           id="g1248"
           transform="translate(384.7925,389.5049)"><path
             d="m 0,0 c 0.368,-0.038 0.655,-0.058 0.858,-0.058 0.648,0 1.125,0.142 1.437,0.424 0.311,0.283 0.467,0.676 0.467,1.178 0,0.439 -0.137,0.787 -0.412,1.042 C 2.073,2.841 1.672,2.968 1.146,2.968 0.959,2.968 0.586,2.947 0.03,2.905 Z m -2.234,3.198 v 0.308 c 0.94,-0.038 1.697,-0.058 2.264,-0.058 0.328,0 0.633,0.004 0.918,0.011 0.377,0.014 0.64,0.02 0.783,0.02 0.695,0 1.217,-0.16 1.57,-0.48 C 3.647,2.675 3.821,2.238 3.821,1.688 3.821,1.318 3.743,0.991 3.586,0.708 3.428,0.424 3.198,0.185 2.899,-0.011 2.684,-0.15 2.372,-0.274 1.973,-0.382 L 3.747,-2.649 C 3.969,-2.932 4.106,-3.097 4.163,-3.146 4.252,-3.219 4.368,-3.281 4.51,-3.334 4.709,-3.41 5.045,-3.499 5.52,-3.6 v -0.308 c -0.564,0.038 -0.971,0.057 -1.227,0.057 -0.296,0 -0.599,-0.019 -0.906,-0.057 -0.16,0.261 -0.377,0.59 -0.652,0.984 -0.274,0.396 -0.44,0.63 -0.502,0.703 -0.035,0.042 -0.07,0.085 -0.1,0.131 L 0.959,-0.512 C 0.643,-0.505 0.323,-0.482 0,-0.444 L 0.043,-3.077 C 0.051,-3.182 0.081,-3.261 0.139,-3.313 0.225,-3.383 0.489,-3.457 0.938,-3.537 1.002,-3.548 1.1,-3.568 1.231,-3.6 v -0.308 c -0.643,0.038 -1.21,0.057 -1.701,0.057 -0.526,0 -1.115,-0.019 -1.764,-0.057 V -3.6 l 0.229,0.047 c 0.509,0.094 0.798,0.171 0.865,0.233 0.072,0.06 0.111,0.17 0.121,0.326 0.006,0.101 0.016,0.996 0.027,2.685 l -0.023,2.456 c -0.002,0.376 -0.01,0.592 -0.029,0.649 -0.016,0.056 -0.051,0.097 -0.102,0.125 -0.174,0.091 -0.451,0.165 -0.828,0.225 -0.055,0.01 -0.143,0.028 -0.26,0.052"
             style="fill:#83c452;fill-opacity:1;fill-rule:nonzero;stroke:none"
             id="path1250" /></g><g
           id="g1252"
           transform="translate(396.1265,393.0107)"><path
             d="m 0,0 v -0.308 c -0.125,-0.028 -0.218,-0.047 -0.277,-0.057 -0.473,-0.08 -0.746,-0.156 -0.822,-0.228 -0.076,-0.071 -0.113,-0.23 -0.113,-0.478 v -0.183 l -0.024,-2.1 0.014,-3.051 c 0,-0.244 0.035,-0.4 0.111,-0.466 0.072,-0.067 0.322,-0.123 0.748,-0.172 0.082,-0.011 0.201,-0.031 0.356,-0.062 v -0.309 c -0.571,0.038 -1.123,0.058 -1.651,0.058 -0.547,0 -1.15,-0.02 -1.804,-0.058 v 0.309 c 0.105,0.027 0.183,0.043 0.234,0.051 0.506,0.08 0.795,0.155 0.869,0.222 0.072,0.068 0.109,0.24 0.109,0.515 l -0.013,0.261 0.019,1.918 c 0,1.972 -0.006,3.062 -0.019,3.271 -0.006,0.115 -0.045,0.204 -0.112,0.266 -0.068,0.063 -0.339,0.138 -0.806,0.225 -0.061,0.014 -0.156,0.036 -0.281,0.068 V 0 c 0.774,-0.038 1.378,-0.058 1.812,-0.058 0.484,0 1.035,0.02 1.65,0.058"
             style="fill:#83c452;fill-opacity:1;fill-rule:nonzero;stroke:none"
             id="path1254" /></g><g
           id="g1256"
           transform="translate(401.1558,388.4648)"><path
             d="m 0,0 c 0.493,-0.014 0.846,-0.021 1.061,-0.021 0.061,0 0.607,0.007 1.633,0.021 L 1.346,3.135 Z M 1.403,4.672 H 1.739 C 2.221,3.463 2.811,2.092 3.512,0.56 l 1.242,-2.661 c 0.057,-0.093 0.118,-0.163 0.184,-0.21 0.047,-0.03 0.309,-0.113 0.785,-0.25 V -2.868 C 5.075,-2.83 4.6,-2.811 4.295,-2.811 3.981,-2.811 3.448,-2.83 2.694,-2.868 v 0.307 c 0.431,0.088 0.681,0.158 0.752,0.21 0.072,0.052 0.107,0.113 0.107,0.183 0,0.073 -0.037,0.196 -0.113,0.371 l -0.541,1.275 c -0.753,0.006 -1.301,0.01 -1.645,0.01 l -1.459,-0.01 -0.562,-1.322 c -0.09,-0.213 -0.137,-0.345 -0.137,-0.397 0,-0.045 0.02,-0.083 0.065,-0.113 0.045,-0.029 0.252,-0.084 0.621,-0.159 0.039,-0.01 0.097,-0.026 0.166,-0.048 v -0.307 c -0.606,0.038 -1.037,0.057 -1.285,0.057 -0.315,0 -0.721,-0.019 -1.215,-0.057 v 0.307 c 0.323,0.071 0.545,0.149 0.666,0.236 0.088,0.066 0.183,0.178 0.279,0.335 0.203,0.344 0.715,1.454 1.544,3.328 z"
             style="fill:#83c452;fill-opacity:1;fill-rule:nonzero;stroke:none"
             id="path1258" /></g><g
           id="g1260"
           transform="translate(409.4097,392.7031)"><path
             d="M 0,0 V 0.308 C 0.87,0.27 1.461,0.25 1.77,0.25 c 0.191,0 0.803,0.02 1.838,0.058 V 0 C 2.969,-0.108 2.594,-0.18 2.483,-0.215 2.405,-0.239 2.35,-0.277 2.313,-0.33 2.26,-0.402 2.229,-0.555 2.223,-0.784 2.217,-1.014 2.213,-2.303 2.213,-4.65 c 0,-0.464 0.004,-1.082 0.016,-1.856 h 2.35 c 0.353,0 0.58,0.022 0.689,0.063 0.107,0.042 0.215,0.134 0.33,0.277 0.113,0.143 0.328,0.502 0.639,1.076 H 6.69 L 6.266,-6.255 C 6.188,-6.471 6.1,-6.755 5.991,-7.106 c -1.47,0.038 -2.75,0.057 -3.84,0.057 -0.77,0 -1.485,-0.019 -2.145,-0.057 v 0.308 c 0.541,0.097 0.858,0.164 0.955,0.201 0.096,0.036 0.159,0.086 0.192,0.149 0.035,0.062 0.051,0.246 0.051,0.549 l 0.025,3.203 -0.014,2.063 c 0,0.178 -0.027,0.289 -0.08,0.335 C 1.053,-0.229 0.791,-0.155 0.346,-0.079 0.268,-0.065 0.151,-0.039 0,0"
             style="fill:#83c452;fill-opacity:1;fill-rule:nonzero;stroke:none"
             id="path1262" /></g><g
           id="g1264"
           transform="translate(279.3291,440.5762)"><path
             d="m 0,0 h -5.773 c -3.372,-2.311 -6.639,-4.801 -9.791,-7.463 h 7.269 C -5.656,-4.729 -2.885,-2.241 0,0"
             style="fill:#231f20;fill-opacity:1;fill-rule:nonzero;stroke:none"
             id="path1266" /></g><g
           id="g1268"
           transform="translate(234.5166,389.8311)"><path
             d="m 0,0 2.527,-1.747 c 11.172,1.364 21.172,4.355 29.871,8.953 L 24.24,7.441 C 17.063,3.48 8.965,0.993 0,0"
             style="fill:#231f20;fill-opacity:1;fill-rule:nonzero;stroke:none"
             id="path1270" /></g><g
           id="g1272"
           transform="translate(433.9985,421.5625)"><path
             d="m 0,0 h 2.707 c 0.64,0 1.082,0.064 1.33,0.194 0.322,0.165 0.484,0.445 0.484,0.839 0,0.4 -0.167,0.681 -0.5,0.846 C 3.763,2.009 3.302,2.074 2.636,2.074 H 0 Z M 0,-0.674 V -2.81 c 0,-0.114 0.021,-0.192 0.062,-0.235 0.039,-0.042 0.126,-0.075 0.26,-0.101 v -0.239 h -1.539 v 0.239 c 0.14,0.031 0.23,0.066 0.267,0.105 0.037,0.04 0.055,0.117 0.055,0.232 v 4.988 c 0,0.12 -0.018,0.201 -0.059,0.243 -0.041,0.043 -0.127,0.073 -0.263,0.094 V 2.755 L 2.578,2.748 C 3.104,2.748 3.519,2.723 3.814,2.673 4.113,2.623 4.375,2.535 4.601,2.411 5.144,2.116 5.414,1.657 5.414,1.033 5.414,0.573 5.242,0.191 4.898,-0.112 4.556,-0.417 4.099,-0.592 3.529,-0.637 L 5.205,-2.943 C 5.308,-3.083 5.459,-3.15 5.664,-3.146 V -3.385 H 3.986 v 0.239 c 0.164,0.021 0.248,0.048 0.248,0.083 0,0.01 -0.055,0.095 -0.168,0.254 L 2.517,-0.674 Z M 2.095,4.38 c -1.816,0 -3.252,-0.475 -4.312,-1.423 -0.967,-0.863 -1.449,-1.954 -1.449,-3.271 0,-1.314 0.482,-2.405 1.449,-3.273 1.06,-0.948 2.502,-1.423 4.328,-1.423 1.836,0 3.283,0.475 4.334,1.423 0.967,0.868 1.451,1.937 1.451,3.205 C 7.896,1 7.412,2.113 6.445,2.957 5.871,3.461 5.25,3.818 4.584,4.028 3.854,4.258 3.023,4.375 2.095,4.38 m 0,0.592 C 4.033,4.972 5.597,4.5 6.783,3.557 7.449,3.032 7.949,2.391 8.283,1.632 8.558,1.008 8.693,0.337 8.693,-0.382 8.693,-1.355 8.396,-2.267 7.8,-3.115 7.146,-4.054 6.232,-4.73 5.068,-5.145 4.197,-5.454 3.212,-5.608 2.111,-5.608 c -1.928,0 -3.483,0.471 -4.666,1.415 -0.66,0.529 -1.16,1.171 -1.498,1.923 -0.274,0.62 -0.412,1.271 -0.412,1.956 0,1.012 0.297,1.946 0.888,2.799 0.643,0.924 1.557,1.598 2.739,2.022 0.826,0.295 1.806,0.449 2.933,0.465"
             style="fill:#1c1c20;fill-opacity:1;fill-rule:nonzero;stroke:none"
             id="path1274" /></g></g></g></g></svg>
